<?xml version="1.0" encoding="UTF-8" standalone="no"?><svg xmlns="http://www.w3.org/2000/svg" xmlns:xlink="http://www.w3.org/1999/xlink" contentStyleType="text/css" height="285px" preserveAspectRatio="none" style="width:609px;height:285px;background:#FFFFFF;" version="1.1" viewBox="0 0 609 285" width="609px" zoomAndPan="magnify"><defs/><g><ellipse cx="368.5" cy="20" fill="#222222" rx="10" ry="10" style="stroke:#222222;stroke-width:1.0;"/><rect fill="#F1F1F1" height="33.9688" rx="12.5" ry="12.5" style="stroke:#181818;stroke-width:0.5;" width="147" x="295" y="50"/><text fill="#000000" font-family="sans-serif" font-size="12" lengthAdjust="spacing" textLength="127" x="305" y="71.1387">Get the input value x.</text><polygon fill="#F1F1F1" points="308.5,103.9688,428.5,103.9688,440.5,115.9688,428.5,127.9688,308.5,127.9688,296.5,115.9688,308.5,103.9688" style="stroke:#181818;stroke-width:0.5;"/><text fill="#000000" font-family="sans-serif" font-size="11" lengthAdjust="spacing" textLength="120" x="308.5" y="119.7769">Value x's type is int?</text><text fill="#000000" font-family="sans-serif" font-size="11" lengthAdjust="spacing" textLength="24" x="272.5" y="113.3745">Yes.</text><text fill="#000000" font-family="sans-serif" font-size="11" lengthAdjust="spacing" textLength="18" x="440.5" y="113.3745">No.</text><polygon fill="#F1F1F1" points="137.5,137.9688,293.5,137.9688,305.5,149.9688,293.5,161.9688,137.5,161.9688,125.5,149.9688,137.5,137.9688" style="stroke:#181818;stroke-width:0.5;"/><text fill="#000000" font-family="sans-serif" font-size="11" lengthAdjust="spacing" textLength="156" x="137.5" y="153.7769">Value x's type is in [0, 10]?</text><text fill="#000000" font-family="sans-serif" font-size="11" lengthAdjust="spacing" textLength="24" x="101.5" y="147.3745">Yes.</text><text fill="#000000" font-family="sans-serif" font-size="11" lengthAdjust="spacing" textLength="18" x="305.5" y="147.3745">No.</text><rect fill="#F1F1F1" height="33.9688" rx="12.5" ry="12.5" style="stroke:#181818;stroke-width:0.5;" width="197" x="11" y="171.9688"/><text fill="#000000" font-family="sans-serif" font-size="12" font-weight="bold" lengthAdjust="spacing" textLength="174" x="21" y="193.1074">Return value x as result</text><text fill="#000000" font-family="sans-serif" font-size="12" lengthAdjust="spacing" textLength="3" x="195" y="193.1074">.</text><ellipse cx="109.5" cy="251.9375" rx="11" ry="11" style="stroke:#222222;stroke-width:1.0;fill:none;"/><ellipse cx="109.5" cy="251.9375" fill="#222222" rx="6" ry="6" style="stroke:#111111;stroke-width:1.0;"/><rect fill="#F1F1F1" height="47.9375" rx="12.5" ry="12.5" style="stroke:#181818;stroke-width:0.5;" width="187" x="228" y="171.9688"/><text fill="#000000" font-family="sans-serif" font-size="12" lengthAdjust="spacing" textLength="163" x="238" y="193.1074">The value x is not in range,</text><text fill="#000000" font-family="sans-serif" font-size="12" font-weight="bold" lengthAdjust="spacing" textLength="119" x="238" y="207.0762">raise ValueError</text><text fill="#000000" font-family="sans-serif" font-size="12" lengthAdjust="spacing" textLength="3" x="357" y="207.0762">.</text><ellipse cx="321.5" cy="264.9063" rx="10" ry="10" style="stroke:#222222;stroke-width:1.5;fill:none;"/><line style="stroke:#222222;stroke-width:2.5;fill:none;" x1="315.3128" x2="327.6872" y1="258.7191" y2="271.0934"/><line style="stroke:#222222;stroke-width:2.5;fill:none;" x1="327.6872" x2="315.3128" y1="258.7191" y2="271.0934"/><rect fill="#F1F1F1" height="47.9375" rx="12.5" ry="12.5" style="stroke:#181818;stroke-width:0.5;" width="153" x="445" y="137.9688"/><text fill="#000000" font-family="sans-serif" font-size="12" lengthAdjust="spacing" textLength="129" x="455" y="159.1074">The value x is invalid,</text><text fill="#000000" font-family="sans-serif" font-size="12" font-weight="bold" lengthAdjust="spacing" textLength="115" x="455" y="173.0762">raise TypeError</text><text fill="#000000" font-family="sans-serif" font-size="12" lengthAdjust="spacing" textLength="3" x="570" y="173.0762">.</text><ellipse cx="521.5" cy="230.9063" rx="10" ry="10" style="stroke:#222222;stroke-width:1.5;fill:none;"/><line style="stroke:#222222;stroke-width:2.5;fill:none;" x1="515.3128" x2="527.6872" y1="224.7191" y2="237.0934"/><line style="stroke:#222222;stroke-width:2.5;fill:none;" x1="527.6872" x2="515.3128" y1="224.7191" y2="237.0934"/><line style="stroke:#181818;stroke-width:1.0;fill:none;" x1="368.5" x2="368.5" y1="30" y2="50"/><polygon fill="#181818" points="364.5,40,368.5,50,372.5,40,368.5,44" style="stroke:#181818;stroke-width:1.0;"/><line style="stroke:#181818;stroke-width:1.0;" x1="109.5" x2="109.5" y1="205.9375" y2="240.9375"/><polygon fill="#181818" points="105.5,230.9375,109.5,240.9375,113.5,230.9375,109.5,234.9375" style="stroke:#181818;stroke-width:1.0;"/><line style="stroke:#181818;stroke-width:1.0;" x1="321.5" x2="321.5" y1="219.9063" y2="254.9063"/><polygon fill="#181818" points="317.5,244.9063,321.5,254.9063,325.5,244.9063,321.5,248.9063" style="stroke:#181818;stroke-width:1.0;"/><line style="stroke:#181818;stroke-width:1.0;" x1="125.5" x2="109.5" y1="149.9688" y2="149.9688"/><line style="stroke:#181818;stroke-width:1.0;" x1="109.5" x2="109.5" y1="149.9688" y2="171.9688"/><polygon fill="#181818" points="105.5,161.9688,109.5,171.9688,113.5,161.9688,109.5,165.9688" style="stroke:#181818;stroke-width:1.0;"/><line style="stroke:#181818;stroke-width:1.0;" x1="305.5" x2="321.5" y1="149.9688" y2="149.9688"/><line style="stroke:#181818;stroke-width:1.0;" x1="321.5" x2="321.5" y1="149.9688" y2="171.9688"/><polygon fill="#181818" points="317.5,161.9688,321.5,171.9688,325.5,161.9688,321.5,165.9688" style="stroke:#181818;stroke-width:1.0;"/><line style="stroke:#181818;stroke-width:1.0;" x1="521.5" x2="521.5" y1="185.9063" y2="220.9063"/><polygon fill="#181818" points="517.5,210.9063,521.5,220.9063,525.5,210.9063,521.5,214.9063" style="stroke:#181818;stroke-width:1.0;"/><line style="stroke:#181818;stroke-width:1.0;" x1="296.5" x2="215.5" y1="115.9688" y2="115.9688"/><line style="stroke:#181818;stroke-width:1.0;" x1="215.5" x2="215.5" y1="115.9688" y2="137.9688"/><polygon fill="#181818" points="211.5,127.9688,215.5,137.9688,219.5,127.9688,215.5,131.9688" style="stroke:#181818;stroke-width:1.0;"/><line style="stroke:#181818;stroke-width:1.0;" x1="440.5" x2="521.5" y1="115.9688" y2="115.9688"/><line style="stroke:#181818;stroke-width:1.0;" x1="521.5" x2="521.5" y1="115.9688" y2="137.9688"/><polygon fill="#181818" points="517.5,127.9688,521.5,137.9688,525.5,127.9688,521.5,131.9688" style="stroke:#181818;stroke-width:1.0;"/><line style="stroke:#181818;stroke-width:1.0;" x1="368.5" x2="368.5" y1="83.9688" y2="103.9688"/><polygon fill="#181818" points="364.5,93.9688,368.5,103.9688,372.5,93.9688,368.5,97.9688" style="stroke:#181818;stroke-width:1.0;"/><!--MD5=[8f2d1bd2491a8c6c2246f537cb56ff59]
@startuml
start

:Get the input value x.;

if (Value x's type is int?) then (Yes.)
    if (Value x's type is in [0, 10]?) then (Yes.)
        :**Return value x as result**.;
        stop
    else (No.)
        :The value x is not in range, \n**raise ValueError**.;
        end
    endif
else (No.)
    :The value x is invalid, \n**raise TypeError**.;
    end
endif
@enduml

PlantUML version 1.2022.4beta2(Unknown compile time)
(GPL source distribution)
Java Runtime: Java(TM) SE Runtime Environment
JVM: Java HotSpot(TM) 64-Bit Server VM
Default Encoding: UTF-8
Language: en
Country: US
--></g></svg>