<?xml version="1.0" encoding="UTF-8" standalone="no"?><svg xmlns="http://www.w3.org/2000/svg" xmlns:xlink="http://www.w3.org/1999/xlink" contentStyleType="text/css" height="779px" preserveAspectRatio="none" style="width:692px;height:779px;background:#FFFFFF;" version="1.1" viewBox="0 0 692 779" width="692px" zoomAndPan="magnify"><defs/><g><rect fill="#F1F1F1" height="33.9688" rx="12.5" ry="12.5" style="stroke:#181818;stroke-width:0.5;" width="131" x="242.5" y="11"/><text fill="#000000" font-family="sans-serif" font-size="12" lengthAdjust="spacing" textLength="111" x="252.5" y="32.1387">Get the input list L.</text><rect fill="#F1F1F1" height="33.9688" rx="12.5" ry="12.5" style="stroke:#181818;stroke-width:0.5;" width="249" x="183.5" y="113.3711"/><text fill="#000000" font-family="sans-serif" font-size="12" lengthAdjust="spacing" textLength="107" x="193.5" y="134.5098">List L not iterable,</text><text fill="#000000" font-family="sans-serif" font-size="12" font-weight="bold" lengthAdjust="spacing" textLength="115" x="304.5" y="134.5098">raise TypeError</text><text fill="#000000" font-family="sans-serif" font-size="12" lengthAdjust="spacing" textLength="3" x="419.5" y="134.5098">.</text><ellipse cx="308" cy="184.8555" rx="10" ry="10" style="stroke:#222222;stroke-width:1.5;fill:none;"/><line style="stroke:#222222;stroke-width:2.5;fill:none;" x1="301.8128" x2="314.1872" y1="178.6683" y2="191.0427"/><line style="stroke:#222222;stroke-width:2.5;fill:none;" x1="314.1872" x2="301.8128" y1="178.6683" y2="191.0427"/><polygon fill="#F1F1F1" points="260,64.9688,356,64.9688,368,76.9688,356,88.9688,260,88.9688,248,76.9688,260,64.9688" style="stroke:#181818;stroke-width:0.5;"/><text fill="#000000" font-family="sans-serif" font-size="11" lengthAdjust="spacing" textLength="18" x="312" y="99.1792">No.</text><text fill="#000000" font-family="sans-serif" font-size="11" lengthAdjust="spacing" textLength="96" x="260" y="80.7769">List L is iterable?</text><text fill="#000000" font-family="sans-serif" font-size="11" lengthAdjust="spacing" textLength="24" x="368" y="74.3745">Yes.</text><rect fill="#F1F1F1" height="33.9688" rx="12.5" ry="12.5" style="stroke:#181818;stroke-width:0.5;" width="166" x="225" y="280.8555"/><text fill="#000000" font-family="sans-serif" font-size="12" lengthAdjust="spacing" textLength="146" x="235" y="301.9941">Get next value x in list L.</text><rect fill="#F1F1F1" height="33.9688" rx="12.5" ry="12.5" style="stroke:#181818;stroke-width:0.5;" width="115" x="250.5" y="334.8242"/><text fill="#000000" font-family="sans-serif" font-size="12" lengthAdjust="spacing" textLength="95" x="260.5" y="355.9629">Set x1 as x + 1.</text><rect fill="#F1F1F1" height="33.9688" rx="12.5" ry="12.5" style="stroke:#181818;stroke-width:0.5;" width="121" x="247.5" y="388.793"/><text fill="#000000" font-family="sans-serif" font-size="12" lengthAdjust="spacing" textLength="101" x="257.5" y="409.9316">Set x2 as x1 * 2.</text><polygon fill="#F1F1F1" points="219.5,442.7617,396.5,442.7617,408.5,454.7617,396.5,466.7617,219.5,466.7617,207.5,454.7617,219.5,442.7617" style="stroke:#181818;stroke-width:0.5;"/><text fill="#000000" font-family="sans-serif" font-size="11" lengthAdjust="spacing" textLength="177" x="219.5" y="458.5698">Value x2's type is from 0 to 10</text><text fill="#000000" font-family="sans-serif" font-size="11" lengthAdjust="spacing" textLength="24" x="183.5" y="452.1675">Yes.</text><text fill="#000000" font-family="sans-serif" font-size="11" lengthAdjust="spacing" textLength="18" x="408.5" y="452.1675">No.</text><rect fill="#F1F1F1" height="47.9375" rx="12.5" ry="12.5" style="stroke:#181818;stroke-width:0.5;" width="175" x="110" y="476.7617"/><text fill="#000000" font-family="sans-serif" font-size="12" lengthAdjust="spacing" textLength="151" x="120" y="497.9004">Item calculation success,</text><text fill="#000000" font-family="sans-serif" font-size="12" font-weight="bold" lengthAdjust="spacing" textLength="149" x="120" y="511.8691">record this result x2</text><text fill="#000000" font-family="sans-serif" font-size="12" lengthAdjust="spacing" textLength="3" x="269" y="511.8691">.</text><rect fill="#F1F1F1" height="47.9375" rx="12.5" ry="12.5" style="stroke:#181818;stroke-width:0.5;" width="192" x="322.5" y="476.7617"/><text fill="#000000" font-family="sans-serif" font-size="12" lengthAdjust="spacing" textLength="168" x="332.5" y="497.9004">The value x2 s not in range,</text><text fill="#000000" font-family="sans-serif" font-size="12" font-weight="bold" lengthAdjust="spacing" textLength="163" x="332.5" y="511.8691">record this ValueError</text><text fill="#000000" font-family="sans-serif" font-size="12" lengthAdjust="spacing" textLength="3" x="495.5" y="511.8691">.</text><polygon fill="#F1F1F1" points="308,530.6992,320,542.6992,308,554.6992,296,542.6992,308,530.6992" style="stroke:#181818;stroke-width:0.5;"/><polygon fill="#F1F1F1" points="308,236.8555,320,248.8555,308,260.8555,296,248.8555,308,236.8555" style="stroke:#181818;stroke-width:0.5;"/><polygon fill="#F1F1F1" points="247,574.6992,369,574.6992,381,586.6992,369,598.6992,247,598.6992,235,586.6992,247,574.6992" style="stroke:#181818;stroke-width:0.5;"/><text fill="#000000" font-family="sans-serif" font-size="11" lengthAdjust="spacing" textLength="122" x="247" y="590.5073">List L has more data?</text><polygon fill="#F1F1F1" points="254.5,618.6992,361.5,618.6992,373.5,630.6992,361.5,642.6992,254.5,642.6992,242.5,630.6992,254.5,618.6992" style="stroke:#181818;stroke-width:0.5;"/><text fill="#000000" font-family="sans-serif" font-size="11" lengthAdjust="spacing" textLength="107" x="254.5" y="634.5073">No error recorded?</text><text fill="#000000" font-family="sans-serif" font-size="11" lengthAdjust="spacing" textLength="24" x="218.5" y="628.105">Yes.</text><text fill="#000000" font-family="sans-serif" font-size="11" lengthAdjust="spacing" textLength="18" x="373.5" y="628.105">No.</text><rect fill="#F1F1F1" height="33.9688" rx="12.5" ry="12.5" style="stroke:#181818;stroke-width:0.5;" width="249" x="11" y="652.6992"/><text fill="#000000" font-family="sans-serif" font-size="12" font-weight="bold" lengthAdjust="spacing" textLength="229" x="21" y="673.8379">Return recorded results as list.</text><rect fill="#F1F1F1" height="33.9688" rx="12.5" ry="12.5" style="stroke:#181818;stroke-width:0.5;" width="401" x="280" y="652.6992"/><text fill="#000000" font-family="sans-serif" font-size="12" font-weight="bold" lengthAdjust="spacing" textLength="381" x="290" y="673.8379">Raise CollectionError, including the recorded errors.</text><ellipse cx="480.5" cy="716.668" rx="10" ry="10" style="stroke:#222222;stroke-width:1.5;fill:none;"/><line style="stroke:#222222;stroke-width:2.5;fill:none;" x1="474.3128" x2="486.6872" y1="710.4808" y2="722.8552"/><line style="stroke:#222222;stroke-width:2.5;fill:none;" x1="486.6872" x2="474.3128" y1="710.4808" y2="722.8552"/><ellipse cx="308" cy="757.668" rx="11" ry="11" style="stroke:#222222;stroke-width:1.0;fill:none;"/><ellipse cx="308" cy="757.668" fill="#222222" rx="6" ry="6" style="stroke:#111111;stroke-width:1.0;"/><line style="stroke:#181818;stroke-width:1.0;" x1="308" x2="308" y1="147.3398" y2="174.8555"/><polygon fill="#181818" points="304,164.8555,308,174.8555,312,164.8555,308,168.8555" style="stroke:#181818;stroke-width:1.0;"/><line style="stroke:#181818;stroke-width:1.0;" x1="308" x2="308" y1="88.9688" y2="113.3711"/><polygon fill="#181818" points="304,103.3711,308,113.3711,312,103.3711,308,107.3711" style="stroke:#181818;stroke-width:1.0;"/><line style="stroke:#181818;stroke-width:1.0;" x1="368" x2="442.5" y1="76.9688" y2="76.9688"/><polygon fill="#181818" points="438.5,144.8555,442.5,154.8555,446.5,144.8555,442.5,148.8555" style="stroke:#181818;stroke-width:1.0;"/><line style="stroke:#181818;stroke-width:1.0;" x1="442.5" x2="442.5" y1="76.9688" y2="216.8555"/><line style="stroke:#181818;stroke-width:1.0;" x1="442.5" x2="308" y1="216.8555" y2="216.8555"/><line style="stroke:#181818;stroke-width:1.0;" x1="308" x2="308" y1="216.8555" y2="236.8555"/><polygon fill="#181818" points="304,226.8555,308,236.8555,312,226.8555,308,230.8555" style="stroke:#181818;stroke-width:1.0;"/><line style="stroke:#181818;stroke-width:1.0;" x1="308" x2="308" y1="44.9688" y2="64.9688"/><polygon fill="#181818" points="304,54.9688,308,64.9688,312,54.9688,308,58.9688" style="stroke:#181818;stroke-width:1.0;"/><line style="stroke:#181818;stroke-width:1.0;" x1="308" x2="308" y1="314.8242" y2="334.8242"/><polygon fill="#181818" points="304,324.8242,308,334.8242,312,324.8242,308,328.8242" style="stroke:#181818;stroke-width:1.0;"/><line style="stroke:#181818;stroke-width:1.0;" x1="308" x2="308" y1="368.793" y2="388.793"/><polygon fill="#181818" points="304,378.793,308,388.793,312,378.793,308,382.793" style="stroke:#181818;stroke-width:1.0;"/><line style="stroke:#181818;stroke-width:1.0;" x1="207.5" x2="197.5" y1="454.7617" y2="454.7617"/><line style="stroke:#181818;stroke-width:1.0;" x1="197.5" x2="197.5" y1="454.7617" y2="476.7617"/><polygon fill="#181818" points="193.5,466.7617,197.5,476.7617,201.5,466.7617,197.5,470.7617" style="stroke:#181818;stroke-width:1.0;"/><line style="stroke:#181818;stroke-width:1.0;" x1="408.5" x2="418.5" y1="454.7617" y2="454.7617"/><line style="stroke:#181818;stroke-width:1.0;" x1="418.5" x2="418.5" y1="454.7617" y2="476.7617"/><polygon fill="#181818" points="414.5,466.7617,418.5,476.7617,422.5,466.7617,418.5,470.7617" style="stroke:#181818;stroke-width:1.0;"/><line style="stroke:#181818;stroke-width:1.0;" x1="197.5" x2="197.5" y1="524.6992" y2="542.6992"/><line style="stroke:#181818;stroke-width:1.0;" x1="197.5" x2="296" y1="542.6992" y2="542.6992"/><polygon fill="#181818" points="286,538.6992,296,542.6992,286,546.6992,290,542.6992" style="stroke:#181818;stroke-width:1.0;"/><line style="stroke:#181818;stroke-width:1.0;" x1="418.5" x2="418.5" y1="524.6992" y2="542.6992"/><line style="stroke:#181818;stroke-width:1.0;" x1="418.5" x2="320" y1="542.6992" y2="542.6992"/><polygon fill="#181818" points="330,538.6992,320,542.6992,330,546.6992,326,542.6992" style="stroke:#181818;stroke-width:1.0;"/><line style="stroke:#181818;stroke-width:1.0;" x1="308" x2="308" y1="422.7617" y2="442.7617"/><polygon fill="#181818" points="304,432.7617,308,442.7617,312,432.7617,308,436.7617" style="stroke:#181818;stroke-width:1.0;"/><line style="stroke:#181818;stroke-width:1.0;" x1="308" x2="308" y1="260.8555" y2="280.8555"/><polygon fill="#181818" points="304,270.8555,308,280.8555,312,270.8555,308,274.8555" style="stroke:#181818;stroke-width:1.0;"/><line style="stroke:#181818;stroke-width:1.0;" x1="381" x2="536.5" y1="586.6992" y2="586.6992"/><polygon fill="#181818" points="532.5,420.2773,536.5,410.2773,540.5,420.2773,536.5,416.2773" style="stroke:#181818;stroke-width:1.0;"/><line style="stroke:#181818;stroke-width:1.0;" x1="536.5" x2="536.5" y1="248.8555" y2="586.6992"/><line style="stroke:#181818;stroke-width:1.0;" x1="536.5" x2="320" y1="248.8555" y2="248.8555"/><polygon fill="#181818" points="330,244.8555,320,248.8555,330,252.8555,326,248.8555" style="stroke:#181818;stroke-width:1.0;"/><line style="stroke:#181818;stroke-width:1.0;" x1="308" x2="308" y1="554.6992" y2="574.6992"/><polygon fill="#181818" points="304,564.6992,308,574.6992,312,564.6992,308,568.6992" style="stroke:#181818;stroke-width:1.0;"/><line style="stroke:#181818;stroke-width:1.0;" x1="480.5" x2="480.5" y1="686.668" y2="706.668"/><polygon fill="#181818" points="476.5,696.668,480.5,706.668,484.5,696.668,480.5,700.668" style="stroke:#181818;stroke-width:1.0;"/><line style="stroke:#181818;stroke-width:1.0;" x1="242.5" x2="135.5" y1="630.6992" y2="630.6992"/><line style="stroke:#181818;stroke-width:1.0;" x1="135.5" x2="135.5" y1="630.6992" y2="652.6992"/><polygon fill="#181818" points="131.5,642.6992,135.5,652.6992,139.5,642.6992,135.5,646.6992" style="stroke:#181818;stroke-width:1.0;"/><line style="stroke:#181818;stroke-width:1.0;" x1="373.5" x2="480.5" y1="630.6992" y2="630.6992"/><line style="stroke:#181818;stroke-width:1.0;" x1="480.5" x2="480.5" y1="630.6992" y2="652.6992"/><polygon fill="#181818" points="476.5,642.6992,480.5,652.6992,484.5,642.6992,480.5,646.6992" style="stroke:#181818;stroke-width:1.0;"/><line style="stroke:#181818;stroke-width:1.0;" x1="135.5" x2="135.5" y1="686.668" y2="731.668"/><line style="stroke:#181818;stroke-width:1.0;" x1="135.5" x2="308" y1="731.668" y2="731.668"/><line style="stroke:#181818;stroke-width:1.0;" x1="308" x2="308" y1="731.668" y2="746.668"/><polygon fill="#181818" points="304,736.668,308,746.668,312,736.668,308,740.668" style="stroke:#181818;stroke-width:1.0;"/><line style="stroke:#181818;stroke-width:1.0;" x1="308" x2="308" y1="598.6992" y2="618.6992"/><polygon fill="#181818" points="304,608.6992,308,618.6992,312,608.6992,308,612.6992" style="stroke:#181818;stroke-width:1.0;"/><!--MD5=[6093edca56c3e8deec054b41bfbd78e5]
@startuml
:Get the input list L.;

if (List L is iterable?) then (Yes.)
else (No.)
    :List L not iterable, **raise TypeError**.;
    end
endif

repeat
    :Get next value x in list L.;
    :Set x1 as x + 1.;
    :Set x2 as x1 * 2.;
    if (Value x2's type is from 0 to 10) then (Yes.)
        :Item calculation success, \n**record this result x2**.;
    else (No.)
        :The value x2 s not in range, \n**record this ValueError**.;
    endif
repeat while (List L has more data?)

if (No error recorded?) then (Yes.)
    :**Return recorded results as list.**;
else (No.)
    :**Raise CollectionError, including the recorded errors.**;
    end
endif

stop
@enduml

PlantUML version 1.2022.4beta2(Unknown compile time)
(GPL source distribution)
Java Runtime: Java(TM) SE Runtime Environment
JVM: Java HotSpot(TM) 64-Bit Server VM
Default Encoding: UTF-8
Language: en
Country: US
--></g></svg>