<svg xmlns="http://www.w3.org/2000/svg" xmlns:xlink="http://www.w3.org/1999/xlink" viewBox="0 0 277.95 94.34"><defs><style>.cls-1{fill:url(#未命名的渐变_1923);}.cls-2{fill:url(#未命名的渐变_1923-2);}.cls-3{fill:url(#未命名的渐变_1923-3);}.cls-4{fill:url(#未命名的渐变_1923-4);}.cls-5{fill:url(#未命名的渐变_1923-5);}.cls-6{fill:url(#未命名的渐变_1923-6);}.cls-7{fill:url(#未命名的渐变_1923-7);}.cls-8{fill:url(#未命名的渐变_1923-8);}.cls-9{fill:url(#未命名的渐变_1923-9);}</style><linearGradient id="未命名的渐变_1923" x1="45.33" y1="62.42" x2="43.98" y2="31.57" gradientUnits="userSpaceOnUse"><stop offset="0" stop-color="#134f99"/><stop offset="0.85" stop-color="#2da0e9"/><stop offset="1" stop-color="#2da0e9"/></linearGradient><linearGradient id="未命名的渐变_1923-2" x1="68.8" y1="62.81" x2="67.45" y2="31.82" xlink:href="#未命名的渐变_1923"/><linearGradient id="未命名的渐变_1923-3" x1="54.72" y1="95.2" x2="50.51" y2="-1.07" xlink:href="#未命名的渐变_1923"/><linearGradient id="未命名的渐变_1923-4" x1="125.58" y1="61.01" x2="124.43" y2="34.81" xlink:href="#未命名的渐变_1923"/><linearGradient id="未命名的渐变_1923-5" x1="155.84" y1="60.73" x2="154.71" y2="34.98" xlink:href="#未命名的渐变_1923"/><linearGradient id="未命名的渐变_1923-6" x1="188.04" y1="72.41" x2="186.39" y2="34.72" xlink:href="#未命名的渐变_1923"/><linearGradient id="未命名的渐变_1923-7" x1="211.97" y1="60.32" x2="210.26" y2="21.31" xlink:href="#未命名的渐变_1923"/><linearGradient id="未命名的渐变_1923-8" x1="234.38" y1="60.73" x2="233.25" y2="34.98" xlink:href="#未命名的渐变_1923"/><linearGradient id="未命名的渐变_1923-9" x1="264.98" y1="61.01" x2="263.84" y2="34.81" xlink:href="#未命名的渐变_1923"/></defs><title>资源 25</title><g id="图层_2" data-name="图层 2"><g id="图层_1-2" data-name="图层 1"><path class="cls-1" d="M58.29,46.62c0-.14,0-.27,0-.4s0-.27,0-.4,0-.26,0-.38l-.06-.38-.06-.38c0-.12,0-.25-.06-.38s-.06-.24-.08-.36-.07-.24-.1-.35l-.09-.36-.09-.36-.12-.34-.13-.34c0-.11-.08-.22-.13-.33l-.12-.34a1.34,1.34,0,0,1-.07-.18,1.09,1.09,0,0,0-.08-.15c-.05-.11-.1-.21-.16-.32l-.15-.32a3.18,3.18,0,0,1-.16-.32l-.17-.31c-.06-.11-.13-.2-.19-.3L56,39.31c-.07-.1-.13-.2-.19-.3s-.12-.2-.19-.3l-.22-.29c-.07-.09-.14-.19-.22-.28L55,37.85c-.08-.09-.14-.19-.22-.28l-.25-.27L54.26,37,54,36.77l-.25-.27h0l-.28-.25L53.21,36l-.28-.25-.28-.25-.32-.22L52,35.05l-.32-.23-.32-.22L51,34.39l-.36-.21L50.32,34c-.12-.07-.25-.13-.38-.19l-.39-.18-.39-.19-.29-.14-.11,0-.44-.15-.44-.16-.44-.16c-.16,0-.33-.08-.5-.12l-.49-.13-.51-.12-.56-.08-.57-.08c-.2,0-.4,0-.61-.06s-.43,0-.65,0-.44,0-.66,0H31.66V62.52H42.88c.25,0,.48,0,.73,0l.77,0c.32,0,.63-.08.94-.13s.7-.12,1-.2.91-.22,1.35-.36.76-.26,1.13-.41a15.36,15.36,0,0,0,4.48-2.83c.15-.14.3-.26.44-.4s.37-.39.55-.58.47-.54.7-.82.38-.48.56-.73.28-.44.42-.66.27-.42.4-.64l.3-.58c.09-.19.19-.38.28-.58l.12-.23a3,3,0,0,0,.12-.32c.07-.17.14-.35.2-.52s.14-.35.2-.53.09-.32.13-.49.09-.32.13-.48.09-.32.13-.48.05-.31.07-.46.05-.3.07-.45.05-.29.07-.45,0-.29,0-.43,0-.28,0-.43,0-.28,0-.42,0-.28,0-.42,0-.07,0-.11,0-.2,0-.3S58.3,46.75,58.29,46.62Zm-8.2,1c0,.14,0,.28,0,.42l0,.43L50,49c0,.15,0,.3-.06.45s-.08.32-.12.47a3.89,3.89,0,0,1-.12.49,4.6,4.6,0,0,1-.19.52c0,.08-.06.18-.1.27l-.13.27c-.1.21-.2.4-.31.59a7.48,7.48,0,0,1-.43.66,7.22,7.22,0,0,1-.73.83c-.1.1-.19.2-.29.29a8,8,0,0,1-2.79,1.53l-.12,0a11.23,11.23,0,0,1-2.1.39c-.27,0-.54,0-.82.06l-.32,0H39.57v-.45h0V55h0V53.73h0V52.5h0v-.41h0V50.86h0v-.42h0V49.21h0V48h0v-.41h0V46.34h0v-.41h0v-.82h0V44.7h0V43.46h0v-.41h0V41.82h0V40.59h0V38.8h1.86c.16,0,.31,0,.46,0l.63,0c.21,0,.43,0,.63,0a4.19,4.19,0,0,1,.51.11c.17,0,.33.08.5.12l.49.13.27.07c.06,0,.11.06.18.08s.26.13.39.19a2.76,2.76,0,0,1,.39.18c.13.06.27.11.4.18l.33.22c.11.07.2.16.31.24l.3.23c.1.08.22.15.31.23l.13.1.14.16.23.28.23.27.24.28c.07.09.15.18.22.28s.1.21.16.31l.17.32.17.31c.05.11.12.21.16.32s0,.08.07.13a1.18,1.18,0,0,1,.07.2l.12.34c0,.12.08.23.11.35l.09.36c0,.12.06.24.08.36l.06.38c0,.13,0,.25.05.38s0,.26,0,.39,0,.27,0,.4,0,.26,0,.4v.07C50.1,47.43,50.09,47.54,50.09,47.66Z"/><polygon class="cls-2" points="74.95 32.1 74.75 32.1 74.55 32.1 74.35 32.1 74.15 32.1 73.95 32.1 73.75 32.1 73.56 32.1 73.36 32.1 73.16 32.1 72.96 32.1 72.76 32.1 72.56 32.1 72.37 32.1 72.17 32.1 72.08 32.1 72.08 32.1 64.17 32.1 64.17 32.1 64.03 32.1 63.83 32.1 63.63 32.1 63.44 32.1 63.24 32.1 63.04 32.1 62.84 32.1 62.64 32.1 62.44 32.1 62.25 32.1 62.05 32.1 61.85 32.1 61.65 32.1 61.45 32.1 61.25 32.1 61.05 32.1 60.9 32.1 60.9 32.18 60.9 32.52 60.9 32.87 60.9 33.21 60.9 33.55 60.9 33.9 60.9 34.24 60.9 34.59 60.9 34.93 60.9 40.01 63.83 40.01 64.03 40.01 64.17 40.01 64.17 40.06 64.17 40.42 64.17 40.79 64.17 41.15 64.17 41.52 64.17 41.88 64.17 42.25 64.17 42.62 64.17 42.98 64.17 43.35 64.17 43.71 64.17 44.08 64.17 44.44 64.17 44.81 64.17 45.17 64.17 45.54 64.17 45.9 64.17 46.27 64.17 46.63 64.17 47 64.17 47.36 64.17 47.73 64.17 48.09 64.17 48.46 64.17 48.82 64.17 49.19 64.17 49.55 64.17 49.92 64.17 50.28 64.17 50.65 64.17 51.02 64.17 51.38 64.17 51.75 64.17 52.11 64.17 52.48 64.17 52.84 64.17 53.21 64.17 53.57 64.17 53.94 64.17 54.3 64.17 54.62 64.03 54.62 63.83 54.62 63.63 54.62 63.44 54.62 63.24 54.62 63.04 54.62 62.84 54.62 62.64 54.62 62.44 54.62 62.25 54.62 62.05 54.62 61.85 54.62 61.65 54.62 61.45 54.62 61.25 54.62 61.05 54.62 60.9 54.62 60.9 54.69 60.9 55.03 60.9 55.38 60.9 55.72 60.9 56.07 60.9 56.41 60.9 56.75 60.9 57.1 60.9 57.44 60.9 62.52 63.83 62.52 64.03 62.52 64.17 62.52 64.23 62.52 64.43 62.52 64.48 62.52 64.63 62.52 64.83 62.52 65.03 62.52 65.12 62.52 65.22 62.52 65.42 62.52 65.62 62.52 65.75 62.52 65.82 62.52 66.02 62.52 66.22 62.52 66.38 62.52 66.41 62.52 66.61 62.52 66.81 62.52 67.01 62.52 67.01 62.52 67.21 62.52 67.41 62.52 67.6 62.52 67.65 62.52 67.8 62.52 68 62.52 68.2 62.52 68.28 62.52 68.4 62.52 68.6 62.52 68.8 62.52 68.91 62.52 68.99 62.52 69.19 62.52 69.39 62.52 69.54 62.52 69.59 62.52 69.79 62.52 69.99 62.52 70.18 62.52 70.18 62.52 70.38 62.52 70.58 62.52 70.78 62.52 70.81 62.52 70.98 62.52 71.18 62.52 71.38 62.52 71.44 62.52 71.57 62.52 71.77 62.52 71.97 62.52 72.08 62.52 72.17 62.52 72.37 62.52 72.56 62.52 72.76 62.52 72.96 62.52 73.16 62.52 73.36 62.52 73.56 62.52 73.76 62.52 73.95 62.52 74.15 62.52 74.35 62.52 74.55 62.52 74.75 62.52 74.95 62.52 75.14 62.52 75.34 62.52 75.34 62.52 75.34 62.18 75.34 61.83 75.34 61.49 75.34 61.15 75.34 60.8 75.34 60.46 75.34 60.11 75.34 59.77 75.34 59.43 75.34 59.08 75.34 58.74 75.34 58.4 75.34 58.05 75.34 57.71 75.34 57.36 75.34 57.02 75.34 56.68 75.34 56.33 75.34 55.99 75.34 55.65 75.34 55.3 75.34 54.96 75.34 54.62 75.14 54.62 74.95 54.62 74.75 54.62 74.55 54.62 74.35 54.62 74.15 54.62 73.95 54.62 73.75 54.62 73.56 54.62 73.36 54.62 73.16 54.62 72.96 54.62 72.76 54.62 72.56 54.62 72.37 54.62 72.17 54.62 72.08 54.62 72.08 54.49 72.08 54.12 72.08 53.76 72.08 53.39 72.08 53.02 72.08 52.66 72.08 52.29 72.08 51.93 72.08 51.56 72.08 51.2 72.08 50.83 72.08 50.47 72.08 50.1 72.08 49.74 72.08 49.37 72.08 49.01 72.08 48.64 72.08 48.28 72.08 47.91 72.08 47.55 72.08 47.18 72.08 46.82 72.08 46.45 72.08 46.09 72.08 45.72 72.08 45.35 72.08 44.99 72.08 44.63 72.08 44.26 72.08 43.89 72.08 43.53 72.08 43.16 72.08 42.8 72.08 42.43 72.08 42.07 72.08 41.7 72.08 41.34 72.08 40.97 72.08 40.61 72.08 40.24 72.08 40.01 72.17 40.01 72.37 40.01 72.56 40.01 72.76 40.01 72.96 40.01 73.16 40.01 73.36 40.01 73.56 40.01 73.76 40.01 73.95 40.01 74.15 40.01 74.35 40.01 74.55 40.01 74.75 40.01 74.95 40.01 75.14 40.01 75.34 40.01 75.34 40.01 75.34 39.66 75.34 39.32 75.34 38.98 75.34 38.63 75.34 38.29 75.34 37.95 75.34 37.6 75.34 37.26 75.34 36.92 75.34 36.57 75.34 36.23 75.34 35.88 75.34 35.54 75.34 35.2 75.34 34.85 75.34 34.51 75.34 34.17 75.34 33.82 75.34 33.48 75.34 33.13 75.34 32.79 75.34 32.45 75.34 32.1 75.14 32.1 74.95 32.1"/><path class="cls-3" d="M104.57,42.56a10.67,10.67,0,0,0-9.52-5.9,10.57,10.57,0,0,0-3.1.47L90,33.83l-2.63-4.57L84.77,24.7l-2.64-4.57-.93-1.62a10.6,10.6,0,0,0,2.35-3.12,10.48,10.48,0,0,0,1.14-4.73h0A10.6,10.6,0,0,0,83.62,6a10.78,10.78,0,0,0-4.12-4.5A10.63,10.63,0,0,0,64.1,6.88a10.08,10.08,0,0,0-.43,1.38H42.11v-8H21.22V21.09h1.63l-1,1.67-2.77,4.81-2.77,4.8-2.6,4.49H0V57.75H13.82L15.4,60.5,18,65.06l2.63,4.57,2.21,3.83H20.81V94.34H41.7V86.23h22A10.64,10.64,0,1,0,81.26,75.88l2.49-4.32,2.78-4.81L89.3,62l2.58-4.47a10.72,10.72,0,0,0,3.17.48,10.58,10.58,0,0,0,4.79-1.15,10.68,10.68,0,0,0,5.86-9.5s0-.08,0-.12A10.47,10.47,0,0,0,104.57,42.56Zm-88.35-.82v4.68h0V51.1h0v2H4.67V41.53H16.22ZM69.63,6.63a6,6,0,0,1,10.39,4,1.49,1.49,0,0,1,0,.21,6,6,0,0,1-2.7,4.8,5.86,5.86,0,0,1-6,.27,6,6,0,0,1-3.13-4.55,5.82,5.82,0,0,1-.08-.73A6,6,0,0,1,69.63,6.63Zm-43.74,6.6V4.87H37.44V16.43H25.89ZM37,78.28v11.4H25.48V78.12H37Zm37,11.4a6,6,0,1,1,6-6A6,6,0,0,1,74,89.68Zm10.4-41.56a10.55,10.55,0,0,0,1.46,4.62,10.74,10.74,0,0,0,1.95,2.4l-1.3,2.25-2.78,4.8L81,67l-2.77,4.8-1,1.73A10.54,10.54,0,0,0,74,73,10.67,10.67,0,0,0,63.6,81.57H41.7V73.46H28.27L25.93,69.4l-2.64-4.57-2.64-4.56L19.2,57.75h1.69V36.87H19.13l2.73-4.74,2.78-4.81,2.77-4.8.83-1.43H42.11V12.92H63.64A10.46,10.46,0,0,0,65,16.2,10.58,10.58,0,0,0,74,21.3a10.32,10.32,0,0,0,3.11-.47l2.37,4.1,2.63,4.56,2.64,4.57,2.64,4.57.47.81a10.76,10.76,0,0,0-2.74,4,10.54,10.54,0,0,0-.76,3.9C84.4,47.59,84.42,47.85,84.44,48.12ZM101,47.4a6,6,0,0,1-11.91.52c0-.21-.06-.4-.06-.61a6,6,0,0,1,12,0S101,47.37,101,47.4Z"/><path class="cls-4" d="M138.54,49.35H120.2a5.56,5.56,0,0,0,1.37,4.07,5.47,5.47,0,0,0,4.09,1.39,5.53,5.53,0,0,0,2.42-.5,4.2,4.2,0,0,0,1.75-1.75h8.38a10.1,10.1,0,0,1-1.75,3.76A10.31,10.31,0,0,1,133.54,59a13.4,13.4,0,0,1-3.71,1.54,17.21,17.21,0,0,1-4.12.5,18.13,18.13,0,0,1-5.68-.86,12.85,12.85,0,0,1-4.5-2.52,11.52,11.52,0,0,1-3-4.09,13.75,13.75,0,0,1-1.08-5.6,14.35,14.35,0,0,1,1-5.51,11.67,11.67,0,0,1,2.8-4.12,12.53,12.53,0,0,1,4.29-2.59,16.08,16.08,0,0,1,5.51-.9,15.85,15.85,0,0,1,5.7,1,11.37,11.37,0,0,1,6.84,7,16.49,16.49,0,0,1,.91,5.67Zm-8.09-5a4.41,4.41,0,0,0-1.75-2.82,5.19,5.19,0,0,0-3.18-1,5.78,5.78,0,0,0-3.36,1,4.42,4.42,0,0,0-1.82,2.89Z"/><path class="cls-5" d="M151.23,38.77h.1a8.59,8.59,0,0,1,3.4-3.11,10.49,10.49,0,0,1,4.45-.86,10.73,10.73,0,0,1,4.24.74,7.23,7.23,0,0,1,2.85,2.08,8.56,8.56,0,0,1,1.63,3.23,15.5,15.5,0,0,1,.53,4.15V60.18h-8.72V46.24a6.78,6.78,0,0,0-.33-2.15,3.65,3.65,0,0,0-1.15-1.68,3.79,3.79,0,0,0-2.45-.67,4.76,4.76,0,0,0-2.2.45,3.73,3.73,0,0,0-1.39,1.25,5.09,5.09,0,0,0-.74,1.82,10.2,10.2,0,0,0-.22,2.18V60.18h-8.71V35.61h8.71Z"/><path class="cls-6" d="M201.14,57.78a20.65,20.65,0,0,1-1,6.71A11.55,11.55,0,0,1,197.4,69,11,11,0,0,1,193,71.62a20.57,20.57,0,0,1-6,.82,19.36,19.36,0,0,1-4.45-.56,16.06,16.06,0,0,1-4.36-1.69,12.47,12.47,0,0,1-3.45-2.92,8,8,0,0,1-1.72-4.22h9.77a2.6,2.6,0,0,0,.62,1.13,3.56,3.56,0,0,0,1,.74,5.49,5.49,0,0,0,2.49.57,6.19,6.19,0,0,0,2.84-.55,4.39,4.39,0,0,0,1.7-1.48,5.52,5.52,0,0,0,.84-2.23,16.24,16.24,0,0,0,.22-2.78V57.3a12.11,12.11,0,0,1-3.52,2.52,10.26,10.26,0,0,1-4.29.84,12.46,12.46,0,0,1-4.91-1A11.51,11.51,0,0,1,175.87,57a12.08,12.08,0,0,1-2.49-4,13.52,13.52,0,0,1-.88-5,14.27,14.27,0,0,1,.91-5.1A13,13,0,0,1,176,38.77a12.42,12.42,0,0,1,4-2.9,12.08,12.08,0,0,1,5.15-1.07,10.51,10.51,0,0,1,4,.78,7.34,7.34,0,0,1,3.18,2.62h.1V35.61h8.72Zm-14-15.61a5.73,5.73,0,0,0-2.37.46A5.43,5.43,0,0,0,183,43.82a5.22,5.22,0,0,0-1.11,1.75,6.12,6.12,0,0,0-.38,2.15A5.57,5.57,0,0,0,183,51.65a6.23,6.23,0,0,0,8.29,0,5.57,5.57,0,0,0,1.46-3.93,5.9,5.9,0,0,0-.39-2.15,5,5,0,0,0-1.1-1.75,5.47,5.47,0,0,0-1.75-1.19A5.66,5.66,0,0,0,187.1,42.17Z"/><path class="cls-7" d="M211,21.29a4.88,4.88,0,0,1,1.9.38,5.15,5.15,0,0,1,1.55,1.06,4.73,4.73,0,0,1,1,1.55,4.63,4.63,0,0,1,.39,1.89,4.57,4.57,0,0,1-.39,1.89,4.87,4.87,0,0,1-1,1.56,5.15,5.15,0,0,1-1.55,1.06,4.88,4.88,0,0,1-1.9.38,4.8,4.8,0,0,1-1.89-.38,5.07,5.07,0,0,1-1.56-1.06,5.22,5.22,0,0,1-1.05-1.56,4.73,4.73,0,0,1-.38-1.89,4.8,4.8,0,0,1,.38-1.89,5,5,0,0,1,2.61-2.61A4.8,4.8,0,0,1,211,21.29Zm4.36,38.89h-8.72V35.61h8.72Z"/><path class="cls-8" d="M229.77,38.77h.1a8.59,8.59,0,0,1,3.4-3.11,10.45,10.45,0,0,1,4.45-.86,10.73,10.73,0,0,1,4.24.74,7.23,7.23,0,0,1,2.85,2.08,8.56,8.56,0,0,1,1.63,3.23A15.5,15.5,0,0,1,247,45V60.18h-8.72V46.24a6.78,6.78,0,0,0-.33-2.15,3.65,3.65,0,0,0-1.15-1.68,3.79,3.79,0,0,0-2.45-.67,4.76,4.76,0,0,0-2.2.45,3.73,3.73,0,0,0-1.39,1.25,5.09,5.09,0,0,0-.74,1.82,10.2,10.2,0,0,0-.22,2.18V60.18h-8.71V35.61h8.71Z"/><path class="cls-9" d="M278,49.35H259.61A5.56,5.56,0,0,0,261,53.42a5.5,5.5,0,0,0,4.1,1.39,5.56,5.56,0,0,0,2.42-.5,4.13,4.13,0,0,0,1.74-1.75h8.39a10.26,10.26,0,0,1-1.75,3.76A10.45,10.45,0,0,1,273,59a13.46,13.46,0,0,1-3.72,1.54,17.13,17.13,0,0,1-4.11.5,18.13,18.13,0,0,1-5.68-.86,12.85,12.85,0,0,1-4.5-2.52,11.52,11.52,0,0,1-3-4.09,13.75,13.75,0,0,1-1.08-5.6,14.35,14.35,0,0,1,1-5.51,11.54,11.54,0,0,1,2.8-4.12A12.44,12.44,0,0,1,259,35.7a16.07,16.07,0,0,1,5.5-.9,15.77,15.77,0,0,1,5.7,1,11.66,11.66,0,0,1,4.22,2.73A11.83,11.83,0,0,1,277,42.77a16.49,16.49,0,0,1,.91,5.67Zm-8.09-5a4.45,4.45,0,0,0-1.75-2.82,5.19,5.19,0,0,0-3.18-1,5.78,5.78,0,0,0-3.36,1,4.38,4.38,0,0,0-1.82,2.89Z"/></g></g></svg>