<?xml version="1.0" encoding="UTF-8" standalone="no"?><svg xmlns="http://www.w3.org/2000/svg" xmlns:xlink="http://www.w3.org/1999/xlink" contentStyleType="text/css" height="705px" preserveAspectRatio="none" style="width:654px;height:705px;background:#FFFFFF;" version="1.1" viewBox="0 0 654 705" width="654px" zoomAndPan="magnify"><defs/><g><rect fill="#F1F1F1" height="33.9688" rx="12.5" ry="12.5" style="stroke:#181818;stroke-width:0.5;" width="139" x="231.5" y="11"/><text fill="#000000" font-family="sans-serif" font-size="12" lengthAdjust="spacing" textLength="119" x="241.5" y="32.1387">Get the input dict D.</text><rect fill="#F1F1F1" height="33.9688" rx="12.5" ry="12.5" style="stroke:#181818;stroke-width:0.5;" width="162" x="220" y="64.9688"/><text fill="#000000" font-family="sans-serif" font-size="12" lengthAdjust="spacing" textLength="142" x="230" y="86.1074">Get value a from dict D.</text><rect fill="#F1F1F1" height="33.9688" rx="12.5" ry="12.5" style="stroke:#181818;stroke-width:0.5;" width="115" x="243.5" y="118.9375"/><text fill="#000000" font-family="sans-serif" font-size="12" lengthAdjust="spacing" textLength="95" x="253.5" y="140.0762">Set a1 as a + 1.</text><polygon fill="#F1F1F1" points="212.5,172.9063,389.5,172.9063,401.5,184.9063,389.5,196.9063,212.5,196.9063,200.5,184.9063,212.5,172.9063" style="stroke:#181818;stroke-width:0.5;"/><text fill="#000000" font-family="sans-serif" font-size="11" lengthAdjust="spacing" textLength="177" x="212.5" y="188.7144">Value a1's type is from 0 to 10</text><text fill="#000000" font-family="sans-serif" font-size="11" lengthAdjust="spacing" textLength="24" x="176.5" y="182.312">Yes.</text><text fill="#000000" font-family="sans-serif" font-size="11" lengthAdjust="spacing" textLength="18" x="401.5" y="182.312">No.</text><rect fill="#F1F1F1" height="47.9375" rx="12.5" ry="12.5" style="stroke:#181818;stroke-width:0.5;" width="175" x="103" y="206.9063"/><text fill="#000000" font-family="sans-serif" font-size="12" lengthAdjust="spacing" textLength="151" x="113" y="228.0449">Item calculation success,</text><text fill="#000000" font-family="sans-serif" font-size="12" font-weight="bold" lengthAdjust="spacing" textLength="150" x="113" y="242.0137">record this result a1</text><text fill="#000000" font-family="sans-serif" font-size="12" lengthAdjust="spacing" textLength="3" x="263" y="242.0137">.</text><rect fill="#F1F1F1" height="47.9375" rx="12.5" ry="12.5" style="stroke:#181818;stroke-width:0.5;" width="194" x="314.5" y="206.9063"/><text fill="#000000" font-family="sans-serif" font-size="12" lengthAdjust="spacing" textLength="170" x="324.5" y="228.0449">The value a1 is not in range,</text><text fill="#000000" font-family="sans-serif" font-size="12" font-weight="bold" lengthAdjust="spacing" textLength="163" x="324.5" y="242.0137">record this ValueError</text><text fill="#000000" font-family="sans-serif" font-size="12" lengthAdjust="spacing" textLength="3" x="487.5" y="242.0137">.</text><polygon fill="#F1F1F1" points="301,260.8438,313,272.8438,301,284.8438,289,272.8438,301,260.8438" style="stroke:#181818;stroke-width:0.5;"/><rect fill="#F1F1F1" height="33.9688" rx="12.5" ry="12.5" style="stroke:#181818;stroke-width:0.5;" width="163" x="219.5" y="304.8438"/><text fill="#000000" font-family="sans-serif" font-size="12" lengthAdjust="spacing" textLength="143" x="229.5" y="325.9824">Get value b from dict D.</text><rect fill="#F1F1F1" height="33.9688" rx="12.5" ry="12.5" style="stroke:#181818;stroke-width:0.5;" width="115" x="243.5" y="358.8125"/><text fill="#000000" font-family="sans-serif" font-size="12" lengthAdjust="spacing" textLength="95" x="253.5" y="379.9512">Set b1 as b * 2.</text><polygon fill="#F1F1F1" points="212.5,412.7813,389.5,412.7813,401.5,424.7813,389.5,436.7813,212.5,436.7813,200.5,424.7813,212.5,412.7813" style="stroke:#181818;stroke-width:0.5;"/><text fill="#000000" font-family="sans-serif" font-size="11" lengthAdjust="spacing" textLength="177" x="212.5" y="428.5894">Value b1's type is from 0 to 10</text><text fill="#000000" font-family="sans-serif" font-size="11" lengthAdjust="spacing" textLength="24" x="176.5" y="422.187">Yes.</text><text fill="#000000" font-family="sans-serif" font-size="11" lengthAdjust="spacing" textLength="18" x="401.5" y="422.187">No.</text><rect fill="#F1F1F1" height="47.9375" rx="12.5" ry="12.5" style="stroke:#181818;stroke-width:0.5;" width="175" x="103" y="446.7813"/><text fill="#000000" font-family="sans-serif" font-size="12" lengthAdjust="spacing" textLength="151" x="113" y="467.9199">Item calculation success,</text><text fill="#000000" font-family="sans-serif" font-size="12" font-weight="bold" lengthAdjust="spacing" textLength="150" x="113" y="481.8887">record this result b1</text><text fill="#000000" font-family="sans-serif" font-size="12" lengthAdjust="spacing" textLength="3" x="263" y="481.8887">.</text><rect fill="#F1F1F1" height="47.9375" rx="12.5" ry="12.5" style="stroke:#181818;stroke-width:0.5;" width="195" x="314" y="446.7813"/><text fill="#000000" font-family="sans-serif" font-size="12" lengthAdjust="spacing" textLength="171" x="324" y="467.9199">The value b1 is not in range,</text><text fill="#000000" font-family="sans-serif" font-size="12" font-weight="bold" lengthAdjust="spacing" textLength="163" x="324" y="481.8887">record this ValueError</text><text fill="#000000" font-family="sans-serif" font-size="12" lengthAdjust="spacing" textLength="3" x="487" y="481.8887">.</text><polygon fill="#F1F1F1" points="301,500.7188,313,512.7188,301,524.7188,289,512.7188,301,500.7188" style="stroke:#181818;stroke-width:0.5;"/><polygon fill="#F1F1F1" points="247.5,544.7188,354.5,544.7188,366.5,556.7188,354.5,568.7188,247.5,568.7188,235.5,556.7188,247.5,544.7188" style="stroke:#181818;stroke-width:0.5;"/><text fill="#000000" font-family="sans-serif" font-size="11" lengthAdjust="spacing" textLength="107" x="247.5" y="560.5269">No error recorded?</text><text fill="#000000" font-family="sans-serif" font-size="11" lengthAdjust="spacing" textLength="24" x="211.5" y="554.1245">Yes.</text><text fill="#000000" font-family="sans-serif" font-size="11" lengthAdjust="spacing" textLength="18" x="366.5" y="554.1245">No.</text><rect fill="#F1F1F1" height="33.9688" rx="12.5" ry="12.5" style="stroke:#181818;stroke-width:0.5;" width="254" x="11" y="578.7188"/><text fill="#000000" font-family="sans-serif" font-size="12" font-weight="bold" lengthAdjust="spacing" textLength="234" x="21" y="599.8574">Return recorded results as dict.</text><rect fill="#F1F1F1" height="33.9688" rx="12.5" ry="12.5" style="stroke:#181818;stroke-width:0.5;" width="358" x="285" y="578.7188"/><text fill="#000000" font-family="sans-serif" font-size="12" font-weight="bold" lengthAdjust="spacing" textLength="338" x="295" y="599.8574">Raise DictError, including the recorded errors.</text><ellipse cx="464" cy="642.6875" rx="10" ry="10" style="stroke:#222222;stroke-width:1.5;fill:none;"/><line style="stroke:#222222;stroke-width:2.5;fill:none;" x1="457.8128" x2="470.1872" y1="636.5003" y2="648.8747"/><line style="stroke:#222222;stroke-width:2.5;fill:none;" x1="470.1872" x2="457.8128" y1="636.5003" y2="648.8747"/><ellipse cx="301" cy="683.6875" rx="11" ry="11" style="stroke:#222222;stroke-width:1.0;fill:none;"/><ellipse cx="301" cy="683.6875" fill="#222222" rx="6" ry="6" style="stroke:#111111;stroke-width:1.0;"/><line style="stroke:#181818;stroke-width:1.0;" x1="301" x2="301" y1="44.9688" y2="64.9688"/><polygon fill="#181818" points="297,54.9688,301,64.9688,305,54.9688,301,58.9688" style="stroke:#181818;stroke-width:1.0;"/><line style="stroke:#181818;stroke-width:1.0;" x1="301" x2="301" y1="98.9375" y2="118.9375"/><polygon fill="#181818" points="297,108.9375,301,118.9375,305,108.9375,301,112.9375" style="stroke:#181818;stroke-width:1.0;"/><line style="stroke:#181818;stroke-width:1.0;" x1="200.5" x2="190.5" y1="184.9063" y2="184.9063"/><line style="stroke:#181818;stroke-width:1.0;" x1="190.5" x2="190.5" y1="184.9063" y2="206.9063"/><polygon fill="#181818" points="186.5,196.9063,190.5,206.9063,194.5,196.9063,190.5,200.9063" style="stroke:#181818;stroke-width:1.0;"/><line style="stroke:#181818;stroke-width:1.0;" x1="401.5" x2="411.5" y1="184.9063" y2="184.9063"/><line style="stroke:#181818;stroke-width:1.0;" x1="411.5" x2="411.5" y1="184.9063" y2="206.9063"/><polygon fill="#181818" points="407.5,196.9063,411.5,206.9063,415.5,196.9063,411.5,200.9063" style="stroke:#181818;stroke-width:1.0;"/><line style="stroke:#181818;stroke-width:1.0;" x1="190.5" x2="190.5" y1="254.8438" y2="272.8438"/><line style="stroke:#181818;stroke-width:1.0;" x1="190.5" x2="289" y1="272.8438" y2="272.8438"/><polygon fill="#181818" points="279,268.8438,289,272.8438,279,276.8438,283,272.8438" style="stroke:#181818;stroke-width:1.0;"/><line style="stroke:#181818;stroke-width:1.0;" x1="411.5" x2="411.5" y1="254.8438" y2="272.8438"/><line style="stroke:#181818;stroke-width:1.0;" x1="411.5" x2="313" y1="272.8438" y2="272.8438"/><polygon fill="#181818" points="323,268.8438,313,272.8438,323,276.8438,319,272.8438" style="stroke:#181818;stroke-width:1.0;"/><line style="stroke:#181818;stroke-width:1.0;" x1="301" x2="301" y1="152.9063" y2="172.9063"/><polygon fill="#181818" points="297,162.9063,301,172.9063,305,162.9063,301,166.9063" style="stroke:#181818;stroke-width:1.0;"/><line style="stroke:#181818;stroke-width:1.0;" x1="301" x2="301" y1="284.8438" y2="304.8438"/><polygon fill="#181818" points="297,294.8438,301,304.8438,305,294.8438,301,298.8438" style="stroke:#181818;stroke-width:1.0;"/><line style="stroke:#181818;stroke-width:1.0;" x1="301" x2="301" y1="338.8125" y2="358.8125"/><polygon fill="#181818" points="297,348.8125,301,358.8125,305,348.8125,301,352.8125" style="stroke:#181818;stroke-width:1.0;"/><line style="stroke:#181818;stroke-width:1.0;" x1="200.5" x2="190.5" y1="424.7813" y2="424.7813"/><line style="stroke:#181818;stroke-width:1.0;" x1="190.5" x2="190.5" y1="424.7813" y2="446.7813"/><polygon fill="#181818" points="186.5,436.7813,190.5,446.7813,194.5,436.7813,190.5,440.7813" style="stroke:#181818;stroke-width:1.0;"/><line style="stroke:#181818;stroke-width:1.0;" x1="401.5" x2="411.5" y1="424.7813" y2="424.7813"/><line style="stroke:#181818;stroke-width:1.0;" x1="411.5" x2="411.5" y1="424.7813" y2="446.7813"/><polygon fill="#181818" points="407.5,436.7813,411.5,446.7813,415.5,436.7813,411.5,440.7813" style="stroke:#181818;stroke-width:1.0;"/><line style="stroke:#181818;stroke-width:1.0;" x1="190.5" x2="190.5" y1="494.7188" y2="512.7188"/><line style="stroke:#181818;stroke-width:1.0;" x1="190.5" x2="289" y1="512.7188" y2="512.7188"/><polygon fill="#181818" points="279,508.7188,289,512.7188,279,516.7188,283,512.7188" style="stroke:#181818;stroke-width:1.0;"/><line style="stroke:#181818;stroke-width:1.0;" x1="411.5" x2="411.5" y1="494.7188" y2="512.7188"/><line style="stroke:#181818;stroke-width:1.0;" x1="411.5" x2="313" y1="512.7188" y2="512.7188"/><polygon fill="#181818" points="323,508.7188,313,512.7188,323,516.7188,319,512.7188" style="stroke:#181818;stroke-width:1.0;"/><line style="stroke:#181818;stroke-width:1.0;" x1="301" x2="301" y1="392.7813" y2="412.7813"/><polygon fill="#181818" points="297,402.7813,301,412.7813,305,402.7813,301,406.7813" style="stroke:#181818;stroke-width:1.0;"/><line style="stroke:#181818;stroke-width:1.0;" x1="464" x2="464" y1="612.6875" y2="632.6875"/><polygon fill="#181818" points="460,622.6875,464,632.6875,468,622.6875,464,626.6875" style="stroke:#181818;stroke-width:1.0;"/><line style="stroke:#181818;stroke-width:1.0;" x1="235.5" x2="138" y1="556.7188" y2="556.7188"/><line style="stroke:#181818;stroke-width:1.0;" x1="138" x2="138" y1="556.7188" y2="578.7188"/><polygon fill="#181818" points="134,568.7188,138,578.7188,142,568.7188,138,572.7188" style="stroke:#181818;stroke-width:1.0;"/><line style="stroke:#181818;stroke-width:1.0;" x1="366.5" x2="464" y1="556.7188" y2="556.7188"/><line style="stroke:#181818;stroke-width:1.0;" x1="464" x2="464" y1="556.7188" y2="578.7188"/><polygon fill="#181818" points="460,568.7188,464,578.7188,468,568.7188,464,572.7188" style="stroke:#181818;stroke-width:1.0;"/><line style="stroke:#181818;stroke-width:1.0;" x1="138" x2="138" y1="612.6875" y2="657.6875"/><line style="stroke:#181818;stroke-width:1.0;" x1="138" x2="301" y1="657.6875" y2="657.6875"/><line style="stroke:#181818;stroke-width:1.0;" x1="301" x2="301" y1="657.6875" y2="672.6875"/><polygon fill="#181818" points="297,662.6875,301,672.6875,305,662.6875,301,666.6875" style="stroke:#181818;stroke-width:1.0;"/><line style="stroke:#181818;stroke-width:1.0;" x1="301" x2="301" y1="524.7188" y2="544.7188"/><polygon fill="#181818" points="297,534.7188,301,544.7188,305,534.7188,301,538.7188" style="stroke:#181818;stroke-width:1.0;"/><!--MD5=[8f3226677641a38bfe4e3cd7d293959b]
@startuml
:Get the input dict D.;

:Get value a from dict D.;
:Set a1 as a + 1.;
if (Value a1's type is from 0 to 10) then (Yes.)
    :Item calculation success, \n**record this result a1**.;
else (No.)
    :The value a1 is not in range, \n**record this ValueError**.;
endif

:Get value b from dict D.;
:Set b1 as b * 2.;
if (Value b1's type is from 0 to 10) then (Yes.)
    :Item calculation success, \n**record this result b1**.;
else (No.)
    :The value b1 is not in range, \n**record this ValueError**.;
endif

if (No error recorded?) then (Yes.)
    :**Return recorded results as dict.**;
else (No.)
    :**Raise DictError, including the recorded errors.**;
    end
endif

stop
@enduml

PlantUML version 1.2022.3beta2(Unknown compile time)
(GPL source distribution)
Java Runtime: Java(TM) SE Runtime Environment
JVM: Java HotSpot(TM) 64-Bit Server VM
Default Encoding: UTF-8
Language: en
Country: US
--></g></svg>