<?xml version="1.0" encoding="UTF-8" standalone="no"?><!DOCTYPE svg PUBLIC "-//W3C//DTD SVG 1.1//EN" "http://www.w3.org/Graphics/SVG/1.1/DTD/svg11.dtd"><!-- Generated by graphviz version 2.40.1 (20161225.0304)
 --><!-- Title: G Pages: 1 --><svg xmlns="http://www.w3.org/2000/svg" xmlns:xlink="http://www.w3.org/1999/xlink" width="162pt" height="418pt" viewBox="0.00 0.00 162.00 418.40">
<g id="graph0" class="graph" transform="scale(1 1) rotate(0) translate(4 414.4)">
<title>G</title>
<polygon fill="#ffffff" stroke="transparent" points="-4,4 -4,-414.4 158,-414.4 158,4 -4,4"/>
<!-- start -->
<g id="node1" class="node">
<title>start</title>
<ellipse fill="none" stroke="#000000" cx="105" cy="-392.4" rx="27.8228" ry="18"/>
<text text-anchor="middle" x="105" y="-388.2" font-family="Times,serif" font-size="14.00" fill="#000000">start</text>
</g>
<!-- a -->
<g id="node2" class="node">
<title>a</title>
<ellipse fill="none" stroke="#000000" cx="66" cy="-303.6" rx="27" ry="18"/>
<text text-anchor="middle" x="66" y="-299.4" font-family="Times,serif" font-size="14.00" fill="#000000">a</text>
</g>
<!-- start&#45;&gt;a -->
<g id="edge1" class="edge">
<title>start-&gt;a</title>
<path fill="none" stroke="#000000" d="M97.2949,-374.856C91.7396,-362.2071 84.1386,-344.9002 77.8188,-330.5105"/>
<polygon fill="#000000" stroke="#000000" points="80.9149,-328.856 73.6891,-321.1076 74.5058,-331.6709 80.9149,-328.856"/>
<text text-anchor="middle" x="92.5" y="-343.8" font-family="Times,serif" font-size="14.00" fill="#000000">3</text>
</g>
<!-- d -->
<g id="node3" class="node">
<title>d</title>
<ellipse fill="none" stroke="#000000" cx="127" cy="-249.6" rx="27" ry="18"/>
<text text-anchor="middle" x="127" y="-245.4" font-family="Times,serif" font-size="14.00" fill="#000000">d</text>
</g>
<!-- start&#45;&gt;d -->
<g id="edge2" class="edge">
<title>start-&gt;d</title>
<path fill="none" stroke="#000000" d="M107.7863,-374.3143C111.5387,-349.9577 118.2539,-306.3703 122.6681,-277.7178"/>
<polygon fill="#000000" stroke="#000000" points="126.1728,-277.9552 124.2363,-267.5389 119.2544,-276.8893 126.1728,-277.9552"/>
<text text-anchor="middle" x="115.5" y="-343.8" font-family="Times,serif" font-size="14.00" fill="#000000">2</text>
</g>
<!-- b -->
<g id="node4" class="node">
<title>b</title>
<ellipse fill="none" stroke="#000000" cx="66" cy="-195.6" rx="27" ry="18"/>
<text text-anchor="middle" x="66" y="-191.4" font-family="Times,serif" font-size="14.00" fill="#000000">b</text>
</g>
<!-- a&#45;&gt;b -->
<g id="edge3" class="edge">
<title>a-&gt;b</title>
<path fill="none" stroke="#000000" d="M66,-285.2793C66,-268.421 66,-243.1651 66,-223.747"/>
<polygon fill="#000000" stroke="#000000" points="69.5001,-223.6501 66,-213.6502 62.5001,-223.6502 69.5001,-223.6501"/>
<text text-anchor="middle" x="69.5" y="-245.4" font-family="Times,serif" font-size="14.00" fill="#000000">1</text>
</g>
<!-- end -->
<g id="node6" class="node">
<title>end</title>
<ellipse fill="none" stroke="#000000" cx="27" cy="-18" rx="27" ry="18"/>
<text text-anchor="middle" x="27" y="-13.8" font-family="Times,serif" font-size="14.00" fill="#000000">end</text>
</g>
<!-- a&#45;&gt;end -->
<g id="edge6" class="edge">
<title>a-&gt;end</title>
<path fill="none" stroke="#000000" d="M57.0077,-286.5917C48.1929,-268.9134 35.3276,-240.1652 30,-213.6 18.2693,-155.1064 21.2247,-84.7913 24.2349,-46.4186"/>
<polygon fill="#000000" stroke="#000000" points="27.7582,-46.2904 25.1139,-36.0309 20.7831,-45.7001 27.7582,-46.2904"/>
<text text-anchor="middle" x="26.5" y="-147" font-family="Times,serif" font-size="14.00" fill="#000000">5</text>
</g>
<!-- c -->
<g id="node5" class="node">
<title>c</title>
<ellipse fill="none" stroke="#000000" cx="66" cy="-106.8" rx="27" ry="18"/>
<text text-anchor="middle" x="66" y="-102.6" font-family="Times,serif" font-size="14.00" fill="#000000">c</text>
</g>
<!-- d&#45;&gt;c -->
<g id="edge5" class="edge">
<title>d-&gt;c</title>
<path fill="none" stroke="#000000" d="M121.5943,-231.8879C116.922,-217.1561 109.7195,-195.7417 102,-177.6 95.5701,-162.4888 87.3315,-146.1148 80.3587,-132.9233"/>
<polygon fill="#000000" stroke="#000000" points="83.3561,-131.1064 75.5491,-123.9439 77.1855,-134.4116 83.3561,-131.1064"/>
<text text-anchor="middle" x="118.5" y="-191.4" font-family="Times,serif" font-size="14.00" fill="#000000">3</text>
</g>
<!-- b&#45;&gt;c -->
<g id="edge4" class="edge">
<title>b-&gt;c</title>
<path fill="none" stroke="#000000" d="M66,-177.2006C66,-165.0949 66,-149.0076 66,-135.2674"/>
<polygon fill="#000000" stroke="#000000" points="69.5001,-134.872 66,-124.872 62.5001,-134.8721 69.5001,-134.872"/>
<text text-anchor="middle" x="69.5" y="-147" font-family="Times,serif" font-size="14.00" fill="#000000">2</text>
</g>
<!-- c&#45;&gt;end -->
<g id="edge7" class="edge">
<title>c-&gt;end</title>
<path fill="none" stroke="#000000" d="M58.2949,-89.256C52.7396,-76.6071 45.1386,-59.3002 38.8188,-44.9105"/>
<polygon fill="#000000" stroke="#000000" points="41.9149,-43.256 34.6891,-35.5076 35.5058,-46.0709 41.9149,-43.256"/>
<text text-anchor="middle" x="53.5" y="-58.2" font-family="Times,serif" font-size="14.00" fill="#000000">3</text>
</g>
</g>
</svg>