<?xml version="1.0" encoding="UTF-8" standalone="no"?><svg xmlns="http://www.w3.org/2000/svg" xmlns:xlink="http://www.w3.org/1999/xlink" contentStyleType="text/css" height="362px" preserveAspectRatio="none" style="width:318px;height:362px;background:#FFFFFF;" version="1.1" viewBox="0 0 318 362" width="318px" zoomAndPan="magnify"><defs/><g><ellipse cx="146.5" cy="20" fill="#222222" rx="10" ry="10" style="stroke:#222222;stroke-width:1.0;"/><rect fill="#F1F1F1" height="33.9688" rx="12.5" ry="12.5" style="stroke:#181818;stroke-width:0.5;" width="147" x="73" y="50"/><text fill="#000000" font-family="sans-serif" font-size="12" lengthAdjust="spacing" textLength="127" x="83" y="71.1387">Get the input value x.</text><rect fill="#F1F1F1" height="33.9688" rx="12.5" ry="12.5" style="stroke:#181818;stroke-width:0.5;" width="271" x="11" y="152.3711"/><text fill="#000000" font-family="sans-serif" font-size="12" lengthAdjust="spacing" textLength="129" x="21" y="173.5098">The value x is invalid,</text><text fill="#000000" font-family="sans-serif" font-size="12" font-weight="bold" lengthAdjust="spacing" textLength="115" x="154" y="173.5098">raise TypeError</text><text fill="#000000" font-family="sans-serif" font-size="12" lengthAdjust="spacing" textLength="3" x="269" y="173.5098">.</text><ellipse cx="146.5" cy="223.8555" rx="10" ry="10" style="stroke:#222222;stroke-width:1.5;fill:none;"/><line style="stroke:#222222;stroke-width:2.5;fill:none;" x1="140.3128" x2="152.6872" y1="217.6683" y2="230.0427"/><line style="stroke:#222222;stroke-width:2.5;fill:none;" x1="152.6872" x2="140.3128" y1="217.6683" y2="230.0427"/><polygon fill="#F1F1F1" points="86.5,103.9688,206.5,103.9688,218.5,115.9688,206.5,127.9688,86.5,127.9688,74.5,115.9688,86.5,103.9688" style="stroke:#181818;stroke-width:0.5;"/><text fill="#000000" font-family="sans-serif" font-size="11" lengthAdjust="spacing" textLength="18" x="150.5" y="138.1792">No.</text><text fill="#000000" font-family="sans-serif" font-size="11" lengthAdjust="spacing" textLength="120" x="86.5" y="119.7769">Value x's type is int?</text><text fill="#000000" font-family="sans-serif" font-size="11" lengthAdjust="spacing" textLength="24" x="218.5" y="113.3745">Yes.</text><rect fill="#F1F1F1" height="33.9688" rx="12.5" ry="12.5" style="stroke:#181818;stroke-width:0.5;" width="197" x="48" y="275.8555"/><text fill="#000000" font-family="sans-serif" font-size="12" font-weight="bold" lengthAdjust="spacing" textLength="174" x="58" y="296.9941">Return value x as result</text><text fill="#000000" font-family="sans-serif" font-size="12" lengthAdjust="spacing" textLength="3" x="232" y="296.9941">.</text><ellipse cx="146.5" cy="340.8242" rx="11" ry="11" style="stroke:#222222;stroke-width:1.0;fill:none;"/><ellipse cx="146.5" cy="340.8242" fill="#222222" rx="6" ry="6" style="stroke:#111111;stroke-width:1.0;"/><line style="stroke:#181818;stroke-width:1.0;" x1="146.5" x2="146.5" y1="30" y2="50"/><polygon fill="#181818" points="142.5,40,146.5,50,150.5,40,146.5,44" style="stroke:#181818;stroke-width:1.0;"/><line style="stroke:#181818;stroke-width:1.0;" x1="146.5" x2="146.5" y1="186.3398" y2="213.8555"/><polygon fill="#181818" points="142.5,203.8555,146.5,213.8555,150.5,203.8555,146.5,207.8555" style="stroke:#181818;stroke-width:1.0;"/><line style="stroke:#181818;stroke-width:1.0;" x1="146.5" x2="146.5" y1="127.9688" y2="152.3711"/><polygon fill="#181818" points="142.5,142.3711,146.5,152.3711,150.5,142.3711,146.5,146.3711" style="stroke:#181818;stroke-width:1.0;"/><line style="stroke:#181818;stroke-width:1.0;" x1="218.5" x2="292" y1="115.9688" y2="115.9688"/><polygon fill="#181818" points="288,183.8555,292,193.8555,296,183.8555,292,187.8555" style="stroke:#181818;stroke-width:1.0;"/><line style="stroke:#181818;stroke-width:1.0;" x1="292" x2="292" y1="115.9688" y2="255.8555"/><line style="stroke:#181818;stroke-width:1.0;" x1="292" x2="146.5" y1="255.8555" y2="255.8555"/><line style="stroke:#181818;stroke-width:1.0;" x1="146.5" x2="146.5" y1="255.8555" y2="275.8555"/><polygon fill="#181818" points="142.5,265.8555,146.5,275.8555,150.5,265.8555,146.5,269.8555" style="stroke:#181818;stroke-width:1.0;"/><line style="stroke:#181818;stroke-width:1.0;" x1="146.5" x2="146.5" y1="83.9688" y2="103.9688"/><polygon fill="#181818" points="142.5,93.9688,146.5,103.9688,150.5,93.9688,146.5,97.9688" style="stroke:#181818;stroke-width:1.0;"/><line style="stroke:#181818;stroke-width:1.0;" x1="146.5" x2="146.5" y1="309.8242" y2="329.8242"/><polygon fill="#181818" points="142.5,319.8242,146.5,329.8242,150.5,319.8242,146.5,323.8242" style="stroke:#181818;stroke-width:1.0;"/><!--MD5=[cf370eccf3a4c2de6d82ea1208a319b6]
@startuml
start

:Get the input value x.;

if (Value x's type is int?) then (Yes.)
else (No.)
    :The value x is invalid, **raise TypeError**.;
    end
endif

:**Return value x as result**.;

stop
@enduml

PlantUML version 1.2022.4beta2(Unknown compile time)
(GPL source distribution)
Java Runtime: Java(TM) SE Runtime Environment
JVM: Java HotSpot(TM) 64-Bit Server VM
Default Encoding: UTF-8
Language: en
Country: US
--></g></svg>