<?xml version="1.0" encoding="UTF-8" standalone="no"?><svg xmlns="http://www.w3.org/2000/svg" xmlns:xlink="http://www.w3.org/1999/xlink" contentStyleType="text/css" height="362px" preserveAspectRatio="none" style="width:318px;height:362px;" version="1.1" viewBox="0 0 318 362" width="318px" zoomAndPan="magnify"><defs><style type="text/css"><![CDATA[*.f_222222_dddddd {fill:#222222;}*.s_222222_dddddd {stroke:#222222;}*.f_f1f1f1_070707 {fill:#f1f1f1;}*.s_181818_e7e7e7 {stroke:#181818;}*.f_000000_ffffff {fill:#000000;}*.f_181818_e7e7e7 {fill:#181818;}@media (prefers-color-scheme:dark) {*.f_222222_dddddd {fill:#dddddd;}*.s_222222_dddddd {stroke:#dddddd;}*.f_f1f1f1_070707 {fill:#070707;}*.s_181818_e7e7e7 {stroke:#e7e7e7;}*.f_000000_ffffff {fill:#ffffff;}*.f_181818_e7e7e7 {fill:#e7e7e7;}}]]></style></defs><g><ellipse class="f_222222_dddddd s_222222_dddddd" cx="146.5" cy="20" rx="10" ry="10" style="stroke-width:1.0;"/><rect class="f_f1f1f1_070707 s_181818_e7e7e7" height="33.9688" rx="12.5" ry="12.5" style="stroke-width:0.5;" width="147" x="73" y="50"/><text class="f_000000_ffffff" font-family="sans-serif" font-size="12" lengthAdjust="spacing" textLength="127" x="83" y="71.1387">Get the input value x.</text><rect class="f_f1f1f1_070707 s_181818_e7e7e7" height="33.9688" rx="12.5" ry="12.5" style="stroke-width:0.5;" width="271" x="11" y="152.3711"/><text class="f_000000_ffffff" font-family="sans-serif" font-size="12" lengthAdjust="spacing" textLength="129" x="21" y="173.5098">The value x is invalid,</text><text class="f_000000_ffffff" font-family="sans-serif" font-size="12" font-weight="bold" lengthAdjust="spacing" textLength="115" x="154" y="173.5098">raise TypeError</text><text class="f_000000_ffffff" font-family="sans-serif" font-size="12" lengthAdjust="spacing" textLength="3" x="269" y="173.5098">.</text><ellipse class="s_222222_dddddd" cx="146.5" cy="223.8555" rx="10" ry="10" style="stroke-width:1.5;fill:none;"/><line class="s_222222_dddddd" style="stroke-width:2.5;fill:none;" x1="140.3128" x2="152.6872" y1="217.6683" y2="230.0427"/><line class="s_222222_dddddd" style="stroke-width:2.5;fill:none;" x1="152.6872" x2="140.3128" y1="217.6683" y2="230.0427"/><polygon class="f_f1f1f1_070707 s_181818_e7e7e7" points="86.5,103.9688,206.5,103.9688,218.5,115.9688,206.5,127.9688,86.5,127.9688,74.5,115.9688,86.5,103.9688" style="stroke-width:0.5;"/><text class="f_000000_ffffff" font-family="sans-serif" font-size="11" lengthAdjust="spacing" textLength="18" x="150.5" y="138.1792">No.</text><text class="f_000000_ffffff" font-family="sans-serif" font-size="11" lengthAdjust="spacing" textLength="120" x="86.5" y="119.7769">Value x's type is int?</text><text class="f_000000_ffffff" font-family="sans-serif" font-size="11" lengthAdjust="spacing" textLength="24" x="218.5" y="113.3745">Yes.</text><rect class="f_f1f1f1_070707 s_181818_e7e7e7" height="33.9688" rx="12.5" ry="12.5" style="stroke-width:0.5;" width="197" x="48" y="275.8555"/><text class="f_000000_ffffff" font-family="sans-serif" font-size="12" font-weight="bold" lengthAdjust="spacing" textLength="174" x="58" y="296.9941">Return value x as result</text><text class="f_000000_ffffff" font-family="sans-serif" font-size="12" lengthAdjust="spacing" textLength="3" x="232" y="296.9941">.</text><ellipse class="s_222222_dddddd" cx="146.5" cy="340.8242" rx="11" ry="11" style="stroke-width:1.0;fill:none;"/><ellipse class="f_222222_dddddd" cx="146.5" cy="340.8242" rx="6" ry="6" style="stroke:#111111;stroke-width:1.0;"/><line class="s_181818_e7e7e7" style="stroke-width:1.0;" x1="146.5" x2="146.5" y1="30" y2="50"/><polygon class="f_181818_e7e7e7 s_181818_e7e7e7" points="142.5,40,146.5,50,150.5,40,146.5,44" style="stroke-width:1.0;"/><line class="s_181818_e7e7e7" style="stroke-width:1.0;" x1="146.5" x2="146.5" y1="186.3398" y2="213.8555"/><polygon class="f_181818_e7e7e7 s_181818_e7e7e7" points="142.5,203.8555,146.5,213.8555,150.5,203.8555,146.5,207.8555" style="stroke-width:1.0;"/><line class="s_181818_e7e7e7" style="stroke-width:1.0;" x1="146.5" x2="146.5" y1="127.9688" y2="152.3711"/><polygon class="f_181818_e7e7e7 s_181818_e7e7e7" points="142.5,142.3711,146.5,152.3711,150.5,142.3711,146.5,146.3711" style="stroke-width:1.0;"/><line class="s_181818_e7e7e7" style="stroke-width:1.0;" x1="218.5" x2="292" y1="115.9688" y2="115.9688"/><polygon class="f_181818_e7e7e7 s_181818_e7e7e7" points="288,183.8555,292,193.8555,296,183.8555,292,187.8555" style="stroke-width:1.0;"/><line class="s_181818_e7e7e7" style="stroke-width:1.0;" x1="292" x2="292" y1="115.9688" y2="255.8555"/><line class="s_181818_e7e7e7" style="stroke-width:1.0;" x1="292" x2="146.5" y1="255.8555" y2="255.8555"/><line class="s_181818_e7e7e7" style="stroke-width:1.0;" x1="146.5" x2="146.5" y1="255.8555" y2="275.8555"/><polygon class="f_181818_e7e7e7 s_181818_e7e7e7" points="142.5,265.8555,146.5,275.8555,150.5,265.8555,146.5,269.8555" style="stroke-width:1.0;"/><line class="s_181818_e7e7e7" style="stroke-width:1.0;" x1="146.5" x2="146.5" y1="83.9688" y2="103.9688"/><polygon class="f_181818_e7e7e7 s_181818_e7e7e7" points="142.5,93.9688,146.5,103.9688,150.5,93.9688,146.5,97.9688" style="stroke-width:1.0;"/><line class="s_181818_e7e7e7" style="stroke-width:1.0;" x1="146.5" x2="146.5" y1="309.8242" y2="329.8242"/><polygon class="f_181818_e7e7e7 s_181818_e7e7e7" points="142.5,319.8242,146.5,329.8242,150.5,319.8242,146.5,323.8242" style="stroke-width:1.0;"/><!--MD5=[a5163eb3b94eae161cec50133488c18e]
@startuml
start

:Get the input value x.;

if (Value x's type is int?) then (Yes.)
else (No.)
    :The value x is invalid, **raise TypeError**.;
    end
endif

:**Return value x as result**.;

stop
@enduml

PlantUML version 1.2022.2beta5(Unknown compile time)
(GPL source distribution)
Java Runtime: Java(TM) SE Runtime Environment
JVM: Java HotSpot(TM) 64-Bit Server VM
Default Encoding: UTF-8
Language: en
Country: US
--></g></svg>