<?xml version="1.0" encoding="UTF-8" standalone="no"?><svg xmlns="http://www.w3.org/2000/svg" xmlns:xlink="http://www.w3.org/1999/xlink" contentStyleType="text/css" height="642px" preserveAspectRatio="none" style="width:391px;height:642px;background:#FFFFFF;" version="1.1" viewBox="0 0 391 642" width="391px" zoomAndPan="magnify"><defs/><g><ellipse cx="183" cy="20" fill="#222222" rx="10" ry="10" style="stroke:#222222;stroke-width:1.0;"/><rect fill="#F1F1F1" height="33.9688" rx="12.5" ry="12.5" style="stroke:#181818;stroke-width:0.5;" width="147" x="109.5" y="50"/><text fill="#000000" font-family="sans-serif" font-size="12" lengthAdjust="spacing" textLength="127" x="119.5" y="71.1387">Get the input value x.</text><rect fill="#F1F1F1" height="33.9688" rx="12.5" ry="12.5" style="stroke:#181818;stroke-width:0.5;" width="117" x="124.5" y="103.9688"/><text fill="#000000" font-family="sans-serif" font-size="12" lengthAdjust="spacing" textLength="97" x="134.5" y="125.1074">Set x1 as x ** 3</text><rect fill="#F1F1F1" height="33.9688" rx="12.5" ry="12.5" style="stroke:#181818;stroke-width:0.5;" width="344" x="11" y="206.3398"/><text fill="#000000" font-family="sans-serif" font-size="12" lengthAdjust="spacing" textLength="201" x="21" y="227.4785">The value x1 is not even number,</text><text fill="#000000" font-family="sans-serif" font-size="12" font-weight="bold" lengthAdjust="spacing" textLength="119" x="226" y="227.4785">raise ValueError</text><ellipse cx="183" cy="277.8242" rx="10" ry="10" style="stroke:#222222;stroke-width:1.5;fill:none;"/><line style="stroke:#222222;stroke-width:2.5;fill:none;" x1="176.8128" x2="189.1872" y1="271.637" y2="284.0114"/><line style="stroke:#222222;stroke-width:2.5;fill:none;" x1="189.1872" x2="176.8128" y1="271.637" y2="284.0114"/><polygon fill="#F1F1F1" points="110,157.9375,256,157.9375,268,169.9375,256,181.9375,110,181.9375,98,169.9375,110,157.9375" style="stroke:#181818;stroke-width:0.5;"/><text fill="#000000" font-family="sans-serif" font-size="11" lengthAdjust="spacing" textLength="18" x="187" y="192.1479">No.</text><text fill="#000000" font-family="sans-serif" font-size="11" lengthAdjust="spacing" textLength="146" x="110" y="173.7456">Value x1 is even number</text><text fill="#000000" font-family="sans-serif" font-size="11" lengthAdjust="spacing" textLength="24" x="268" y="167.3433">Yes.</text><rect fill="#F1F1F1" height="33.9688" rx="12.5" ry="12.5" style="stroke:#181818;stroke-width:0.5;" width="119" x="123.5" y="329.8242"/><text fill="#000000" font-family="sans-serif" font-size="12" lengthAdjust="spacing" textLength="99" x="133.5" y="350.9629">Set x2 as x1 // 2</text><rect fill="#F1F1F1" height="33.9688" rx="12.5" ry="12.5" style="stroke:#181818;stroke-width:0.5;" width="317" x="24.5" y="432.1953"/><text fill="#000000" font-family="sans-serif" font-size="12" lengthAdjust="spacing" textLength="171" x="34.5" y="453.334">The value x2 is not in range,</text><text fill="#000000" font-family="sans-serif" font-size="12" font-weight="bold" lengthAdjust="spacing" textLength="119" x="209.5" y="453.334">raise ValueError</text><text fill="#000000" font-family="sans-serif" font-size="12" lengthAdjust="spacing" textLength="3" x="328.5" y="453.334">.</text><ellipse cx="183" cy="503.6797" rx="10" ry="10" style="stroke:#222222;stroke-width:1.5;fill:none;"/><line style="stroke:#222222;stroke-width:2.5;fill:none;" x1="176.8128" x2="189.1872" y1="497.4925" y2="509.8669"/><line style="stroke:#222222;stroke-width:2.5;fill:none;" x1="189.1872" x2="176.8128" y1="497.4925" y2="509.8669"/><polygon fill="#F1F1F1" points="101.5,383.793,264.5,383.793,276.5,395.793,264.5,407.793,101.5,407.793,89.5,395.793,101.5,383.793" style="stroke:#181818;stroke-width:0.5;"/><text fill="#000000" font-family="sans-serif" font-size="11" lengthAdjust="spacing" textLength="18" x="187" y="418.0034">No.</text><text fill="#000000" font-family="sans-serif" font-size="11" lengthAdjust="spacing" textLength="163" x="101.5" y="399.6011">Value x2's type is in [0, 10]?</text><text fill="#000000" font-family="sans-serif" font-size="11" lengthAdjust="spacing" textLength="24" x="276.5" y="393.1987">Yes.</text><rect fill="#F1F1F1" height="33.9688" rx="12.5" ry="12.5" style="stroke:#181818;stroke-width:0.5;" width="205" x="80.5" y="555.6797"/><text fill="#000000" font-family="sans-serif" font-size="12" font-weight="bold" lengthAdjust="spacing" textLength="182" x="90.5" y="576.8184">Return value x2 as result</text><text fill="#000000" font-family="sans-serif" font-size="12" lengthAdjust="spacing" textLength="3" x="272.5" y="576.8184">.</text><ellipse cx="183" cy="620.6484" rx="11" ry="11" style="stroke:#222222;stroke-width:1.0;fill:none;"/><ellipse cx="183" cy="620.6484" fill="#222222" rx="6" ry="6" style="stroke:#111111;stroke-width:1.0;"/><line style="stroke:#181818;stroke-width:1.0;" x1="183" x2="183" y1="30" y2="50"/><polygon fill="#181818" points="179,40,183,50,187,40,183,44" style="stroke:#181818;stroke-width:1.0;"/><line style="stroke:#181818;stroke-width:1.0;" x1="183" x2="183" y1="83.9688" y2="103.9688"/><polygon fill="#181818" points="179,93.9688,183,103.9688,187,93.9688,183,97.9688" style="stroke:#181818;stroke-width:1.0;"/><line style="stroke:#181818;stroke-width:1.0;" x1="183" x2="183" y1="240.3086" y2="267.8242"/><polygon fill="#181818" points="179,257.8242,183,267.8242,187,257.8242,183,261.8242" style="stroke:#181818;stroke-width:1.0;"/><line style="stroke:#181818;stroke-width:1.0;" x1="183" x2="183" y1="181.9375" y2="206.3398"/><polygon fill="#181818" points="179,196.3398,183,206.3398,187,196.3398,183,200.3398" style="stroke:#181818;stroke-width:1.0;"/><line style="stroke:#181818;stroke-width:1.0;" x1="268" x2="365" y1="169.9375" y2="169.9375"/><polygon fill="#181818" points="361,237.8242,365,247.8242,369,237.8242,365,241.8242" style="stroke:#181818;stroke-width:1.0;"/><line style="stroke:#181818;stroke-width:1.0;" x1="365" x2="365" y1="169.9375" y2="309.8242"/><line style="stroke:#181818;stroke-width:1.0;" x1="365" x2="183" y1="309.8242" y2="309.8242"/><line style="stroke:#181818;stroke-width:1.0;" x1="183" x2="183" y1="309.8242" y2="329.8242"/><polygon fill="#181818" points="179,319.8242,183,329.8242,187,319.8242,183,323.8242" style="stroke:#181818;stroke-width:1.0;"/><line style="stroke:#181818;stroke-width:1.0;" x1="183" x2="183" y1="137.9375" y2="157.9375"/><polygon fill="#181818" points="179,147.9375,183,157.9375,187,147.9375,183,151.9375" style="stroke:#181818;stroke-width:1.0;"/><line style="stroke:#181818;stroke-width:1.0;" x1="183" x2="183" y1="466.1641" y2="493.6797"/><polygon fill="#181818" points="179,483.6797,183,493.6797,187,483.6797,183,487.6797" style="stroke:#181818;stroke-width:1.0;"/><line style="stroke:#181818;stroke-width:1.0;" x1="183" x2="183" y1="407.793" y2="432.1953"/><polygon fill="#181818" points="179,422.1953,183,432.1953,187,422.1953,183,426.1953" style="stroke:#181818;stroke-width:1.0;"/><line style="stroke:#181818;stroke-width:1.0;" x1="276.5" x2="351.5" y1="395.793" y2="395.793"/><polygon fill="#181818" points="347.5,463.6797,351.5,473.6797,355.5,463.6797,351.5,467.6797" style="stroke:#181818;stroke-width:1.0;"/><line style="stroke:#181818;stroke-width:1.0;" x1="351.5" x2="351.5" y1="395.793" y2="535.6797"/><line style="stroke:#181818;stroke-width:1.0;" x1="351.5" x2="183" y1="535.6797" y2="535.6797"/><line style="stroke:#181818;stroke-width:1.0;" x1="183" x2="183" y1="535.6797" y2="555.6797"/><polygon fill="#181818" points="179,545.6797,183,555.6797,187,545.6797,183,549.6797" style="stroke:#181818;stroke-width:1.0;"/><line style="stroke:#181818;stroke-width:1.0;" x1="183" x2="183" y1="363.793" y2="383.793"/><polygon fill="#181818" points="179,373.793,183,383.793,187,373.793,183,377.793" style="stroke:#181818;stroke-width:1.0;"/><line style="stroke:#181818;stroke-width:1.0;" x1="183" x2="183" y1="589.6484" y2="609.6484"/><polygon fill="#181818" points="179,599.6484,183,609.6484,187,599.6484,183,603.6484" style="stroke:#181818;stroke-width:1.0;"/><!--MD5=[2672c898dc2e2d3401445cc66e02847a]
@startuml
start

:Get the input value x.;

:Set x1 as x ** 3;

if (Value x1 is even number) then (Yes.)
else (No.)
    :The value x1 is not even number, **raise ValueError**;
    end
endif

:Set x2 as x1 // 2;

if (Value x2's type is in [0, 10]?) then (Yes.)
else (No.)
    :The value x2 is not in range, **raise ValueError**.;
    end
endif

:**Return value x2 as result**.;

stop
@enduml

PlantUML version 1.2022.4beta2(Unknown compile time)
(GPL source distribution)
Java Runtime: Java(TM) SE Runtime Environment
JVM: Java HotSpot(TM) 64-Bit Server VM
Default Encoding: UTF-8
Language: en
Country: US
--></g></svg>