<?xml version="1.0" encoding="UTF-8" standalone="no"?><svg xmlns="http://www.w3.org/2000/svg" xmlns:xlink="http://www.w3.org/1999/xlink" contentStyleType="text/css" height="703px" preserveAspectRatio="none" style="width:615px;height:703px;background:#FFFFFF;" version="1.1" viewBox="0 0 615 703" width="615px" zoomAndPan="magnify"><defs/><g><!--MD5=[d27eaf150e369198f69b6e9754f1a23b]
class Master--><g id="elem_Master"><rect codeLine="1" fill="#F1F1F1" height="194.6719" id="Master" rx="2.5" ry="2.5" style="stroke:#181818;stroke-width:0.5;" width="321" x="55" y="7"/><ellipse cx="186.75" cy="23" fill="#ADD1B2" rx="11" ry="11" style="stroke:#181818;stroke-width:1.0;"/><path d="M189.0938,18.6719 C188.1563,18.2344 187.5625,18.0938 186.6875,18.0938 C184.0625,18.0938 182.0625,20.1719 182.0625,22.8906 L182.0625,24.0156 C182.0625,26.5938 184.1719,28.4844 187.0625,28.4844 C188.2813,28.4844 189.4375,28.1875 190.1875,27.6406 C190.7656,27.2344 191.0938,26.7813 191.0938,26.3906 C191.0938,25.9375 190.7031,25.5469 190.2344,25.5469 C190.0156,25.5469 189.8125,25.625 189.625,25.8125 C189.1719,26.2969 189.1719,26.2969 188.9844,26.3906 C188.5625,26.6563 187.875,26.7813 187.1094,26.7813 C185.0625,26.7813 183.7656,25.6875 183.7656,23.9844 L183.7656,22.8906 C183.7656,21.1094 185.0156,19.7969 186.75,19.7969 C187.3281,19.7969 187.9375,19.9531 188.4063,20.2031 C188.8906,20.4844 189.0625,20.7031 189.1563,21.1094 C189.2188,21.5156 189.25,21.6406 189.3906,21.7656 C189.5313,21.9063 189.7656,22.0156 189.9844,22.0156 C190.25,22.0156 190.5156,21.875 190.6875,21.6563 C190.7969,21.5 190.8281,21.3125 190.8281,20.8906 L190.8281,19.4688 C190.8281,19.0313 190.8125,18.9063 190.7188,18.75 C190.5625,18.4844 190.2813,18.3438 189.9844,18.3438 C189.6875,18.3438 189.4844,18.4375 189.2656,18.75 L189.0938,18.6719 Z " fill="#000000"/><text fill="#000000" font-family="sans-serif" font-size="14" lengthAdjust="spacing" textLength="49" x="207.25" y="27.8467">Master</text><line style="stroke:#181818;stroke-width:0.5;" x1="56" x2="375" y1="39" y2="39"/><rect fill="none" height="6" style="stroke:#C82930;stroke-width:1.0;" width="6" x="63" y="47"/><text fill="#000000" font-family="sans-serif" font-size="14" lengthAdjust="spacing" textLength="32" x="75" y="55.9951">host</text><rect fill="none" height="6" style="stroke:#C82930;stroke-width:1.0;" width="6" x="63" y="63.2969"/><text fill="#000000" font-family="sans-serif" font-size="14" lengthAdjust="spacing" textLength="32" x="75" y="72.292">port</text><rect fill="none" height="6" style="stroke:#C82930;stroke-width:1.0;" width="6" x="63" y="79.5938"/><text fill="#000000" font-family="sans-serif" font-size="14" lengthAdjust="spacing" textLength="56" x="75" y="88.5889">channel</text><rect fill="none" height="6" style="stroke:#C82930;stroke-width:1.0;" width="6" x="63" y="95.8906"/><text fill="#000000" font-family="sans-serif" font-size="14" lengthAdjust="spacing" textLength="84" x="75" y="104.8857">my_address</text><line style="stroke:#181818;stroke-width:0.5;" x1="56" x2="375" y1="112.1875" y2="112.1875"/><ellipse cx="66" cy="123.1875" fill="#84BE84" rx="3" ry="3" style="stroke:#038048;stroke-width:1.0;"/><text fill="#000000" font-family="sans-serif" font-size="14" lengthAdjust="spacing" textLength="42" x="75" y="129.1826">ping()</text><ellipse cx="66" cy="139.4844" fill="#84BE84" rx="3" ry="3" style="stroke:#038048;stroke-width:1.0;"/><text fill="#000000" font-family="sans-serif" font-size="14" lengthAdjust="spacing" textLength="295" x="75" y="145.4795">new_connection(name, host, port, https)</text><ellipse cx="66" cy="155.7813" fill="#84BE84" rx="3" ry="3" style="stroke:#038048;stroke-width:1.0;"/><text fill="#000000" font-family="sans-serif" font-size="14" lengthAdjust="spacing" textLength="45" x="75" y="161.7764">start()</text><ellipse cx="66" cy="172.0781" fill="#84BE84" rx="3" ry="3" style="stroke:#038048;stroke-width:1.0;"/><text fill="#000000" font-family="sans-serif" font-size="14" lengthAdjust="spacing" textLength="79" x="75" y="178.0732">shutdown()</text><ellipse cx="66" cy="188.375" fill="#84BE84" rx="3" ry="3" style="stroke:#038048;stroke-width:1.0;"/><text fill="#000000" font-family="sans-serif" font-size="14" lengthAdjust="spacing" textLength="36" x="75" y="194.3701">join()</text></g><!--MD5=[aeeddfb3e143aaa6a4abbdf104ad8e61]
class Slave--><g id="elem_Slave"><rect codeLine="15" fill="#F1F1F1" height="162.0781" id="Slave" rx="2.5" ry="2.5" style="stroke:#181818;stroke-width:0.5;" width="105" x="7" y="279"/><ellipse cx="37.75" cy="295" fill="#ADD1B2" rx="11" ry="11" style="stroke:#181818;stroke-width:1.0;"/><path d="M40.0938,290.6719 C39.1563,290.2344 38.5625,290.0938 37.6875,290.0938 C35.0625,290.0938 33.0625,292.1719 33.0625,294.8906 L33.0625,296.0156 C33.0625,298.5938 35.1719,300.4844 38.0625,300.4844 C39.2813,300.4844 40.4375,300.1875 41.1875,299.6406 C41.7656,299.2344 42.0938,298.7813 42.0938,298.3906 C42.0938,297.9375 41.7031,297.5469 41.2344,297.5469 C41.0156,297.5469 40.8125,297.625 40.625,297.8125 C40.1719,298.2969 40.1719,298.2969 39.9844,298.3906 C39.5625,298.6563 38.875,298.7813 38.1094,298.7813 C36.0625,298.7813 34.7656,297.6875 34.7656,295.9844 L34.7656,294.8906 C34.7656,293.1094 36.0156,291.7969 37.75,291.7969 C38.3281,291.7969 38.9375,291.9531 39.4063,292.2031 C39.8906,292.4844 40.0625,292.7031 40.1563,293.1094 C40.2188,293.5156 40.25,293.6406 40.3906,293.7656 C40.5313,293.9063 40.7656,294.0156 40.9844,294.0156 C41.25,294.0156 41.5156,293.875 41.6875,293.6563 C41.7969,293.5 41.8281,293.3125 41.8281,292.8906 L41.8281,291.4688 C41.8281,291.0313 41.8125,290.9063 41.7188,290.75 C41.5625,290.4844 41.2813,290.3438 40.9844,290.3438 C40.6875,290.3438 40.4844,290.4375 40.2656,290.75 L40.0938,290.6719 Z " fill="#000000"/><text fill="#000000" font-family="sans-serif" font-size="14" lengthAdjust="spacing" textLength="38" x="55.25" y="299.8467">Slave</text><line style="stroke:#181818;stroke-width:0.5;" x1="8" x2="111" y1="311" y2="311"/><rect fill="none" height="6" style="stroke:#C82930;stroke-width:1.0;" width="6" x="15" y="319"/><text fill="#000000" font-family="sans-serif" font-size="14" lengthAdjust="spacing" textLength="32" x="27" y="327.9951">host</text><rect fill="none" height="6" style="stroke:#C82930;stroke-width:1.0;" width="6" x="15" y="335.2969"/><text fill="#000000" font-family="sans-serif" font-size="14" lengthAdjust="spacing" textLength="32" x="27" y="344.292">port</text><rect fill="none" height="6" style="stroke:#C82930;stroke-width:1.0;" width="6" x="15" y="351.5938"/><text fill="#000000" font-family="sans-serif" font-size="14" lengthAdjust="spacing" textLength="56" x="27" y="360.5889">channel</text><line style="stroke:#181818;stroke-width:0.5;" x1="8" x2="111" y1="367.8906" y2="367.8906"/><ellipse cx="18" cy="378.8906" fill="#84BE84" rx="3" ry="3" style="stroke:#038048;stroke-width:1.0;"/><text fill="#000000" font-family="sans-serif" font-size="14" lengthAdjust="spacing" textLength="42" x="27" y="384.8857">ping()</text><ellipse cx="18" cy="395.1875" fill="#84BE84" rx="3" ry="3" style="stroke:#038048;stroke-width:1.0;"/><text fill="#000000" font-family="sans-serif" font-size="14" lengthAdjust="spacing" textLength="45" x="27" y="401.1826">start()</text><ellipse cx="18" cy="411.4844" fill="#84BE84" rx="3" ry="3" style="stroke:#038048;stroke-width:1.0;"/><text fill="#000000" font-family="sans-serif" font-size="14" lengthAdjust="spacing" textLength="79" x="27" y="417.4795">shutdown()</text><ellipse cx="18" cy="427.7813" fill="#84BE84" rx="3" ry="3" style="stroke:#038048;stroke-width:1.0;"/><text fill="#000000" font-family="sans-serif" font-size="14" lengthAdjust="spacing" textLength="36" x="27" y="433.7764">join()</text></g><!--MD5=[ad510ca42d1a057b37ac2813b8ee5b40]
class Connection--><g id="elem_Connection"><rect codeLine="25" fill="#F1F1F1" height="129.4844" id="Connection" rx="2.5" ry="2.5" style="stroke:#181818;stroke-width:0.5;" width="115" x="314" y="295.5"/><ellipse cx="329" cy="311.5" fill="#ADD1B2" rx="11" ry="11" style="stroke:#181818;stroke-width:1.0;"/><path d="M331.3438,307.1719 C330.4063,306.7344 329.8125,306.5938 328.9375,306.5938 C326.3125,306.5938 324.3125,308.6719 324.3125,311.3906 L324.3125,312.5156 C324.3125,315.0938 326.4219,316.9844 329.3125,316.9844 C330.5313,316.9844 331.6875,316.6875 332.4375,316.1406 C333.0156,315.7344 333.3438,315.2813 333.3438,314.8906 C333.3438,314.4375 332.9531,314.0469 332.4844,314.0469 C332.2656,314.0469 332.0625,314.125 331.875,314.3125 C331.4219,314.7969 331.4219,314.7969 331.2344,314.8906 C330.8125,315.1563 330.125,315.2813 329.3594,315.2813 C327.3125,315.2813 326.0156,314.1875 326.0156,312.4844 L326.0156,311.3906 C326.0156,309.6094 327.2656,308.2969 329,308.2969 C329.5781,308.2969 330.1875,308.4531 330.6563,308.7031 C331.1406,308.9844 331.3125,309.2031 331.4063,309.6094 C331.4688,310.0156 331.5,310.1406 331.6406,310.2656 C331.7813,310.4063 332.0156,310.5156 332.2344,310.5156 C332.5,310.5156 332.7656,310.375 332.9375,310.1563 C333.0469,310 333.0781,309.8125 333.0781,309.3906 L333.0781,307.9688 C333.0781,307.5313 333.0625,307.4063 332.9688,307.25 C332.8125,306.9844 332.5313,306.8438 332.2344,306.8438 C331.9375,306.8438 331.7344,306.9375 331.5156,307.25 L331.3438,307.1719 Z " fill="#000000"/><text fill="#000000" font-family="sans-serif" font-size="14" lengthAdjust="spacing" textLength="83" x="343" y="316.3467">Connection</text><line style="stroke:#181818;stroke-width:0.5;" x1="315" x2="428" y1="327.5" y2="327.5"/><rect fill="none" height="6" style="stroke:#C82930;stroke-width:1.0;" width="6" x="322" y="335.5"/><text fill="#000000" font-family="sans-serif" font-size="14" lengthAdjust="spacing" textLength="43" x="334" y="344.4951">token</text><rect fill="none" height="6" style="stroke:#C82930;stroke-width:1.0;" width="6" x="322" y="351.7969"/><text fill="#000000" font-family="sans-serif" font-size="14" lengthAdjust="spacing" textLength="38" x="334" y="360.792">tasks</text><line style="stroke:#181818;stroke-width:0.5;" x1="315" x2="428" y1="368.0938" y2="368.0938"/><ellipse cx="325" cy="379.0938" fill="#84BE84" rx="3" ry="3" style="stroke:#038048;stroke-width:1.0;"/><text fill="#000000" font-family="sans-serif" font-size="14" lengthAdjust="spacing" textLength="69" x="334" y="385.0889">connect()</text><ellipse cx="325" cy="395.3906" fill="#84BE84" rx="3" ry="3" style="stroke:#038048;stroke-width:1.0;"/><text fill="#000000" font-family="sans-serif" font-size="14" lengthAdjust="spacing" textLength="89" x="334" y="401.3857">disconnect()</text><ellipse cx="325" cy="411.6875" fill="#84BE84" rx="3" ry="3" style="stroke:#038048;stroke-width:1.0;"/><text fill="#000000" font-family="sans-serif" font-size="14" lengthAdjust="spacing" textLength="77" x="334" y="417.6826">new_task()</text></g><!--MD5=[b34797a66dc35cbf1d65f7e3ca75530e]
class Task--><g id="elem_Task"><rect codeLine="34" fill="#F1F1F1" height="178.375" id="Task" rx="2.5" ry="2.5" style="stroke:#181818;stroke-width:0.5;" width="190" x="276.5" y="518"/><ellipse cx="350.75" cy="534" fill="#ADD1B2" rx="11" ry="11" style="stroke:#181818;stroke-width:1.0;"/><path d="M353.0938,529.6719 C352.1563,529.2344 351.5625,529.0938 350.6875,529.0938 C348.0625,529.0938 346.0625,531.1719 346.0625,533.8906 L346.0625,535.0156 C346.0625,537.5938 348.1719,539.4844 351.0625,539.4844 C352.2813,539.4844 353.4375,539.1875 354.1875,538.6406 C354.7656,538.2344 355.0938,537.7813 355.0938,537.3906 C355.0938,536.9375 354.7031,536.5469 354.2344,536.5469 C354.0156,536.5469 353.8125,536.625 353.625,536.8125 C353.1719,537.2969 353.1719,537.2969 352.9844,537.3906 C352.5625,537.6563 351.875,537.7813 351.1094,537.7813 C349.0625,537.7813 347.7656,536.6875 347.7656,534.9844 L347.7656,533.8906 C347.7656,532.1094 349.0156,530.7969 350.75,530.7969 C351.3281,530.7969 351.9375,530.9531 352.4063,531.2031 C352.8906,531.4844 353.0625,531.7031 353.1563,532.1094 C353.2188,532.5156 353.25,532.6406 353.3906,532.7656 C353.5313,532.9063 353.7656,533.0156 353.9844,533.0156 C354.25,533.0156 354.5156,532.875 354.6875,532.6563 C354.7969,532.5 354.8281,532.3125 354.8281,531.8906 L354.8281,530.4688 C354.8281,530.0313 354.8125,529.9063 354.7188,529.75 C354.5625,529.4844 354.2813,529.3438 353.9844,529.3438 C353.6875,529.3438 353.4844,529.4375 353.2656,529.75 L353.0938,529.6719 Z " fill="#000000"/><text fill="#000000" font-family="sans-serif" font-size="14" lengthAdjust="spacing" textLength="33" x="371.25" y="538.8467">Task</text><line style="stroke:#181818;stroke-width:0.5;" x1="277.5" x2="465.5" y1="550" y2="550"/><rect fill="none" height="6" style="stroke:#C82930;stroke-width:1.0;" width="6" x="284.5" y="558"/><text fill="#000000" font-family="sans-serif" font-size="14" lengthAdjust="spacing" textLength="51" x="296.5" y="566.9951">task_id</text><rect fill="none" height="6" style="stroke:#C82930;stroke-width:1.0;" width="6" x="284.5" y="574.2969"/><text fill="#000000" font-family="sans-serif" font-size="14" lengthAdjust="spacing" textLength="32" x="296.5" y="583.292">data</text><rect fill="none" height="6" style="stroke:#C82930;stroke-width:1.0;" width="6" x="284.5" y="590.5938"/><text fill="#000000" font-family="sans-serif" font-size="14" lengthAdjust="spacing" textLength="44" x="296.5" y="599.5889">status</text><rect fill="none" height="6" style="stroke:#C82930;stroke-width:1.0;" width="6" x="284.5" y="606.8906"/><text fill="#000000" font-family="sans-serif" font-size="14" lengthAdjust="spacing" textLength="41" x="296.5" y="615.8857">result</text><line style="stroke:#181818;stroke-width:0.5;" x1="277.5" x2="465.5" y1="623.1875" y2="623.1875"/><ellipse cx="287.5" cy="634.1875" fill="#84BE84" rx="3" ry="3" style="stroke:#038048;stroke-width:1.0;"/><text fill="#000000" font-family="sans-serif" font-size="14" lengthAdjust="spacing" textLength="45" x="296.5" y="640.1826">start()</text><ellipse cx="287.5" cy="650.4844" fill="#84BE84" rx="3" ry="3" style="stroke:#038048;stroke-width:1.0;"/><text fill="#000000" font-family="sans-serif" font-size="14" lengthAdjust="spacing" textLength="36" x="296.5" y="656.4795">join()</text><ellipse cx="287.5" cy="666.7813" fill="#84BE84" rx="3" ry="3" style="stroke:#038048;stroke-width:1.0;"/><text fill="#000000" font-family="sans-serif" font-size="14" lengthAdjust="spacing" textLength="164" x="296.5" y="672.7764">on_complete(callback)</text><ellipse cx="287.5" cy="683.0781" fill="#84BE84" rx="3" ry="3" style="stroke:#038048;stroke-width:1.0;"/><text fill="#000000" font-family="sans-serif" font-size="14" lengthAdjust="spacing" textLength="116" x="296.5" y="689.0732">on_fail(callback)</text></g><!--MD5=[146dd481235fc1b7fbbfa4006f4d41b9]
link Master to Slave--><g id="link_Master_Slave"><path codeLine="13" d="M75.2562,202.368 C67.9518,211.631 61.5567,221.515 56.5,232 C50.3138,244.827 47.4391,259.263 46.599,273.68 " fill="none" id="Master-to-Slave" style="stroke:#181818;stroke-width:1.0;"/><polygon fill="#181818" points="46.3791,278.988,50.7485,270.1614,46.5862,273.9923,42.7554,269.83,46.3791,278.988" style="stroke:#181818;stroke-width:1.0;"/><text fill="#000000" font-family="sans-serif" font-size="13" lengthAdjust="spacing" textLength="270" x="57.5" y="245.0669">Connect to slave, new connection created</text></g><!--MD5=[2eede74ddb53b58f4e1698c43f4edde8]
reverse link Master to Connection--><g id="link_Master_Connection"><path codeLine="32" d="M320.588,213.256 C324.858,219.417 328.863,225.68 332.5,232 C343.659,251.391 351.961,274.321 357.968,295.324 " fill="none" id="Master-backto-Connection" style="stroke:#181818;stroke-width:1.0;"/><polygon fill="none" points="312.638,202.289,312.9209,209.4946,319.6809,212.0048,319.3981,204.7993,312.638,202.289" style="stroke:#181818;stroke-width:1.0;"/><text fill="#000000" font-family="sans-serif" font-size="13" lengthAdjust="spacing" textLength="266" x="341.5" y="245.0669">Master clients have plenty of connections</text><text fill="#000000" font-family="sans-serif" font-size="13" lengthAdjust="spacing" textLength="8" x="311.1868" y="221.7752">1</text><text fill="#000000" font-family="sans-serif" font-size="13" lengthAdjust="spacing" textLength="23" x="332.2301" y="284.4774">0..*</text></g><!--MD5=[35fe452096804484fccc5cbb42ca3e55]
reverse link Connection to Task--><g id="link_Connection_Task"><path codeLine="44" d="M371.5,438.044 C371.5,463.333 371.5,491.633 371.5,517.69 " fill="none" id="Connection-backto-Task" style="stroke:#181818;stroke-width:1.0;"/><polygon fill="none" points="371.5,424.731,367.5,430.731,371.5,436.731,375.5,430.731,371.5,424.731" style="stroke:#181818;stroke-width:1.0;"/><text fill="#000000" font-family="sans-serif" font-size="13" lengthAdjust="spacing" textLength="214" x="372.5" y="484.0669">Connections have plenty of tasks</text><text fill="#000000" font-family="sans-serif" font-size="13" lengthAdjust="spacing" textLength="8" x="363.0375" y="445.1293">1</text><text fill="#000000" font-family="sans-serif" font-size="13" lengthAdjust="spacing" textLength="23" x="347.5836" y="507.0327">0..*</text></g><!--MD5=[836dd47d22cb2a053b1564e797e9168c]
@startuml
class Master {
    - host
    - port
    - channel
    - my_address
    + ping()
    + new_connection(name, host, port, https)
    + start()
    + shutdown()
    + join()
}

Master - -> Slave : Connect to slave, new connection created

class Slave {
    - host
    - port
    - channel
    + ping()
    + start()
    + shutdown()
    + join()
}

class Connection {
    - token
    - tasks
    + connect()
    + disconnect()
    + new_task()
}
Master "1" o- - "0..*" Connection : Master clients have plenty of connections

class Task {
    - task_id
    - data
    - status
    - result
    + start()
    + join()
    + on_complete(callback)
    + on_fail(callback)
}
Connection "1" o- - "0..*" Task : Connections have plenty of tasks
@enduml

PlantUML version 1.2022.4beta2(Unknown compile time)
(GPL source distribution)
Java Runtime: Java(TM) SE Runtime Environment
JVM: Java HotSpot(TM) 64-Bit Server VM
Default Encoding: UTF-8
Language: en
Country: US
--></g></svg>