<?xml version="1.0" encoding="UTF-8" standalone="no"?><svg xmlns="http://www.w3.org/2000/svg" xmlns:xlink="http://www.w3.org/1999/xlink" contentScriptType="application/ecmascript" contentStyleType="text/css" height="626px" preserveAspectRatio="none" style="width:608px;height:626px;background:#FFFFFF;" version="1.1" viewBox="0 0 608 626" width="608px" zoomAndPan="magnify"><defs><filter height="300%" id="fe2xc3qa8xsju" width="300%" x="-1" y="-1"><feGaussianBlur result="blurOut" stdDeviation="2.0"/><feColorMatrix in="blurOut" result="blurOut2" type="matrix" values="0 0 0 0 0 0 0 0 0 0 0 0 0 0 0 0 0 0 .4 0"/><feOffset dx="4.0" dy="4.0" in="blurOut2" result="blurOut3"/><feBlend in="SourceGraphic" in2="blurOut3" mode="normal"/></filter></defs><g><!--MD5=[d27eaf150e369198f69b6e9754f1a23b]
class Master--><rect codeLine="1" fill="#FEFECE" filter="url(#fe2xc3qa8xsju)" height="163.2422" id="Master" style="stroke:#A80036;stroke-width:1.5;" width="254" x="80" y="7"/><ellipse cx="182.25" cy="23" fill="#ADD1B2" rx="11" ry="11" style="stroke:#A80036;stroke-width:1.0;"/><path d="M184.5938,18.6719 C183.6563,18.2344 183.0625,18.0938 182.1875,18.0938 C179.5625,18.0938 177.5625,20.1719 177.5625,22.8906 L177.5625,24.0156 C177.5625,26.5938 179.6719,28.4844 182.5625,28.4844 C183.7813,28.4844 184.9375,28.1875 185.6875,27.6406 C186.2656,27.2344 186.5938,26.7813 186.5938,26.3906 C186.5938,25.9375 186.2031,25.5469 185.7344,25.5469 C185.5156,25.5469 185.3125,25.625 185.125,25.8125 C184.6719,26.2969 184.6719,26.2969 184.4844,26.3906 C184.0625,26.6563 183.375,26.7813 182.6094,26.7813 C180.5625,26.7813 179.2656,25.6875 179.2656,23.9844 L179.2656,22.8906 C179.2656,21.1094 180.5156,19.7969 182.25,19.7969 C182.8281,19.7969 183.4375,19.9531 183.9063,20.2031 C184.3906,20.4844 184.5625,20.7031 184.6563,21.1094 C184.7188,21.5156 184.75,21.6406 184.8906,21.7656 C185.0313,21.9063 185.2656,22.0156 185.4844,22.0156 C185.75,22.0156 186.0156,21.875 186.1875,21.6563 C186.2969,21.5 186.3281,21.3125 186.3281,20.8906 L186.3281,19.4688 C186.3281,19.0313 186.3125,18.9063 186.2188,18.75 C186.0625,18.4844 185.7813,18.3438 185.4844,18.3438 C185.1875,18.3438 184.9844,18.4375 184.7656,18.75 L184.5938,18.6719 Z " fill="#000000"/><text fill="#000000" font-family="sans-serif" font-size="12" lengthAdjust="spacing" textLength="41" x="202.75" y="27.1543">Master</text><line style="stroke:#A80036;stroke-width:1.5;" x1="81" x2="333" y1="39" y2="39"/><rect fill="none" height="6" style="stroke:#C82930;stroke-width:1.0;" width="6" x="88" y="47"/><text fill="#000000" font-family="sans-serif" font-size="11" lengthAdjust="spacing" textLength="24" x="100" y="53.2104">host</text><rect fill="none" height="6" style="stroke:#C82930;stroke-width:1.0;" width="6" x="88" y="59.8047"/><text fill="#000000" font-family="sans-serif" font-size="11" lengthAdjust="spacing" textLength="22" x="100" y="66.0151">port</text><rect fill="none" height="6" style="stroke:#C82930;stroke-width:1.0;" width="6" x="88" y="72.6094"/><text fill="#000000" font-family="sans-serif" font-size="11" lengthAdjust="spacing" textLength="45" x="100" y="78.8198">channel</text><rect fill="none" height="6" style="stroke:#C82930;stroke-width:1.0;" width="6" x="88" y="85.4141"/><text fill="#000000" font-family="sans-serif" font-size="11" lengthAdjust="spacing" textLength="69" x="100" y="91.6245">my_address</text><line style="stroke:#A80036;stroke-width:1.5;" x1="81" x2="333" y1="98.2188" y2="98.2188"/><ellipse cx="91" cy="109.2188" fill="#84BE84" rx="3" ry="3" style="stroke:#038048;stroke-width:1.0;"/><text fill="#000000" font-family="sans-serif" font-size="11" lengthAdjust="spacing" textLength="32" x="100" y="112.4292">ping()</text><ellipse cx="91" cy="122.0234" fill="#84BE84" rx="3" ry="3" style="stroke:#038048;stroke-width:1.0;"/><text fill="#000000" font-family="sans-serif" font-size="11" lengthAdjust="spacing" textLength="228" x="100" y="125.2339">new_connection(name, host, port, https)</text><ellipse cx="91" cy="134.8281" fill="#84BE84" rx="3" ry="3" style="stroke:#038048;stroke-width:1.0;"/><text fill="#000000" font-family="sans-serif" font-size="11" lengthAdjust="spacing" textLength="33" x="100" y="138.0386">start()</text><ellipse cx="91" cy="147.6328" fill="#84BE84" rx="3" ry="3" style="stroke:#038048;stroke-width:1.0;"/><text fill="#000000" font-family="sans-serif" font-size="11" lengthAdjust="spacing" textLength="62" x="100" y="150.8433">shutdown()</text><ellipse cx="91" cy="160.4375" fill="#84BE84" rx="3" ry="3" style="stroke:#038048;stroke-width:1.0;"/><text fill="#000000" font-family="sans-serif" font-size="11" lengthAdjust="spacing" textLength="28" x="100" y="163.6479">join()</text><!--MD5=[aeeddfb3e143aaa6a4abbdf104ad8e61]
class Slave--><rect codeLine="15" fill="#FEFECE" filter="url(#fe2xc3qa8xsju)" height="137.6328" id="Slave" style="stroke:#A80036;stroke-width:1.5;" width="88" x="7" y="247"/><ellipse cx="32.35" cy="263" fill="#ADD1B2" rx="11" ry="11" style="stroke:#A80036;stroke-width:1.0;"/><path d="M34.6938,258.6719 C33.7563,258.2344 33.1625,258.0938 32.2875,258.0938 C29.6625,258.0938 27.6625,260.1719 27.6625,262.8906 L27.6625,264.0156 C27.6625,266.5938 29.7719,268.4844 32.6625,268.4844 C33.8813,268.4844 35.0375,268.1875 35.7875,267.6406 C36.3656,267.2344 36.6938,266.7813 36.6938,266.3906 C36.6938,265.9375 36.3031,265.5469 35.8344,265.5469 C35.6156,265.5469 35.4125,265.625 35.225,265.8125 C34.7719,266.2969 34.7719,266.2969 34.5844,266.3906 C34.1625,266.6563 33.475,266.7813 32.7094,266.7813 C30.6625,266.7813 29.3656,265.6875 29.3656,263.9844 L29.3656,262.8906 C29.3656,261.1094 30.6156,259.7969 32.35,259.7969 C32.9281,259.7969 33.5375,259.9531 34.0063,260.2031 C34.4906,260.4844 34.6625,260.7031 34.7563,261.1094 C34.8188,261.5156 34.85,261.6406 34.9906,261.7656 C35.1313,261.9063 35.3656,262.0156 35.5844,262.0156 C35.85,262.0156 36.1156,261.875 36.2875,261.6563 C36.3969,261.5 36.4281,261.3125 36.4281,260.8906 L36.4281,259.4688 C36.4281,259.0313 36.4125,258.9063 36.3188,258.75 C36.1625,258.4844 35.8813,258.3438 35.5844,258.3438 C35.2875,258.3438 35.0844,258.4375 34.8656,258.75 L34.6938,258.6719 Z " fill="#000000"/><text fill="#000000" font-family="sans-serif" font-size="12" lengthAdjust="spacing" textLength="33" x="48.65" y="267.1543">Slave</text><line style="stroke:#A80036;stroke-width:1.5;" x1="8" x2="94" y1="279" y2="279"/><rect fill="none" height="6" style="stroke:#C82930;stroke-width:1.0;" width="6" x="15" y="287"/><text fill="#000000" font-family="sans-serif" font-size="11" lengthAdjust="spacing" textLength="24" x="27" y="293.2104">host</text><rect fill="none" height="6" style="stroke:#C82930;stroke-width:1.0;" width="6" x="15" y="299.8047"/><text fill="#000000" font-family="sans-serif" font-size="11" lengthAdjust="spacing" textLength="22" x="27" y="306.0151">port</text><rect fill="none" height="6" style="stroke:#C82930;stroke-width:1.0;" width="6" x="15" y="312.6094"/><text fill="#000000" font-family="sans-serif" font-size="11" lengthAdjust="spacing" textLength="45" x="27" y="318.8198">channel</text><line style="stroke:#A80036;stroke-width:1.5;" x1="8" x2="94" y1="325.4141" y2="325.4141"/><ellipse cx="18" cy="336.4141" fill="#84BE84" rx="3" ry="3" style="stroke:#038048;stroke-width:1.0;"/><text fill="#000000" font-family="sans-serif" font-size="11" lengthAdjust="spacing" textLength="32" x="27" y="339.6245">ping()</text><ellipse cx="18" cy="349.2188" fill="#84BE84" rx="3" ry="3" style="stroke:#038048;stroke-width:1.0;"/><text fill="#000000" font-family="sans-serif" font-size="11" lengthAdjust="spacing" textLength="33" x="27" y="352.4292">start()</text><ellipse cx="18" cy="362.0234" fill="#84BE84" rx="3" ry="3" style="stroke:#038048;stroke-width:1.0;"/><text fill="#000000" font-family="sans-serif" font-size="11" lengthAdjust="spacing" textLength="62" x="27" y="365.2339">shutdown()</text><ellipse cx="18" cy="374.8281" fill="#84BE84" rx="3" ry="3" style="stroke:#038048;stroke-width:1.0;"/><text fill="#000000" font-family="sans-serif" font-size="11" lengthAdjust="spacing" textLength="28" x="27" y="378.0386">join()</text><!--MD5=[ad510ca42d1a057b37ac2813b8ee5b40]
class Connection--><rect codeLine="25" fill="#FEFECE" filter="url(#fe2xc3qa8xsju)" height="112.0234" id="Connection" style="stroke:#A80036;stroke-width:1.5;" width="99" x="313.5" y="260"/><ellipse cx="328.5" cy="276" fill="#ADD1B2" rx="11" ry="11" style="stroke:#A80036;stroke-width:1.0;"/><path d="M330.8438,271.6719 C329.9063,271.2344 329.3125,271.0938 328.4375,271.0938 C325.8125,271.0938 323.8125,273.1719 323.8125,275.8906 L323.8125,277.0156 C323.8125,279.5938 325.9219,281.4844 328.8125,281.4844 C330.0313,281.4844 331.1875,281.1875 331.9375,280.6406 C332.5156,280.2344 332.8438,279.7813 332.8438,279.3906 C332.8438,278.9375 332.4531,278.5469 331.9844,278.5469 C331.7656,278.5469 331.5625,278.625 331.375,278.8125 C330.9219,279.2969 330.9219,279.2969 330.7344,279.3906 C330.3125,279.6563 329.625,279.7813 328.8594,279.7813 C326.8125,279.7813 325.5156,278.6875 325.5156,276.9844 L325.5156,275.8906 C325.5156,274.1094 326.7656,272.7969 328.5,272.7969 C329.0781,272.7969 329.6875,272.9531 330.1563,273.2031 C330.6406,273.4844 330.8125,273.7031 330.9063,274.1094 C330.9688,274.5156 331,274.6406 331.1406,274.7656 C331.2813,274.9063 331.5156,275.0156 331.7344,275.0156 C332,275.0156 332.2656,274.875 332.4375,274.6563 C332.5469,274.5 332.5781,274.3125 332.5781,273.8906 L332.5781,272.4688 C332.5781,272.0313 332.5625,271.9063 332.4688,271.75 C332.3125,271.4844 332.0313,271.3438 331.7344,271.3438 C331.4375,271.3438 331.2344,271.4375 331.0156,271.75 L330.8438,271.6719 Z " fill="#000000"/><text fill="#000000" font-family="sans-serif" font-size="12" lengthAdjust="spacing" textLength="67" x="342.5" y="280.1543">Connection</text><line style="stroke:#A80036;stroke-width:1.5;" x1="314.5" x2="411.5" y1="292" y2="292"/><rect fill="none" height="6" style="stroke:#C82930;stroke-width:1.0;" width="6" x="321.5" y="300"/><text fill="#000000" font-family="sans-serif" font-size="11" lengthAdjust="spacing" textLength="32" x="333.5" y="306.2104">token</text><rect fill="none" height="6" style="stroke:#C82930;stroke-width:1.0;" width="6" x="321.5" y="312.8047"/><text fill="#000000" font-family="sans-serif" font-size="11" lengthAdjust="spacing" textLength="29" x="333.5" y="319.0151">tasks</text><line style="stroke:#A80036;stroke-width:1.5;" x1="314.5" x2="411.5" y1="325.6094" y2="325.6094"/><ellipse cx="324.5" cy="336.6094" fill="#84BE84" rx="3" ry="3" style="stroke:#038048;stroke-width:1.0;"/><text fill="#000000" font-family="sans-serif" font-size="11" lengthAdjust="spacing" textLength="53" x="333.5" y="339.8198">connect()</text><ellipse cx="324.5" cy="349.4141" fill="#84BE84" rx="3" ry="3" style="stroke:#038048;stroke-width:1.0;"/><text fill="#000000" font-family="sans-serif" font-size="11" lengthAdjust="spacing" textLength="69" x="333.5" y="352.6245">disconnect()</text><ellipse cx="324.5" cy="362.2188" fill="#84BE84" rx="3" ry="3" style="stroke:#038048;stroke-width:1.0;"/><text fill="#000000" font-family="sans-serif" font-size="11" lengthAdjust="spacing" textLength="61" x="333.5" y="365.4292">new_task()</text><!--MD5=[b34797a66dc35cbf1d65f7e3ca75530e]
class Task--><rect codeLine="34" fill="#FEFECE" filter="url(#fe2xc3qa8xsju)" height="150.4375" id="Task" style="stroke:#A80036;stroke-width:1.5;" width="153" x="286.5" y="462"/><ellipse cx="344.75" cy="478" fill="#ADD1B2" rx="11" ry="11" style="stroke:#A80036;stroke-width:1.0;"/><path d="M347.0938,473.6719 C346.1563,473.2344 345.5625,473.0938 344.6875,473.0938 C342.0625,473.0938 340.0625,475.1719 340.0625,477.8906 L340.0625,479.0156 C340.0625,481.5938 342.1719,483.4844 345.0625,483.4844 C346.2813,483.4844 347.4375,483.1875 348.1875,482.6406 C348.7656,482.2344 349.0938,481.7813 349.0938,481.3906 C349.0938,480.9375 348.7031,480.5469 348.2344,480.5469 C348.0156,480.5469 347.8125,480.625 347.625,480.8125 C347.1719,481.2969 347.1719,481.2969 346.9844,481.3906 C346.5625,481.6563 345.875,481.7813 345.1094,481.7813 C343.0625,481.7813 341.7656,480.6875 341.7656,478.9844 L341.7656,477.8906 C341.7656,476.1094 343.0156,474.7969 344.75,474.7969 C345.3281,474.7969 345.9375,474.9531 346.4063,475.2031 C346.8906,475.4844 347.0625,475.7031 347.1563,476.1094 C347.2188,476.5156 347.25,476.6406 347.3906,476.7656 C347.5313,476.9063 347.7656,477.0156 347.9844,477.0156 C348.25,477.0156 348.5156,476.875 348.6875,476.6563 C348.7969,476.5 348.8281,476.3125 348.8281,475.8906 L348.8281,474.4688 C348.8281,474.0313 348.8125,473.9063 348.7188,473.75 C348.5625,473.4844 348.2813,473.3438 347.9844,473.3438 C347.6875,473.3438 347.4844,473.4375 347.2656,473.75 L347.0938,473.6719 Z " fill="#000000"/><text fill="#000000" font-family="sans-serif" font-size="12" lengthAdjust="spacing" textLength="28" x="365.25" y="482.1543">Task</text><line style="stroke:#A80036;stroke-width:1.5;" x1="287.5" x2="438.5" y1="494" y2="494"/><rect fill="none" height="6" style="stroke:#C82930;stroke-width:1.0;" width="6" x="294.5" y="502"/><text fill="#000000" font-family="sans-serif" font-size="11" lengthAdjust="spacing" textLength="39" x="306.5" y="508.2104">task_id</text><rect fill="none" height="6" style="stroke:#C82930;stroke-width:1.0;" width="6" x="294.5" y="514.8047"/><text fill="#000000" font-family="sans-serif" font-size="11" lengthAdjust="spacing" textLength="25" x="306.5" y="521.0151">data</text><rect fill="none" height="6" style="stroke:#C82930;stroke-width:1.0;" width="6" x="294.5" y="527.6094"/><text fill="#000000" font-family="sans-serif" font-size="11" lengthAdjust="spacing" textLength="34" x="306.5" y="533.8198">status</text><rect fill="none" height="6" style="stroke:#C82930;stroke-width:1.0;" width="6" x="294.5" y="540.4141"/><text fill="#000000" font-family="sans-serif" font-size="11" lengthAdjust="spacing" textLength="32" x="306.5" y="546.6245">result</text><line style="stroke:#A80036;stroke-width:1.5;" x1="287.5" x2="438.5" y1="553.2188" y2="553.2188"/><ellipse cx="297.5" cy="564.2188" fill="#84BE84" rx="3" ry="3" style="stroke:#038048;stroke-width:1.0;"/><text fill="#000000" font-family="sans-serif" font-size="11" lengthAdjust="spacing" textLength="33" x="306.5" y="567.4292">start()</text><ellipse cx="297.5" cy="577.0234" fill="#84BE84" rx="3" ry="3" style="stroke:#038048;stroke-width:1.0;"/><text fill="#000000" font-family="sans-serif" font-size="11" lengthAdjust="spacing" textLength="28" x="306.5" y="580.2339">join()</text><ellipse cx="297.5" cy="589.8281" fill="#84BE84" rx="3" ry="3" style="stroke:#038048;stroke-width:1.0;"/><text fill="#000000" font-family="sans-serif" font-size="11" lengthAdjust="spacing" textLength="127" x="306.5" y="593.0386">on_complete(callback)</text><ellipse cx="297.5" cy="602.6328" fill="#84BE84" rx="3" ry="3" style="stroke:#038048;stroke-width:1.0;"/><text fill="#000000" font-family="sans-serif" font-size="11" lengthAdjust="spacing" textLength="90" x="306.5" y="605.8433">on_fail(callback)</text><!--MD5=[146dd481235fc1b7fbbfa4006f4d41b9]
link Master to Slave--><path codeLine="13" d="M79.6973,159.363 C67.0316,171.282 55.943,184.807 48,200 C41.407,212.611 38.7164,227.11 38.2665,241.47 " fill="none" id="Master-to-Slave" style="stroke:#A80036;stroke-width:1.0;"/><polygon fill="#A80036" points="38.1991,246.75,42.3145,237.8022,38.2634,241.7504,34.3151,237.6993,38.1991,246.75" style="stroke:#A80036;stroke-width:1.0;"/><text fill="#000000" font-family="sans-serif" font-size="13" lengthAdjust="spacing" textLength="270" x="49" y="213.0669">Connect to slave, new connection created</text><!--MD5=[2eede74ddb53b58f4e1698c43f4edde8]
reverse link Master to Connection--><path codeLine="32" d="M309.582,180.066 C314.781,186.546 319.643,193.21 324,200 C335.612,218.099 344.163,240.032 350.247,259.87 " fill="none" id="Master-backto-Connection" style="stroke:#A80036;stroke-width:1.0;"/><polygon fill="#FFFFFF" points="301.161,170.042,301.9584,177.2089,308.8806,179.2293,308.0833,172.0625,301.161,170.042" style="stroke:#A80036;stroke-width:1.0;"/><text fill="#000000" font-family="sans-serif" font-size="13" lengthAdjust="spacing" textLength="266" x="334" y="213.0669">Master clients have plenty of connections</text><text fill="#000000" font-family="sans-serif" font-size="13" lengthAdjust="spacing" textLength="8" x="301.4727" y="190.3124">1</text><text fill="#000000" font-family="sans-serif" font-size="13" lengthAdjust="spacing" textLength="23" x="324.1396" y="248.7913">0..*</text><!--MD5=[35fe452096804484fccc5cbb42ca3e55]
reverse link Connection to Task--><path codeLine="44" d="M363,385.372 C363,409.617 363,437.009 363,461.723 " fill="none" id="Connection-backto-Task" style="stroke:#A80036;stroke-width:1.0;"/><polygon fill="#FFFFFF" points="363,372.263,359,378.263,363,384.263,367,378.263,363,372.263" style="stroke:#A80036;stroke-width:1.0;"/><text fill="#000000" font-family="sans-serif" font-size="13" lengthAdjust="spacing" textLength="214" x="364" y="428.0669">Connections have plenty of tasks</text><text fill="#000000" font-family="sans-serif" font-size="13" lengthAdjust="spacing" textLength="8" x="354.5125" y="392.1077">1</text><text fill="#000000" font-family="sans-serif" font-size="13" lengthAdjust="spacing" textLength="23" x="338.9039" y="450.8857">0..*</text><!--MD5=[1bff201a8a4503be9b89c157300fab82]
@startuml
class Master {
    - host
    - port
    - channel
    - my_address
    + ping()
    + new_connection(name, host, port, https)
    + start()
    + shutdown()
    + join()
}

Master - -> Slave : Connect to slave, new connection created

class Slave {
    - host
    - port
    - channel
    + ping()
    + start()
    + shutdown()
    + join()
}

class Connection {
    - token
    - tasks
    + connect()
    + disconnect()
    + new_task()
}
Master "1" o- - "0..*" Connection : Master clients have plenty of connections

class Task {
    - task_id
    - data
    - status
    - result
    + start()
    + join()
    + on_complete(callback)
    + on_fail(callback)
}
Connection "1" o- - "0..*" Task : Connections have plenty of tasks
@enduml

PlantUML version 1.2021.10(Mon Aug 30 13:43:48 UTC 2021)
(GPL source distribution)
Java Runtime: Java(TM) SE Runtime Environment
JVM: Java HotSpot(TM) 64-Bit Server VM
Default Encoding: UTF-8
Language: en
Country: US
--></g></svg>