<?xml version="1.0" encoding="UTF-8" standalone="no"?><svg xmlns="http://www.w3.org/2000/svg" xmlns:xlink="http://www.w3.org/1999/xlink" contentStyleType="text/css" height="495px" preserveAspectRatio="none" style="width:412px;height:495px;background:#FFFFFF;" version="1.1" viewBox="0 0 412 495" width="412px" zoomAndPan="magnify"><defs/><g><rect fill="#F1F1F1" height="33.9688" rx="12.5" ry="12.5" style="stroke:#181818;stroke-width:0.5;" width="139" x="112" y="11"/><text fill="#000000" font-family="sans-serif" font-size="12" lengthAdjust="spacing" textLength="119" x="122" y="32.1387">Get the input dict D.</text><rect fill="#F1F1F1" height="33.9688" rx="12.5" ry="12.5" style="stroke:#181818;stroke-width:0.5;" width="162" x="100.5" y="64.9688"/><text fill="#000000" font-family="sans-serif" font-size="12" lengthAdjust="spacing" textLength="142" x="110.5" y="86.1074">Get value a from dict D.</text><rect fill="#F1F1F1" height="33.9688" rx="12.5" ry="12.5" style="stroke:#181818;stroke-width:0.5;" width="95" x="134" y="118.9375"/><text fill="#000000" font-family="sans-serif" font-size="12" lengthAdjust="spacing" textLength="75" x="144" y="140.0762">Set a1 as -a.</text><rect fill="#F1F1F1" height="33.9688" rx="12.5" ry="12.5" style="stroke:#181818;stroke-width:0.5;" width="163" x="100" y="172.9063"/><text fill="#000000" font-family="sans-serif" font-size="12" lengthAdjust="spacing" textLength="143" x="110" y="194.0449">Get value b from dict D.</text><rect fill="#F1F1F1" height="33.9688" rx="12.5" ry="12.5" style="stroke:#181818;stroke-width:0.5;" width="161" x="101" y="226.875"/><text fill="#000000" font-family="sans-serif" font-size="12" lengthAdjust="spacing" textLength="141" x="111" y="248.0137">Get value c from dict C.</text><polygon fill="#F1F1F1" points="104,280.8438,259,280.8438,271,292.8438,259,304.8438,104,304.8438,92,292.8438,104,280.8438" style="stroke:#181818;stroke-width:0.5;"/><text fill="#000000" font-family="sans-serif" font-size="11" lengthAdjust="spacing" textLength="155" x="104" y="296.6519">Value a1 is no less than 0?</text><text fill="#000000" font-family="sans-serif" font-size="11" lengthAdjust="spacing" textLength="24" x="68" y="290.2495">Yes.</text><text fill="#000000" font-family="sans-serif" font-size="11" lengthAdjust="spacing" textLength="18" x="271" y="290.2495">No.</text><rect fill="#F1F1F1" height="33.9688" rx="12.5" ry="12.5" style="stroke:#181818;stroke-width:0.5;" width="136" x="11" y="314.8438"/><text fill="#000000" font-family="sans-serif" font-size="12" lengthAdjust="spacing" textLength="116" x="21" y="335.9824">Set r as a1 + b * c.</text><rect fill="#F1F1F1" height="33.9688" rx="12.5" ry="12.5" style="stroke:#181818;stroke-width:0.5;" width="234" x="167" y="314.8438"/><text fill="#000000" font-family="sans-serif" font-size="12" lengthAdjust="spacing" textLength="88" x="177" y="335.9824">a1 less than 0,</text><text fill="#000000" font-family="sans-serif" font-size="12" font-weight="bold" lengthAdjust="spacing" textLength="119" x="269" y="335.9824">raise ValueError</text><text fill="#000000" font-family="sans-serif" font-size="12" lengthAdjust="spacing" textLength="3" x="388" y="335.9824">.</text><ellipse cx="284" cy="378.8125" rx="10" ry="10" style="stroke:#222222;stroke-width:1.5;fill:none;"/><line style="stroke:#222222;stroke-width:2.5;fill:none;" x1="277.8128" x2="290.1872" y1="372.6253" y2="384.9997"/><line style="stroke:#222222;stroke-width:2.5;fill:none;" x1="290.1872" x2="277.8128" y1="372.6253" y2="384.9997"/><rect fill="#F1F1F1" height="33.9688" rx="12.5" ry="12.5" style="stroke:#181818;stroke-width:0.5;" width="154" x="104.5" y="408.8125"/><text fill="#000000" font-family="sans-serif" font-size="12" font-weight="bold" lengthAdjust="spacing" textLength="134" x="114.5" y="429.9512">Return r as result.</text><ellipse cx="181.5" cy="473.7813" rx="11" ry="11" style="stroke:#222222;stroke-width:1.0;fill:none;"/><ellipse cx="181.5" cy="473.7813" fill="#222222" rx="6" ry="6" style="stroke:#111111;stroke-width:1.0;"/><line style="stroke:#181818;stroke-width:1.0;" x1="181.5" x2="181.5" y1="44.9688" y2="64.9688"/><polygon fill="#181818" points="177.5,54.9688,181.5,64.9688,185.5,54.9688,181.5,58.9688" style="stroke:#181818;stroke-width:1.0;"/><line style="stroke:#181818;stroke-width:1.0;" x1="181.5" x2="181.5" y1="98.9375" y2="118.9375"/><polygon fill="#181818" points="177.5,108.9375,181.5,118.9375,185.5,108.9375,181.5,112.9375" style="stroke:#181818;stroke-width:1.0;"/><line style="stroke:#181818;stroke-width:1.0;" x1="181.5" x2="181.5" y1="152.9063" y2="172.9063"/><polygon fill="#181818" points="177.5,162.9063,181.5,172.9063,185.5,162.9063,181.5,166.9063" style="stroke:#181818;stroke-width:1.0;"/><line style="stroke:#181818;stroke-width:1.0;" x1="181.5" x2="181.5" y1="206.875" y2="226.875"/><polygon fill="#181818" points="177.5,216.875,181.5,226.875,185.5,216.875,181.5,220.875" style="stroke:#181818;stroke-width:1.0;"/><line style="stroke:#181818;stroke-width:1.0;" x1="284" x2="284" y1="348.8125" y2="368.8125"/><polygon fill="#181818" points="280,358.8125,284,368.8125,288,358.8125,284,362.8125" style="stroke:#181818;stroke-width:1.0;"/><line style="stroke:#181818;stroke-width:1.0;" x1="92" x2="79" y1="292.8438" y2="292.8438"/><line style="stroke:#181818;stroke-width:1.0;" x1="79" x2="79" y1="292.8438" y2="314.8438"/><polygon fill="#181818" points="75,304.8438,79,314.8438,83,304.8438,79,308.8438" style="stroke:#181818;stroke-width:1.0;"/><line style="stroke:#181818;stroke-width:1.0;" x1="271" x2="284" y1="292.8438" y2="292.8438"/><line style="stroke:#181818;stroke-width:1.0;" x1="284" x2="284" y1="292.8438" y2="314.8438"/><polygon fill="#181818" points="280,304.8438,284,314.8438,288,304.8438,284,308.8438" style="stroke:#181818;stroke-width:1.0;"/><line style="stroke:#181818;stroke-width:1.0;" x1="79" x2="79" y1="348.8125" y2="393.8125"/><line style="stroke:#181818;stroke-width:1.0;" x1="79" x2="181.5" y1="393.8125" y2="393.8125"/><line style="stroke:#181818;stroke-width:1.0;" x1="181.5" x2="181.5" y1="393.8125" y2="408.8125"/><polygon fill="#181818" points="177.5,398.8125,181.5,408.8125,185.5,398.8125,181.5,402.8125" style="stroke:#181818;stroke-width:1.0;"/><line style="stroke:#181818;stroke-width:1.0;" x1="181.5" x2="181.5" y1="260.8438" y2="280.8438"/><polygon fill="#181818" points="177.5,270.8438,181.5,280.8438,185.5,270.8438,181.5,274.8438" style="stroke:#181818;stroke-width:1.0;"/><line style="stroke:#181818;stroke-width:1.0;" x1="181.5" x2="181.5" y1="442.7813" y2="462.7813"/><polygon fill="#181818" points="177.5,452.7813,181.5,462.7813,185.5,452.7813,181.5,456.7813" style="stroke:#181818;stroke-width:1.0;"/><!--MD5=[a42685086d93de725f7ceb0d604400c8]
@startuml
:Get the input dict D.;

:Get value a from dict D.;
:Set a1 as -a.;

:Get value b from dict D.;
:Get value c from dict C.;

if (Value a1 is no less than 0?) then (Yes.)
    :Set r as a1 + b * c.;
else (No.)
    :a1 less than 0, **raise ValueError**.;
    end
endif

:**Return r as result.**;

stop
@enduml

PlantUML version 1.2022.4beta2(Unknown compile time)
(GPL source distribution)
Java Runtime: Java(TM) SE Runtime Environment
JVM: Java HotSpot(TM) 64-Bit Server VM
Default Encoding: UTF-8
Language: en
Country: US
--></g></svg>