<?xml version="1.0" encoding="UTF-8" standalone="no"?><svg xmlns="http://www.w3.org/2000/svg" xmlns:xlink="http://www.w3.org/1999/xlink" contentScriptType="application/ecmascript" contentStyleType="text/css" height="291px" preserveAspectRatio="none" style="width:625px;height:291px;background:#FFFFFF;" version="1.1" viewBox="0 0 625 291" width="625px" zoomAndPan="magnify"><defs><filter height="300%" id="fkmp0nybns6sj" width="300%" x="-1" y="-1"><feGaussianBlur result="blurOut" stdDeviation="2.0"/><feColorMatrix in="blurOut" result="blurOut2" type="matrix" values="0 0 0 0 0 0 0 0 0 0 0 0 0 0 0 0 0 0 .4 0"/><feOffset dx="4.0" dy="4.0" in="blurOut2" result="blurOut3"/><feBlend in="SourceGraphic" in2="blurOut3" mode="normal"/></filter></defs><g><ellipse cx="271.75" cy="20" fill="#000000" filter="url(#fkmp0nybns6sj)" rx="10" ry="10" style="stroke:none;stroke-width:1.0;"/><rect fill="#FEFECE" filter="url(#fkmp0nybns6sj)" height="33.9688" rx="12.5" ry="12.5" style="stroke:#A80036;stroke-width:1.5;" width="147" x="198.25" y="50"/><text fill="#000000" font-family="sans-serif" font-size="12" lengthAdjust="spacing" textLength="127" x="208.25" y="71.1387">Get the input value x.</text><polygon fill="#FEFECE" filter="url(#fkmp0nybns6sj)" points="211.75,103.9688,331.75,103.9688,343.75,115.9688,331.75,127.9688,211.75,127.9688,199.75,115.9688,211.75,103.9688" style="stroke:#A80036;stroke-width:1.5;"/><text fill="#000000" font-family="sans-serif" font-size="11" lengthAdjust="spacing" textLength="120" x="211.75" y="119.7769">Value x's type is int?</text><text fill="#000000" font-family="sans-serif" font-size="11" lengthAdjust="spacing" textLength="24" x="175.75" y="113.3745">Yes.</text><text fill="#000000" font-family="sans-serif" font-size="11" lengthAdjust="spacing" textLength="18" x="343.75" y="113.3745">No.</text><rect fill="#FEFECE" filter="url(#fkmp0nybns6sj)" height="33.9688" rx="12.5" ry="12.5" style="stroke:#A80036;stroke-width:1.5;" width="197" x="11" y="137.9688"/><text fill="#000000" font-family="sans-serif" font-size="12" font-weight="bold" lengthAdjust="spacing" textLength="174" x="21" y="159.1074">Return value x as result</text><text fill="#000000" font-family="sans-serif" font-size="12" lengthAdjust="spacing" textLength="3" x="195" y="159.1074">.</text><ellipse cx="109.5" cy="217.9375" fill="#FFFFFF" filter="url(#fkmp0nybns6sj)" rx="11" ry="11" style="stroke:#000000;stroke-width:1.0;"/><ellipse cx="109.5" cy="217.9375" fill="#000000" rx="6" ry="6" style="stroke:#7F7F7F;stroke-width:1.0;"/><polygon fill="#FEFECE" filter="url(#fkmp0nybns6sj)" points="368.5,137.9688,499.5,137.9688,511.5,149.9688,499.5,161.9688,368.5,161.9688,356.5,149.9688,368.5,137.9688" style="stroke:#A80036;stroke-width:1.5;"/><text fill="#000000" font-family="sans-serif" font-size="11" lengthAdjust="spacing" textLength="131" x="368.5" y="153.7769">Value x's type is float?</text><text fill="#000000" font-family="sans-serif" font-size="11" lengthAdjust="spacing" textLength="24" x="332.5" y="147.3745">Yes.</text><text fill="#000000" font-family="sans-serif" font-size="11" lengthAdjust="spacing" textLength="18" x="511.5" y="147.3745">No.</text><rect fill="#FEFECE" filter="url(#fkmp0nybns6sj)" height="33.9688" rx="12.5" ry="12.5" style="stroke:#A80036;stroke-width:1.5;" width="197" x="238" y="171.9688"/><text fill="#000000" font-family="sans-serif" font-size="12" font-weight="bold" lengthAdjust="spacing" textLength="174" x="248" y="193.1074">Return value x as result</text><text fill="#000000" font-family="sans-serif" font-size="12" lengthAdjust="spacing" textLength="3" x="422" y="193.1074">.</text><ellipse cx="336.5" cy="251.9375" fill="#FFFFFF" filter="url(#fkmp0nybns6sj)" rx="11" ry="11" style="stroke:#000000;stroke-width:1.0;"/><ellipse cx="336.5" cy="251.9375" fill="#000000" rx="6" ry="6" style="stroke:#7F7F7F;stroke-width:1.0;"/><rect fill="#FEFECE" filter="url(#fkmp0nybns6sj)" height="47.9375" rx="12.5" ry="12.5" style="stroke:#A80036;stroke-width:1.5;" width="153" x="455" y="171.9688"/><text fill="#000000" font-family="sans-serif" font-size="12" lengthAdjust="spacing" textLength="129" x="465" y="193.1074">The value x is invalid,</text><text fill="#000000" font-family="sans-serif" font-size="12" font-weight="bold" lengthAdjust="spacing" textLength="115" x="465" y="207.0762">raise TypeError</text><text fill="#000000" font-family="sans-serif" font-size="12" lengthAdjust="spacing" textLength="3" x="580" y="207.0762">.</text><ellipse cx="531.5" cy="264.9063" fill="#FFFFFF" filter="url(#fkmp0nybns6sj)" rx="10" ry="10" style="stroke:#000000;stroke-width:1.5;"/><line style="stroke:#000000;stroke-width:2.5;" x1="525.3128" x2="537.6872" y1="258.7191" y2="271.0934"/><line style="stroke:#000000;stroke-width:2.5;" x1="537.6872" x2="525.3128" y1="258.7191" y2="271.0934"/><line style="stroke:#A80036;stroke-width:1.5;" x1="271.75" x2="271.75" y1="30" y2="50"/><polygon fill="#A80036" points="267.75,40,271.75,50,275.75,40,271.75,44" style="stroke:#A80036;stroke-width:1.0;"/><line style="stroke:#A80036;stroke-width:1.5;" x1="109.5" x2="109.5" y1="171.9375" y2="206.9375"/><polygon fill="#A80036" points="105.5,196.9375,109.5,206.9375,113.5,196.9375,109.5,200.9375" style="stroke:#A80036;stroke-width:1.0;"/><line style="stroke:#A80036;stroke-width:1.5;" x1="336.5" x2="336.5" y1="205.9375" y2="240.9375"/><polygon fill="#A80036" points="332.5,230.9375,336.5,240.9375,340.5,230.9375,336.5,234.9375" style="stroke:#A80036;stroke-width:1.0;"/><line style="stroke:#A80036;stroke-width:1.5;" x1="531.5" x2="531.5" y1="219.9063" y2="254.9063"/><polygon fill="#A80036" points="527.5,244.9063,531.5,254.9063,535.5,244.9063,531.5,248.9063" style="stroke:#A80036;stroke-width:1.0;"/><line style="stroke:#A80036;stroke-width:1.5;" x1="356.5" x2="336.5" y1="149.9688" y2="149.9688"/><line style="stroke:#A80036;stroke-width:1.5;" x1="336.5" x2="336.5" y1="149.9688" y2="171.9688"/><polygon fill="#A80036" points="332.5,161.9688,336.5,171.9688,340.5,161.9688,336.5,165.9688" style="stroke:#A80036;stroke-width:1.0;"/><line style="stroke:#A80036;stroke-width:1.5;" x1="511.5" x2="531.5" y1="149.9688" y2="149.9688"/><line style="stroke:#A80036;stroke-width:1.5;" x1="531.5" x2="531.5" y1="149.9688" y2="171.9688"/><polygon fill="#A80036" points="527.5,161.9688,531.5,171.9688,535.5,161.9688,531.5,165.9688" style="stroke:#A80036;stroke-width:1.0;"/><line style="stroke:#A80036;stroke-width:1.5;" x1="199.75" x2="109.5" y1="115.9688" y2="115.9688"/><line style="stroke:#A80036;stroke-width:1.5;" x1="109.5" x2="109.5" y1="115.9688" y2="137.9688"/><polygon fill="#A80036" points="105.5,127.9688,109.5,137.9688,113.5,127.9688,109.5,131.9688" style="stroke:#A80036;stroke-width:1.0;"/><line style="stroke:#A80036;stroke-width:1.5;" x1="343.75" x2="434" y1="115.9688" y2="115.9688"/><line style="stroke:#A80036;stroke-width:1.5;" x1="434" x2="434" y1="115.9688" y2="137.9688"/><polygon fill="#A80036" points="430,127.9688,434,137.9688,438,127.9688,434,131.9688" style="stroke:#A80036;stroke-width:1.0;"/><line style="stroke:#A80036;stroke-width:1.5;" x1="271.75" x2="271.75" y1="83.9688" y2="103.9688"/><polygon fill="#A80036" points="267.75,93.9688,271.75,103.9688,275.75,93.9688,271.75,97.9688" style="stroke:#A80036;stroke-width:1.0;"/><!--MD5=[03b416ef6df09e4750f8e4aa56f9dda0]
@startuml
start

:Get the input value x.;

if (Value x's type is int?) then (Yes.)
    :**Return value x as result**.;
    stop
else (No.)
    if (Value x's type is float?) then (Yes.)
        :**Return value x as result**.;
        stop
    else (No.)
        :The value x is invalid, \n**raise TypeError**.;
        end
    endif
endif
@enduml

PlantUML version 1.2021.10(Mon Aug 30 13:43:48 UTC 2021)
(GPL source distribution)
Java Runtime: Java(TM) SE Runtime Environment
JVM: Java HotSpot(TM) 64-Bit Server VM
Default Encoding: UTF-8
Language: en
Country: US
--></g></svg>