<?xml version="1.0" encoding="UTF-8" standalone="no"?><svg xmlns="http://www.w3.org/2000/svg" xmlns:xlink="http://www.w3.org/1999/xlink" contentStyleType="text/css" height="470px" preserveAspectRatio="none" style="width:364px;height:470px;background:#FFFFFF;" version="1.1" viewBox="0 0 364 470" width="364px" zoomAndPan="magnify"><defs/><g><ellipse cx="169.5" cy="20" fill="#222222" rx="10" ry="10" style="stroke:#222222;stroke-width:1.0;"/><rect fill="#F1F1F1" height="33.9688" rx="12.5" ry="12.5" style="stroke:#181818;stroke-width:0.5;" width="147" x="96" y="50"/><text fill="#000000" font-family="sans-serif" font-size="12" lengthAdjust="spacing" textLength="127" x="106" y="71.1387">Get the input value x.</text><rect fill="#F1F1F1" height="33.9688" rx="12.5" ry="12.5" style="stroke:#181818;stroke-width:0.5;" width="115" x="112" y="103.9688"/><text fill="#000000" font-family="sans-serif" font-size="12" lengthAdjust="spacing" textLength="95" x="122" y="125.1074">Set x1 as x + 1.</text><rect fill="#F1F1F1" height="33.9688" rx="12.5" ry="12.5" style="stroke:#181818;stroke-width:0.5;" width="118" x="110.5" y="157.9375"/><text fill="#000000" font-family="sans-serif" font-size="12" lengthAdjust="spacing" textLength="98" x="120.5" y="179.0762">Set x2 as x1 * 2</text><rect fill="#F1F1F1" height="33.9688" rx="12.5" ry="12.5" style="stroke:#181818;stroke-width:0.5;" width="317" x="11" y="260.3086"/><text fill="#000000" font-family="sans-serif" font-size="12" lengthAdjust="spacing" textLength="171" x="21" y="281.4473">The value x2 is not in range,</text><text fill="#000000" font-family="sans-serif" font-size="12" font-weight="bold" lengthAdjust="spacing" textLength="119" x="196" y="281.4473">raise ValueError</text><text fill="#000000" font-family="sans-serif" font-size="12" lengthAdjust="spacing" textLength="3" x="315" y="281.4473">.</text><ellipse cx="169.5" cy="331.793" rx="10" ry="10" style="stroke:#222222;stroke-width:1.5;fill:none;"/><line style="stroke:#222222;stroke-width:2.5;fill:none;" x1="163.3128" x2="175.6872" y1="325.6058" y2="337.9802"/><line style="stroke:#222222;stroke-width:2.5;fill:none;" x1="175.6872" x2="163.3128" y1="325.6058" y2="337.9802"/><polygon fill="#F1F1F1" points="81,211.9063,258,211.9063,270,223.9063,258,235.9063,81,235.9063,69,223.9063,81,211.9063" style="stroke:#181818;stroke-width:0.5;"/><text fill="#000000" font-family="sans-serif" font-size="11" lengthAdjust="spacing" textLength="18" x="173.5" y="246.1167">No.</text><text fill="#000000" font-family="sans-serif" font-size="11" lengthAdjust="spacing" textLength="177" x="81" y="227.7144">Value x2's type is from 0 to 10</text><text fill="#000000" font-family="sans-serif" font-size="11" lengthAdjust="spacing" textLength="24" x="270" y="221.312">Yes.</text><rect fill="#F1F1F1" height="33.9688" rx="12.5" ry="12.5" style="stroke:#181818;stroke-width:0.5;" width="205" x="67" y="383.793"/><text fill="#000000" font-family="sans-serif" font-size="12" font-weight="bold" lengthAdjust="spacing" textLength="182" x="77" y="404.9316">Return value x2 as result</text><text fill="#000000" font-family="sans-serif" font-size="12" lengthAdjust="spacing" textLength="3" x="259" y="404.9316">.</text><ellipse cx="169.5" cy="448.7617" rx="11" ry="11" style="stroke:#222222;stroke-width:1.0;fill:none;"/><ellipse cx="169.5" cy="448.7617" fill="#222222" rx="6" ry="6" style="stroke:#111111;stroke-width:1.0;"/><line style="stroke:#181818;stroke-width:1.0;" x1="169.5" x2="169.5" y1="30" y2="50"/><polygon fill="#181818" points="165.5,40,169.5,50,173.5,40,169.5,44" style="stroke:#181818;stroke-width:1.0;"/><line style="stroke:#181818;stroke-width:1.0;" x1="169.5" x2="169.5" y1="83.9688" y2="103.9688"/><polygon fill="#181818" points="165.5,93.9688,169.5,103.9688,173.5,93.9688,169.5,97.9688" style="stroke:#181818;stroke-width:1.0;"/><line style="stroke:#181818;stroke-width:1.0;" x1="169.5" x2="169.5" y1="137.9375" y2="157.9375"/><polygon fill="#181818" points="165.5,147.9375,169.5,157.9375,173.5,147.9375,169.5,151.9375" style="stroke:#181818;stroke-width:1.0;"/><line style="stroke:#181818;stroke-width:1.0;" x1="169.5" x2="169.5" y1="294.2773" y2="321.793"/><polygon fill="#181818" points="165.5,311.793,169.5,321.793,173.5,311.793,169.5,315.793" style="stroke:#181818;stroke-width:1.0;"/><line style="stroke:#181818;stroke-width:1.0;" x1="169.5" x2="169.5" y1="235.9063" y2="260.3086"/><polygon fill="#181818" points="165.5,250.3086,169.5,260.3086,173.5,250.3086,169.5,254.3086" style="stroke:#181818;stroke-width:1.0;"/><line style="stroke:#181818;stroke-width:1.0;" x1="270" x2="338" y1="223.9063" y2="223.9063"/><polygon fill="#181818" points="334,291.793,338,301.793,342,291.793,338,295.793" style="stroke:#181818;stroke-width:1.0;"/><line style="stroke:#181818;stroke-width:1.0;" x1="338" x2="338" y1="223.9063" y2="363.793"/><line style="stroke:#181818;stroke-width:1.0;" x1="338" x2="169.5" y1="363.793" y2="363.793"/><line style="stroke:#181818;stroke-width:1.0;" x1="169.5" x2="169.5" y1="363.793" y2="383.793"/><polygon fill="#181818" points="165.5,373.793,169.5,383.793,173.5,373.793,169.5,377.793" style="stroke:#181818;stroke-width:1.0;"/><line style="stroke:#181818;stroke-width:1.0;" x1="169.5" x2="169.5" y1="191.9063" y2="211.9063"/><polygon fill="#181818" points="165.5,201.9063,169.5,211.9063,173.5,201.9063,169.5,205.9063" style="stroke:#181818;stroke-width:1.0;"/><line style="stroke:#181818;stroke-width:1.0;" x1="169.5" x2="169.5" y1="417.7617" y2="437.7617"/><polygon fill="#181818" points="165.5,427.7617,169.5,437.7617,173.5,427.7617,169.5,431.7617" style="stroke:#181818;stroke-width:1.0;"/><!--MD5=[801622217dae77af7c0ceda78af5c6d6]
@startuml
start

:Get the input value x.;

:Set x1 as x + 1.;
:Set x2 as x1 * 2;

if (Value x2's type is from 0 to 10) then (Yes.)
else (No.)
    :The value x2 is not in range, **raise ValueError**.;
    end
endif

:**Return value x2 as result**.;

stop
@enduml

PlantUML version 1.2022.3beta2(Unknown compile time)
(GPL source distribution)
Java Runtime: Java(TM) SE Runtime Environment
JVM: Java HotSpot(TM) 64-Bit Server VM
Default Encoding: UTF-8
Language: en
Country: US
--></g></svg>