<?xml version="1.0" encoding="UTF-8" standalone="no"?><svg xmlns="http://www.w3.org/2000/svg" xmlns:xlink="http://www.w3.org/1999/xlink" contentStyleType="text/css" height="248px" preserveAspectRatio="none" style="width:706px;height:248px;background:#FFFFFF;" version="1.1" viewBox="0 0 706 248" width="706px" zoomAndPan="magnify"><defs/><g><rect fill="#F1F1F1" height="142.0781" rx="5" ry="5" style="stroke:#F1F1F1;stroke-width:1.5;" width="293" x="10" y="10"/><text fill="#000000" font-family="sans-serif" font-size="14" font-weight="bold" lengthAdjust="spacing" textLength="29" x="15" y="24.9951">doe</text><text fill="#000000" font-family="sans-serif" font-size="14" lengthAdjust="spacing" textLength="152" x="146" y="24.9951">a deer, a female deer</text><line style="stroke:#000000;stroke-width:1.0;" x1="141" x2="141" y1="10" y2="30.2969"/><line style="stroke:#000000;stroke-width:1.0;" x1="10" x2="303" y1="30.2969" y2="30.2969"/><text fill="#000000" font-family="sans-serif" font-size="14" font-weight="bold" lengthAdjust="spacing" textLength="26" x="15" y="45.292">ray</text><text fill="#000000" font-family="sans-serif" font-size="14" lengthAdjust="spacing" textLength="146" x="146" y="45.292">a drop of golden sun</text><line style="stroke:#000000;stroke-width:1.0;" x1="141" x2="141" y1="30.2969" y2="50.5938"/><line style="stroke:#000000;stroke-width:1.0;" x1="10" x2="303" y1="50.5938" y2="50.5938"/><text fill="#000000" font-family="sans-serif" font-size="14" font-weight="bold" lengthAdjust="spacing" textLength="15" x="15" y="65.5889">pi</text><text fill="#000000" font-family="sans-serif" font-size="14" lengthAdjust="spacing" textLength="58" x="146" y="65.5889">3.14159</text><line style="stroke:#000000;stroke-width:1.0;" x1="141" x2="141" y1="50.5938" y2="70.8906"/><line style="stroke:#000000;stroke-width:1.0;" x1="10" x2="303" y1="70.8906" y2="70.8906"/><text fill="#000000" font-family="sans-serif" font-size="14" font-weight="bold" lengthAdjust="spacing" textLength="43" x="15" y="85.8857">xmas</text><text fill="#000000" font-family="sans-serif" font-size="14" lengthAdjust="spacing" textLength="30" x="146" y="85.8857">true</text><line style="stroke:#000000;stroke-width:1.0;" x1="141" x2="141" y1="70.8906" y2="91.1875"/><rect fill="#CCFF02" height="20.2969" rx="2" ry="2" style="stroke:#CCFF02;stroke-width:1.0;" width="291" x="11.5" y="91.1875"/><line style="stroke:#000000;stroke-width:1.0;" x1="10" x2="303" y1="91.1875" y2="91.1875"/><text fill="#000000" font-family="sans-serif" font-size="14" font-weight="bold" lengthAdjust="spacing" textLength="96" x="15" y="106.1826">french-hens</text><text fill="#000000" font-family="sans-serif" font-size="14" lengthAdjust="spacing" textLength="9" x="146" y="106.1826">3</text><line style="stroke:#000000;stroke-width:1.0;" x1="141" x2="141" y1="91.1875" y2="111.4844"/><line style="stroke:#000000;stroke-width:1.0;" x1="10" x2="303" y1="111.4844" y2="111.4844"/><text fill="#000000" font-family="sans-serif" font-size="14" font-weight="bold" lengthAdjust="spacing" textLength="101" x="15" y="126.4795">calling-birds</text><text fill="#000000" font-family="sans-serif" font-size="14" lengthAdjust="spacing" textLength="12" x="146" y="126.4795">   </text><line style="stroke:#000000;stroke-width:1.0;" x1="141" x2="141" y1="111.4844" y2="131.7813"/><line style="stroke:#000000;stroke-width:1.0;" x1="10" x2="303" y1="131.7813" y2="131.7813"/><text fill="#000000" font-family="sans-serif" font-size="14" font-weight="bold" lengthAdjust="spacing" textLength="121" x="15" y="146.7764">xmas-fifth-day</text><text fill="#000000" font-family="sans-serif" font-size="14" lengthAdjust="spacing" textLength="12" x="146" y="146.7764">   </text><line style="stroke:#000000;stroke-width:1.0;" x1="141" x2="141" y1="131.7813" y2="152.0781"/><rect fill="none" height="142.0781" rx="5" ry="5" style="stroke:#000000;stroke-width:1.5;" width="293" x="10" y="10"/><rect fill="#F1F1F1" height="81.1875" rx="5" ry="5" style="stroke:#F1F1F1;stroke-width:1.5;" width="56" x="387" y="36.5"/><text fill="#000000" font-family="sans-serif" font-size="14" lengthAdjust="spacing" textLength="34" x="392" y="51.4951">huey</text><line style="stroke:#000000;stroke-width:1.0;" x1="387" x2="443" y1="56.7969" y2="56.7969"/><text fill="#000000" font-family="sans-serif" font-size="14" lengthAdjust="spacing" textLength="46" x="392" y="71.792">dewey</text><line style="stroke:#000000;stroke-width:1.0;" x1="387" x2="443" y1="77.0938" y2="77.0938"/><text fill="#000000" font-family="sans-serif" font-size="14" lengthAdjust="spacing" textLength="34" x="392" y="92.0889">louie</text><line style="stroke:#000000;stroke-width:1.0;" x1="387" x2="443" y1="97.3906" y2="97.3906"/><text fill="#000000" font-family="sans-serif" font-size="14" lengthAdjust="spacing" textLength="30" x="392" y="112.3857">fred</text><rect fill="none" height="81.1875" rx="5" ry="5" style="stroke:#000000;stroke-width:1.5;" width="56" x="387" y="36.5"/><rect fill="#F1F1F1" height="101.4844" rx="5" ry="5" style="stroke:#F1F1F1;stroke-width:1.5;" width="150" x="340" y="135.5"/><text fill="#000000" font-family="sans-serif" font-size="14" font-weight="bold" lengthAdjust="spacing" textLength="101" x="345" y="150.4951">calling-birds</text><text fill="#000000" font-family="sans-serif" font-size="14" lengthAdjust="spacing" textLength="29" x="456" y="150.4951">four</text><line style="stroke:#000000;stroke-width:1.0;" x1="451" x2="451" y1="135.5" y2="155.7969"/><line style="stroke:#000000;stroke-width:1.0;" x1="340" x2="490" y1="155.7969" y2="155.7969"/><text fill="#000000" font-family="sans-serif" font-size="14" font-weight="bold" lengthAdjust="spacing" textLength="96" x="345" y="170.792">french-hens</text><text fill="#000000" font-family="sans-serif" font-size="14" lengthAdjust="spacing" textLength="9" x="456" y="170.792">3</text><line style="stroke:#000000;stroke-width:1.0;" x1="451" x2="451" y1="155.7969" y2="176.0938"/><line style="stroke:#000000;stroke-width:1.0;" x1="340" x2="490" y1="176.0938" y2="176.0938"/><text fill="#000000" font-family="sans-serif" font-size="14" font-weight="bold" lengthAdjust="spacing" textLength="101" x="345" y="191.0889">golden-rings</text><text fill="#000000" font-family="sans-serif" font-size="14" lengthAdjust="spacing" textLength="9" x="456" y="191.0889">5</text><line style="stroke:#000000;stroke-width:1.0;" x1="451" x2="451" y1="176.0938" y2="196.3906"/><rect fill="#CCFF02" height="20.2969" rx="2" ry="2" style="stroke:#CCFF02;stroke-width:1.0;" width="148" x="341.5" y="196.3906"/><line style="stroke:#000000;stroke-width:1.0;" x1="340" x2="490" y1="196.3906" y2="196.3906"/><text fill="#000000" font-family="sans-serif" font-size="14" font-weight="bold" lengthAdjust="spacing" textLength="85" x="345" y="211.3857">partridges</text><text fill="#000000" font-family="sans-serif" font-size="14" lengthAdjust="spacing" textLength="12" x="456" y="211.3857">   </text><line style="stroke:#000000;stroke-width:1.0;" x1="451" x2="451" y1="196.3906" y2="216.6875"/><line style="stroke:#000000;stroke-width:1.0;" x1="340" x2="490" y1="216.6875" y2="216.6875"/><text fill="#000000" font-family="sans-serif" font-size="14" font-weight="bold" lengthAdjust="spacing" textLength="100" x="345" y="231.6826">turtle-doves</text><text fill="#000000" font-family="sans-serif" font-size="14" lengthAdjust="spacing" textLength="27" x="456" y="231.6826">two</text><line style="stroke:#000000;stroke-width:1.0;" x1="451" x2="451" y1="216.6875" y2="236.9844"/><rect fill="none" height="101.4844" rx="5" ry="5" style="stroke:#000000;stroke-width:1.5;" width="150" x="340" y="135.5"/><rect fill="#F1F1F1" height="40.5938" rx="5" ry="5" style="stroke:#F1F1F1;stroke-width:1.5;" width="167" x="527" y="185.5"/><text fill="#000000" font-family="sans-serif" font-size="14" font-weight="bold" lengthAdjust="spacing" textLength="47" x="532" y="200.4951">count</text><text fill="#000000" font-family="sans-serif" font-size="14" lengthAdjust="spacing" textLength="9" x="609" y="200.4951">1</text><line style="stroke:#000000;stroke-width:1.0;" x1="604" x2="604" y1="185.5" y2="205.7969"/><line style="stroke:#000000;stroke-width:1.0;" x1="527" x2="694" y1="205.7969" y2="205.7969"/><text fill="#000000" font-family="sans-serif" font-size="14" font-weight="bold" lengthAdjust="spacing" textLength="67" x="532" y="220.792">location</text><text fill="#000000" font-family="sans-serif" font-size="14" lengthAdjust="spacing" textLength="80" x="609" y="220.792">a pear tree</text><line style="stroke:#000000;stroke-width:1.0;" x1="604" x2="604" y1="205.7969" y2="226.0938"/><rect fill="none" height="40.5938" rx="5" ry="5" style="stroke:#000000;stroke-width:1.5;" width="167" x="527" y="185.5"/><path d="M291,121 L304,121 C331.0171,121 359.282,109.5065 380.462,98.268 " fill="none" style="stroke:#000000;stroke-width:1.0;stroke-dasharray:3.0,3.0;"/><path d="M381.9121,100.9148 L382.4472,97.1805 L379.012,95.6211 L387.0792,94.643 L381.9121,100.9148 " fill="#000000" style="stroke:#000000;stroke-width:1.0;"/><ellipse cx="291" cy="121" fill="#000000" rx="3" ry="3" style="stroke:#000000;stroke-width:1.0;"/><path d="M478,206 L491,206 C500.292,206 509.9922,206 519.6703,206 " fill="none" style="stroke:#000000;stroke-width:1.0;stroke-dasharray:3.0,3.0;"/><path d="M519.6703,209.0995 L521.9949,206 L519.6703,202.9005 L527.4189,206 L519.6703,209.0995 " fill="#000000" style="stroke:#000000;stroke-width:1.0;"/><ellipse cx="478" cy="206" fill="#000000" rx="3" ry="3" style="stroke:#000000;stroke-width:1.0;"/><path d="M291,142 L304,142 C313.626,142 323.4103,143.459 332.9762,145.8457 " fill="none" style="stroke:#000000;stroke-width:1.0;stroke-dasharray:3.0,3.0;"/><path d="M332.1774,148.7522 L335.1561,146.4449 L333.7751,142.9392 L340.2425,147.8429 L332.1774,148.7522 " fill="#000000" style="stroke:#000000;stroke-width:1.0;"/><ellipse cx="291" cy="142" fill="#000000" rx="3" ry="3" style="stroke:#000000;stroke-width:1.0;"/><!--MD5=[a44dbda79ec7af8fbd59f23a9988d1d8]
@startyaml
#highlight "french-hens"
#highlight "xmas-fifth-day" / "partridges"

doe: "a deer, a female deer"
ray: "a drop of golden sun"
pi: 3.14159
xmas: true
french-hens: 3
calling-birds: 
	- huey
	- dewey
	- louie
	- fred
xmas-fifth-day: 
	calling-birds: four
	french-hens: 3
	golden-rings: 5
	partridges: 
		count: 1
		location: "a pear tree"
	turtle-doves: two
@endyaml

PlantUML version 1.2022.13beta8(Unknown compile time)
(GPL source distribution)
Java Runtime: Java(TM) SE Runtime Environment
JVM: Java HotSpot(TM) 64-Bit Server VM
Default Encoding: UTF-8
Language: en
Country: US
--></g></svg>