<svg xmlns="http://www.w3.org/2000/svg" xmlns:xlink="http://www.w3.org/1999/xlink" contentStyleType="text/css" height="216px" preserveAspectRatio="none" style="width:391px;height:216px;background:#FFFFFF;" version="1.1" viewBox="0 0 391 216" width="391px" zoomAndPan="magnify"><defs/><g><!--class Foo1--><g id="elem_Foo1"><rect codeLine="1" fill="#F1F1F1" height="202.375" id="Foo1" rx="2.5" ry="2.5" style="stroke:#181818;stroke-width:0.5;" width="219" x="7" y="7.15"/><ellipse cx="94.75" cy="23.15" fill="#ADD1B2" rx="11" ry="11" style="stroke:#181818;stroke-width:1.0;"/><path d="M97.7188,28.7906 Q97.1406,29.0875 96.5,29.2281 Q95.8594,29.3844 95.1563,29.3844 Q92.6563,29.3844 91.3281,27.7437 Q90.0156,26.0875 90.0156,22.9625 Q90.0156,19.8375 91.3281,18.1812 Q92.6563,16.525 95.1563,16.525 Q95.8594,16.525 96.5,16.6812 Q97.1563,16.8375 97.7188,17.1344 L97.7188,19.8531 Q97.0938,19.275 96.5,19.0094 Q95.9063,18.7281 95.2813,18.7281 Q93.9375,18.7281 93.25,19.8062 Q92.5625,20.8687 92.5625,22.9625 Q92.5625,25.0562 93.25,26.1344 Q93.9375,27.1969 95.2813,27.1969 Q95.9063,27.1969 96.5,26.9312 Q97.0938,26.65 97.7188,26.0719 L97.7188,28.7906 Z " fill="#000000"/><text fill="#000000" font-family="sans-serif" font-size="14" lengthAdjust="spacing" textLength="35" x="115.25" y="27.9967">Foo1</text><line style="stroke:#181818;stroke-width:0.5;" x1="8" x2="225" y1="39.15" y2="39.15"/><text fill="#000000" font-family="sans-serif" font-size="14" lengthAdjust="spacing" textLength="86" x="13" y="56.1451">You can use</text><text fill="#000000" font-family="sans-serif" font-size="14" lengthAdjust="spacing" textLength="85" x="13" y="72.442">several lines</text><line style="stroke:#181818;stroke-width:1.0;stroke-dasharray:1.0,2.0;" x1="8" x2="225" y1="79.7437" y2="79.7437"/><text fill="#000000" font-family="sans-serif" font-size="14" lengthAdjust="spacing" textLength="82" x="13" y="96.7389">as you want</text><text fill="#000000" font-family="sans-serif" font-size="14" lengthAdjust="spacing" textLength="71" x="13" y="113.0357">and group</text><line style="stroke:#181818;stroke-width:1.0;" x1="8" x2="225" y1="120.3375" y2="120.3375"/><line style="stroke:#181818;stroke-width:1.0;" x1="8" x2="225" y1="122.3375" y2="122.3375"/><text fill="#000000" font-family="sans-serif" font-size="14" lengthAdjust="spacing" textLength="111" x="13" y="137.3326">things together.</text><line style="stroke:#181818;stroke-width:0.5;" x1="8" x2="225" y1="144.6344" y2="144.6344"/><text fill="#000000" font-family="sans-serif" font-size="14" lengthAdjust="spacing" textLength="207" x="13" y="161.6295">You can have as many groups</text><text fill="#000000" font-family="sans-serif" font-size="14" lengthAdjust="spacing" textLength="82" x="13" y="177.9264">as you want</text><line style="stroke:#181818;stroke-width:1.0;" x1="8" x2="225" y1="185.2281" y2="185.2281"/><text fill="#000000" font-family="sans-serif" font-size="14" lengthAdjust="spacing" textLength="83" x="13" y="202.2232">End of class</text></g><!--class User--><g id="elem_User"><rect codeLine="16" fill="#F1F1F1" height="202.6719" id="User" rx="2.5" ry="2.5" style="stroke:#181818;stroke-width:0.5;" width="123" x="261" y="7"/><ellipse cx="302.55" cy="23" fill="#ADD1B2" rx="11" ry="11" style="stroke:#181818;stroke-width:1.0;"/><path d="M305.5188,28.6406 Q304.9406,28.9375 304.3,29.0781 Q303.6594,29.2344 302.9563,29.2344 Q300.4563,29.2344 299.1281,27.5938 Q297.8156,25.9375 297.8156,22.8125 Q297.8156,19.6875 299.1281,18.0313 Q300.4563,16.375 302.9563,16.375 Q303.6594,16.375 304.3,16.5313 Q304.9563,16.6875 305.5188,16.9844 L305.5188,19.7031 Q304.8938,19.125 304.3,18.8594 Q303.7063,18.5781 303.0813,18.5781 Q301.7375,18.5781 301.05,19.6563 Q300.3625,20.7188 300.3625,22.8125 Q300.3625,24.9063 301.05,25.9844 Q301.7375,27.0469 303.0813,27.0469 Q303.7063,27.0469 304.3,26.7813 Q304.8938,26.5 305.5188,25.9219 L305.5188,28.6406 Z " fill="#000000"/><text fill="#000000" font-family="sans-serif" font-size="14" lengthAdjust="spacing" textLength="32" x="322.45" y="27.8467">User</text><line style="stroke:#181818;stroke-width:0.5;" x1="262" x2="383" y1="39" y2="39"/><ellipse cx="272" cy="72.9453" fill="#84BE84" rx="3" ry="3" style="stroke:#038048;stroke-width:1.0;"/><text fill="#000000" font-family="sans-serif" font-size="14" lengthAdjust="spacing" textLength="73" x="281" y="76.292">getName()</text><ellipse cx="272" cy="89.2422" fill="#84BE84" rx="3" ry="3" style="stroke:#038048;stroke-width:1.0;"/><text fill="#000000" font-family="sans-serif" font-size="14" lengthAdjust="spacing" textLength="90" x="281" y="92.5889">getAddress()</text><line style="stroke:#181818;stroke-width:1.0;stroke-dasharray:1.0,2.0;" x1="262" x2="275.5" y1="55.1484" y2="55.1484"/><text fill="#000000" font-family="sans-serif" font-size="14" lengthAdjust="spacing" textLength="94" x="275.5" y="59.4951">Simple Getter</text><line style="stroke:#181818;stroke-width:1.0;stroke-dasharray:1.0,2.0;" x1="369.5" x2="383" y1="55.1484" y2="55.1484"/><ellipse cx="272" cy="125.8359" fill="#84BE84" rx="3" ry="3" style="stroke:#038048;stroke-width:1.0;"/><text fill="#000000" font-family="sans-serif" font-size="14" lengthAdjust="spacing" textLength="72" x="281" y="129.1826">setName()</text><line style="stroke:#181818;stroke-width:1.0;stroke-dasharray:1.0,2.0;" x1="262" x2="280" y1="108.0391" y2="108.0391"/><text fill="#000000" font-family="sans-serif" font-size="14" lengthAdjust="spacing" textLength="85" x="280" y="112.3857">Some setter</text><line style="stroke:#181818;stroke-width:1.0;stroke-dasharray:1.0,2.0;" x1="365" x2="383" y1="108.0391" y2="108.0391"/><text fill="#000000" font-family="sans-serif" font-size="14" lengthAdjust="spacing" textLength="47" x="267" y="165.7764">int age</text><line style="stroke:#181818;stroke-width:0.5;" x1="262" x2="282.5" y1="144.6328" y2="144.6328"/><text fill="#000000" font-family="sans-serif" font-size="14" lengthAdjust="spacing" textLength="80" x="282.5" y="148.9795">private data</text><line style="stroke:#181818;stroke-width:0.5;" x1="362.5" x2="383" y1="144.6328" y2="144.6328"/><text fill="#000000" font-family="sans-serif" font-size="14" lengthAdjust="spacing" textLength="111" x="267" y="202.3701">String password</text><line style="stroke:#181818;stroke-width:1.0;" x1="262" x2="287.5" y1="181.2266" y2="181.2266"/><text fill="#000000" font-family="sans-serif" font-size="14" lengthAdjust="spacing" textLength="70" x="287.5" y="185.5732">encrypted</text><line style="stroke:#181818;stroke-width:1.0;" x1="357.5" x2="383" y1="181.2266" y2="181.2266"/></g><!--SRC=[PO-nQiGm44HxVSMKES8PyW5Nf4ZIfJbIf3ABjR45jcIqQnyctB_VIYPWI3FiB9hHssua4Rodz89V1tod1Hr5BCBcX5VED68CaSLyqvYGOBDNDufQNFJeSrfccoyN4nr2x0MQUjQ1SqcqxQ5ve9LBnqHnsvFoh_HyDdcpvlI3hW2wktDrm9TmhgHDWskOvf7nmQgsh73Fi6y_QUAdqvzxzJwpI5sKK9hO3Zj6v11fMymvhAGCJqexUuWAwhcIWMENjrdPxvXNpNOmPeExfUpT_G40]--></g></svg>