<?xml version="1.0" encoding="UTF-8" standalone="no"?><svg xmlns="http://www.w3.org/2000/svg" xmlns:xlink="http://www.w3.org/1999/xlink" contentStyleType="text/css" height="563px" preserveAspectRatio="none" style="width:302px;height:563px;background:#FFFFFF;" version="1.1" viewBox="0 0 302 563" width="302px" zoomAndPan="magnify"><defs/><g><ellipse cx="142" cy="20" fill="#222222" rx="10" ry="10" style="stroke:#222222;stroke-width:1.0;"/><rect fill="#F1F1F1" height="33.9688" rx="12.5" ry="12.5" style="stroke:#181818;stroke-width:0.5;" width="113" x="85.5" y="94"/><text fill="#000000" font-family="sans-serif" font-size="12" lengthAdjust="spacing" textLength="93" x="95.5" y="115.1387">Test something</text><rect fill="#98FB98" height="33.9688" rx="12.5" ry="12.5" style="stroke:#181818;stroke-width:0.5;" width="38" x="123" y="196.3711"/><text fill="#000000" font-family="sans-serif" font-size="12" lengthAdjust="spacing" textLength="18" x="133" y="217.5098">OK</text><polygon fill="#F1F1F1" points="73,147.9688,211,147.9688,223,159.9688,211,171.9688,73,171.9688,61,159.9688,73,147.9688" style="stroke:#181818;stroke-width:0.5;"/><text fill="#000000" font-family="sans-serif" font-size="11" lengthAdjust="spacing" textLength="14" x="146" y="182.1792">no</text><text fill="#000000" font-family="sans-serif" font-size="11" lengthAdjust="spacing" textLength="138" x="73" y="163.7769">Something went wrong?</text><rect fill="#F1F1F1" height="33.9688" rx="12.5" ry="12.5" style="stroke:#181818;stroke-width:0.5;" width="177" x="53.5" y="301.6567"/><text fill="#000000" font-family="sans-serif" font-size="12" lengthAdjust="spacing" textLength="157" x="63.5" y="322.7954">Alert "Error with long text"</text><polygon fill="#F1F1F1" points="142,50,154,62,142,74,130,62,142,50" style="stroke:#181818;stroke-width:0.5;"/><polygon fill="#F1F1F1" points="32,355.6255,252,355.6255,264,367.6255,252,379.6255,32,379.6255,20,367.6255,32,355.6255" style="stroke:#181818;stroke-width:0.5;"/><text fill="#000000" font-family="sans-serif" font-size="11" lengthAdjust="spacing" textLength="14" x="146" y="389.8359">no</text><text fill="#000000" font-family="sans-serif" font-size="11" lengthAdjust="spacing" textLength="220" x="32" y="371.4336">Something went wrong with long text?</text><text fill="#000000" font-family="sans-serif" font-size="11" lengthAdjust="spacing" textLength="21" x="264" y="365.0313">yes</text><polygon fill="#F1F1F1" points="142,411.3359,154,423.3359,142,435.3359,130,423.3359,142,411.3359" style="stroke:#181818;stroke-width:0.5;"/><rect fill="#F1F1F1" height="33.9688" rx="12.5" ry="12.5" style="stroke:#181818;stroke-width:0.5;" width="113" x="85.5" y="476.7349"/><text fill="#000000" font-family="sans-serif" font-size="12" lengthAdjust="spacing" textLength="93" x="95.5" y="497.8735">Alert "Success"</text><ellipse cx="142" cy="541.7036" rx="11" ry="11" style="stroke:#222222;stroke-width:1.0;fill:none;"/><ellipse cx="142" cy="541.7036" fill="#222222" rx="6" ry="6" style="stroke:#111111;stroke-width:1.0;"/><line style="stroke:#181818;stroke-width:1.0;" x1="142" x2="142" y1="230.3398" y2="243.2578"/><line style="stroke:#181818;stroke-width:1.0;" x1="142" x2="10" y1="243.2578" y2="243.2578"/><line style="stroke:#181818;stroke-width:1.0;" x1="10" x2="10" y1="243.2578" y2="423.3359"/><line style="stroke:#181818;stroke-width:1.0;" x1="10" x2="130" y1="423.3359" y2="423.3359"/><polygon fill="#181818" points="120,419.3359,130,423.3359,120,427.3359,124,423.3359" style="stroke:#181818;stroke-width:1.0;"/><line style="stroke:#181818;stroke-width:1.0;" x1="142" x2="142" y1="171.9688" y2="196.3711"/><polygon fill="#181818" points="138,186.3711,142,196.3711,146,186.3711,142,190.3711" style="stroke:#181818;stroke-width:1.0;"/><line style="stroke:#181818;stroke-width:1.0;" x1="223" x2="235" y1="159.9688" y2="159.9688"/><polygon fill="#181818" points="231,217.8555,235,227.8555,239,217.8555,235,221.8555" style="stroke:#181818;stroke-width:1.0;"/><line style="stroke:#181818;stroke-width:1.0;" x1="235" x2="235" y1="159.9688" y2="260.2578"/><line style="stroke:#181818;stroke-width:1.0;" x1="235" x2="142" y1="260.2578" y2="260.2578"/><line style="stroke:#181818;stroke-width:1.0;" x1="142" x2="142" y1="127.9688" y2="147.9688"/><polygon fill="#181818" points="138,137.9688,142,147.9688,146,137.9688,142,141.9688" style="stroke:#181818;stroke-width:1.0;"/><line style="stroke:#181818;stroke-width:1.0;" x1="142" x2="142" y1="260.2578" y2="301.6567"/><polygon fill="#181818" points="138,291.6567,142,301.6567,146,291.6567,142,295.6567" style="stroke:#181818;stroke-width:1.0;"/><text fill="#000000" font-family="sans-serif" font-size="11" lengthAdjust="spacing" textLength="24" x="146" y="281.5625">NOK</text><line style="stroke:#181818;stroke-width:1.0;" x1="142" x2="142" y1="74" y2="94"/><polygon fill="#181818" points="138,84,142,94,146,84,142,88" style="stroke:#181818;stroke-width:1.0;"/><line style="stroke:#181818;stroke-width:1.0;" x1="264" x2="276" y1="367.6255" y2="367.6255"/><polygon fill="#181818" points="272,238.2578,276,228.2578,280,238.2578,276,234.2578" style="stroke:#181818;stroke-width:1.0;"/><line style="stroke:#181818;stroke-width:1.0;" x1="276" x2="276" y1="62" y2="367.6255"/><line style="stroke:#181818;stroke-width:1.0;" x1="276" x2="154" y1="62" y2="62"/><polygon fill="#181818" points="164,58,154,62,164,66,160,62" style="stroke:#181818;stroke-width:1.0;"/><line style="stroke:#181818;stroke-width:1.0;" x1="142" x2="142" y1="335.6255" y2="355.6255"/><polygon fill="#181818" points="138,345.6255,142,355.6255,146,345.6255,142,349.6255" style="stroke:#181818;stroke-width:1.0;"/><line style="stroke:#181818;stroke-width:1.0;" x1="142" x2="142" y1="379.6255" y2="411.3359"/><polygon fill="#181818" points="138,401.3359,142,411.3359,146,401.3359,142,405.3359" style="stroke:#181818;stroke-width:1.0;"/><line style="stroke:#181818;stroke-width:1.0;" x1="142" x2="142" y1="30" y2="50"/><polygon fill="#181818" points="138,40,142,50,146,40,142,44" style="stroke:#181818;stroke-width:1.0;"/><line style="stroke:#181818;stroke-width:1.0;" x1="142" x2="142" y1="435.3359" y2="476.7349"/><polygon fill="#181818" points="138,466.7349,142,476.7349,146,466.7349,142,470.7349" style="stroke:#181818;stroke-width:1.0;"/><text fill="#000000" font-family="sans-serif" font-size="11" font-style="italic" lengthAdjust="spacing" textLength="72" x="146" y="456.6406">merged step</text><line style="stroke:#181818;stroke-width:1.0;" x1="142" x2="142" y1="510.7036" y2="530.7036"/><polygon fill="#181818" points="138,520.7036,142,530.7036,146,520.7036,142,524.7036" style="stroke:#181818;stroke-width:1.0;"/><!--MD5=[c7dbace409c7e584a52bf84f21201bfc]
@startuml
start
repeat
  :Test something;
    if (Something went wrong?) then (no)
      #palegreen:OK;
      break
    endif
    ->NOK;
    :Alert "Error with long text";
repeat while (Something went wrong with long text?) is (yes) not (no)
->//merged step//;
:Alert "Success";
stop
@enduml

PlantUML version 1.2022.7beta2(Unknown compile time)
(GPL source distribution)
Java Runtime: Java(TM) SE Runtime Environment
JVM: Java HotSpot(TM) 64-Bit Server VM
Default Encoding: UTF-8
Language: en
Country: US
--></g></svg>