<svg xmlns="http://www.w3.org/2000/svg" xmlns:xlink="http://www.w3.org/1999/xlink" contentStyleType="text/css" data-diagram-type="ACTIVITY" height="563px" preserveAspectRatio="none" style="width:295px;height:563px;background:#FFFFFF;" version="1.1" viewBox="0 0 295 563" width="295px" zoomAndPan="magnify"><defs/><g><ellipse cx="138.5222" cy="20" fill="#222222" rx="10" ry="10" style="stroke:#222222;stroke-width:1;"/><rect fill="#F1F1F1" height="33.9688" rx="12.5" ry="12.5" style="stroke:#181818;stroke-width:0.5;" width="113.0176" x="82.0134" y="94"/><text fill="#000000" font-family="sans-serif" font-size="12" lengthAdjust="spacing" textLength="93.0176" x="92.0134" y="115.1387">Test something</text><rect fill="#98FB98" height="33.9688" rx="12.5" ry="12.5" style="stroke:#181818;stroke-width:0.5;" width="37.3145" x="119.865" y="196.3711"/><text fill="#000000" font-family="sans-serif" font-size="12" lengthAdjust="spacing" textLength="17.3145" x="129.865" y="217.5098">OK</text><polygon fill="#F1F1F1" points="71.7354,147.9688,205.3091,147.9688,217.3091,159.9688,205.3091,171.9688,71.7354,171.9688,59.7354,159.9688,71.7354,147.9688" style="stroke:#181818;stroke-width:0.5;"/><text fill="#000000" font-family="sans-serif" font-size="11" lengthAdjust="spacing" textLength="13.7017" x="142.5222" y="182.1792">no</text><text fill="#000000" font-family="sans-serif" font-size="11" lengthAdjust="spacing" textLength="133.5737" x="71.7354" y="163.7769">Something went wrong?</text><rect fill="#F1F1F1" height="33.9688" rx="12.5" ry="12.5" style="stroke:#181818;stroke-width:0.5;" width="179.8379" x="48.6033" y="301.6567"/><text fill="#000000" font-family="sans-serif" font-size="12" lengthAdjust="spacing" textLength="159.8379" x="58.6033" y="322.7954">Alert "Error with long text"</text><polygon fill="#F1F1F1" points="138.5222,50,150.5222,62,138.5222,74,126.5222,62,138.5222,50" style="stroke:#181818;stroke-width:0.5;"/><polygon fill="#F1F1F1" points="32,355.6255,245.0444,355.6255,257.0444,367.6255,245.0444,379.6255,32,379.6255,20,367.6255,32,355.6255" style="stroke:#181818;stroke-width:0.5;"/><text fill="#000000" font-family="sans-serif" font-size="11" lengthAdjust="spacing" textLength="13.7017" x="142.5222" y="389.8359">no</text><text fill="#000000" font-family="sans-serif" font-size="11" lengthAdjust="spacing" textLength="213.0444" x="32" y="371.4336">Something went wrong with long text?</text><text fill="#000000" font-family="sans-serif" font-size="11" lengthAdjust="spacing" textLength="19.0083" x="257.0444" y="365.0313">yes</text><polygon fill="#F1F1F1" points="138.5222,411.3359,150.5222,423.3359,138.5222,435.3359,126.5222,423.3359,138.5222,411.3359" style="stroke:#181818;stroke-width:0.5;"/><rect fill="#F1F1F1" height="33.9688" rx="12.5" ry="12.5" style="stroke:#181818;stroke-width:0.5;" width="111.7227" x="82.6609" y="476.7349"/><text fill="#000000" font-family="sans-serif" font-size="12" lengthAdjust="spacing" textLength="91.7227" x="92.6609" y="497.8735">Alert "Success"</text><ellipse cx="138.5222" cy="541.7036" fill="none" rx="11" ry="11" style="stroke:#222222;stroke-width:1;"/><ellipse cx="138.5222" cy="541.7036" fill="#222222" rx="6" ry="6" style="stroke:#222222;stroke-width:1;"/><line style="stroke:#181818;stroke-width:1;" x1="138.5222" x2="138.5222" y1="230.3398" y2="243.2578"/><line style="stroke:#181818;stroke-width:1;" x1="138.5222" x2="10" y1="243.2578" y2="243.2578"/><line style="stroke:#181818;stroke-width:1;" x1="10" x2="10" y1="243.2578" y2="423.3359"/><line style="stroke:#181818;stroke-width:1;" x1="10" x2="126.5222" y1="423.3359" y2="423.3359"/><polygon fill="#181818" points="116.5222,419.3359,126.5222,423.3359,116.5222,427.3359,120.5222,423.3359" style="stroke:#181818;stroke-width:1;"/><line style="stroke:#181818;stroke-width:1;" x1="138.5222" x2="138.5222" y1="171.9688" y2="196.3711"/><polygon fill="#181818" points="134.5222,186.3711,138.5222,196.3711,142.5222,186.3711,138.5222,190.3711" style="stroke:#181818;stroke-width:1;"/><line style="stroke:#181818;stroke-width:1;" x1="217.3091" x2="229.3091" y1="159.9688" y2="159.9688"/><polygon fill="#181818" points="225.3091,217.8555,229.3091,227.8555,233.3091,217.8555,229.3091,221.8555" style="stroke:#181818;stroke-width:1;"/><line style="stroke:#181818;stroke-width:1;" x1="229.3091" x2="229.3091" y1="159.9688" y2="260.2578"/><line style="stroke:#181818;stroke-width:1;" x1="229.3091" x2="138.5222" y1="260.2578" y2="260.2578"/><line style="stroke:#181818;stroke-width:1;" x1="138.5222" x2="138.5222" y1="127.9688" y2="147.9688"/><polygon fill="#181818" points="134.5222,137.9688,138.5222,147.9688,142.5222,137.9688,138.5222,141.9688" style="stroke:#181818;stroke-width:1;"/><line style="stroke:#181818;stroke-width:1;" x1="138.5222" x2="138.5222" y1="260.2578" y2="301.6567"/><polygon fill="#181818" points="134.5222,291.6567,138.5222,301.6567,142.5222,291.6567,138.5222,295.6567" style="stroke:#181818;stroke-width:1;"/><text fill="#000000" font-family="sans-serif" font-size="11" lengthAdjust="spacing" textLength="24.1001" x="142.5222" y="281.5625">NOK</text><line style="stroke:#181818;stroke-width:1;" x1="138.5222" x2="138.5222" y1="74" y2="94"/><polygon fill="#181818" points="134.5222,84,138.5222,94,142.5222,84,138.5222,88" style="stroke:#181818;stroke-width:1;"/><line style="stroke:#181818;stroke-width:1;" x1="257.0444" x2="269.0444" y1="367.6255" y2="367.6255"/><polygon fill="#181818" points="265.0444,238.2578,269.0444,228.2578,273.0444,238.2578,269.0444,234.2578" style="stroke:#181818;stroke-width:1;"/><line style="stroke:#181818;stroke-width:1;" x1="269.0444" x2="269.0444" y1="62" y2="367.6255"/><line style="stroke:#181818;stroke-width:1;" x1="269.0444" x2="150.5222" y1="62" y2="62"/><polygon fill="#181818" points="160.5222,58,150.5222,62,160.5222,66,156.5222,62" style="stroke:#181818;stroke-width:1;"/><line style="stroke:#181818;stroke-width:1;" x1="138.5222" x2="138.5222" y1="335.6255" y2="355.6255"/><polygon fill="#181818" points="134.5222,345.6255,138.5222,355.6255,142.5222,345.6255,138.5222,349.6255" style="stroke:#181818;stroke-width:1;"/><line style="stroke:#181818;stroke-width:1;" x1="138.5222" x2="138.5222" y1="379.6255" y2="411.3359"/><polygon fill="#181818" points="134.5222,401.3359,138.5222,411.3359,142.5222,401.3359,138.5222,405.3359" style="stroke:#181818;stroke-width:1;"/><line style="stroke:#181818;stroke-width:1;" x1="138.5222" x2="138.5222" y1="30" y2="50"/><polygon fill="#181818" points="134.5222,40,138.5222,50,142.5222,40,138.5222,44" style="stroke:#181818;stroke-width:1;"/><line style="stroke:#181818;stroke-width:1;" x1="138.5222" x2="138.5222" y1="435.3359" y2="476.7349"/><polygon fill="#181818" points="134.5222,466.7349,138.5222,476.7349,142.5222,466.7349,138.5222,470.7349" style="stroke:#181818;stroke-width:1;"/><text fill="#000000" font-family="sans-serif" font-size="11" font-style="italic" lengthAdjust="spacing" textLength="70.0283" x="142.5222" y="456.6406">merged step</text><line style="stroke:#181818;stroke-width:1;" x1="138.5222" x2="138.5222" y1="510.7036" y2="530.7036"/><polygon fill="#181818" points="134.5222,520.7036,138.5222,530.7036,142.5222,520.7036,138.5222,524.7036" style="stroke:#181818;stroke-width:1;"/><!--SRC=[ROun3e9G44HxJZ7H1Wf33md6mif42xq0oW0_ulzaTmrwUmb2O-mcBxCxJwqKYuGzIuk0x48rQ7ZGMkURV4I0gn6V5uI1tZ18yCqsWRNqY7r8fYAmxikEZP0-Ento6Lw5vNtAz9MhfxGfZaiXstKKmsel4WI3inRT-1t6bwtosGr3wph-z_Yv6RMS8dvJ4_XWNxrDaQOFIiCAQkpJD8-MtVFpTgFgEAKM-Wy0]--></g></svg>