<svg xmlns="http://www.w3.org/2000/svg" xmlns:xlink="http://www.w3.org/1999/xlink" contentStyleType="text/css" height="563px" preserveAspectRatio="none" style="width:197px;height:563px;background:#FFFFFF;" version="1.1" viewBox="0 0 197 563" width="197px" zoomAndPan="magnify"><defs/><g><ellipse cx="89.9188" cy="20" fill="#222222" rx="10" ry="10" style="stroke:#222222;stroke-width:1.0;"/><rect fill="#F1F1F1" height="33.9688" rx="12.5" ry="12.5" style="stroke:#181818;stroke-width:0.5;" width="68.0004" x="55.9186" y="94"/><text fill="#000000" font-family="sans-serif" font-size="12" lengthAdjust="spacing" textLength="48.0004" x="65.9186" y="115.1387">&#27979;&#35797;&#26576;&#20107;</text><rect fill="#98FB98" height="33.9688" rx="12.5" ry="12.5" style="stroke:#181818;stroke-width:0.5;" width="44.0002" x="67.9187" y="196.3711"/><text fill="#000000" font-family="sans-serif" font-size="12" lengthAdjust="spacing" textLength="24.0002" x="77.9187" y="217.5098">&#22909;&#30340;</text><polygon fill="#F1F1F1" points="64.9998,147.9688,114.8378,147.9688,126.8378,159.9688,114.8378,171.9688,64.9998,171.9688,52.9998,159.9688,64.9998,147.9688" style="stroke:#181818;stroke-width:0.5;"/><text fill="#000000" font-family="sans-serif" font-size="11" lengthAdjust="spacing" textLength="21.9998" x="93.9188" y="182.1792">&#27809;&#26377;</text><text fill="#000000" font-family="sans-serif" font-size="11" lengthAdjust="spacing" textLength="49.8381" x="64.9998" y="163.7769">&#21457;&#29983;&#38169;&#35823;?</text><rect fill="#F1F1F1" height="33.9688" rx="12.5" ry="12.5" style="stroke:#181818;stroke-width:0.5;" width="130.8542" x="24.4917" y="301.6567"/><text fill="#000000" font-family="sans-serif" font-size="12" lengthAdjust="spacing" textLength="110.8542" x="34.4917" y="322.7954">&#24377;&#31383; "&#25991;&#26412;&#36807;&#38271;&#38169;&#35823;"</text><polygon fill="#F1F1F1" points="89.9188,50,101.9188,62,89.9188,74,77.9188,62,89.9188,50" style="stroke:#181818;stroke-width:0.5;"/><polygon fill="#F1F1F1" points="32,355.6255,147.8376,355.6255,159.8376,367.6255,147.8376,379.6255,32,379.6255,20,367.6255,32,355.6255" style="stroke:#181818;stroke-width:0.5;"/><text fill="#000000" font-family="sans-serif" font-size="11" lengthAdjust="spacing" textLength="21.9998" x="93.9188" y="389.8359">&#19981;&#26159;</text><text fill="#000000" font-family="sans-serif" font-size="11" lengthAdjust="spacing" textLength="115.8376" x="32" y="371.4336">&#26576;&#20107;&#21457;&#29983;&#25991;&#26412;&#36807;&#38271;&#38169;&#35823;?</text><text fill="#000000" font-family="sans-serif" font-size="11" lengthAdjust="spacing" textLength="21.9998" x="159.8376" y="365.0313">&#26159;&#30340;</text><polygon fill="#F1F1F1" points="89.9188,411.3359,101.9188,423.3359,89.9188,435.3359,77.9188,423.3359,89.9188,411.3359" style="stroke:#181818;stroke-width:0.5;"/><rect fill="#F1F1F1" height="33.9688" rx="12.5" ry="12.5" style="stroke:#181818;stroke-width:0.5;" width="94.854" x="42.4918" y="476.7349"/><text fill="#000000" font-family="sans-serif" font-size="12" lengthAdjust="spacing" textLength="74.854" x="52.4918" y="497.8735">&#24377;&#31383; "&#25104;&#21151;&#65281;"</text><ellipse cx="89.9188" cy="541.7036" fill="none" rx="11" ry="11" style="stroke:#222222;stroke-width:1.0;"/><ellipse cx="89.9188" cy="541.7036" fill="#222222" rx="6" ry="6" style="stroke:#222222;stroke-width:1.0;"/><line style="stroke:#181818;stroke-width:1.0;" x1="89.9188" x2="89.9188" y1="230.3398" y2="243.2578"/><line style="stroke:#181818;stroke-width:1.0;" x1="89.9188" x2="10" y1="243.2578" y2="243.2578"/><line style="stroke:#181818;stroke-width:1.0;" x1="10" x2="10" y1="243.2578" y2="423.3359"/><line style="stroke:#181818;stroke-width:1.0;" x1="10" x2="77.9188" y1="423.3359" y2="423.3359"/><polygon fill="#181818" points="67.9188,419.3359,77.9188,423.3359,67.9188,427.3359,71.9188,423.3359" style="stroke:#181818;stroke-width:1.0;"/><line style="stroke:#181818;stroke-width:1.0;" x1="89.9188" x2="89.9188" y1="171.9688" y2="196.3711"/><polygon fill="#181818" points="85.9188,186.3711,89.9188,196.3711,93.9188,186.3711,89.9188,190.3711" style="stroke:#181818;stroke-width:1.0;"/><line style="stroke:#181818;stroke-width:1.0;" x1="126.8378" x2="138.8378" y1="159.9688" y2="159.9688"/><polygon fill="#181818" points="134.8378,217.8555,138.8378,227.8555,142.8378,217.8555,138.8378,221.8555" style="stroke:#181818;stroke-width:1.0;"/><line style="stroke:#181818;stroke-width:1.0;" x1="138.8378" x2="138.8378" y1="159.9688" y2="260.2578"/><line style="stroke:#181818;stroke-width:1.0;" x1="138.8378" x2="89.9188" y1="260.2578" y2="260.2578"/><line style="stroke:#181818;stroke-width:1.0;" x1="89.9188" x2="89.9188" y1="127.9688" y2="147.9688"/><polygon fill="#181818" points="85.9188,137.9688,89.9188,147.9688,93.9188,137.9688,89.9188,141.9688" style="stroke:#181818;stroke-width:1.0;"/><line style="stroke:#181818;stroke-width:1.0;" x1="89.9188" x2="89.9188" y1="260.2578" y2="301.6567"/><polygon fill="#181818" points="85.9188,291.6567,89.9188,301.6567,93.9188,291.6567,89.9188,295.6567" style="stroke:#181818;stroke-width:1.0;"/><text fill="#000000" font-family="sans-serif" font-size="11" lengthAdjust="spacing" textLength="34.6113" x="93.9188" y="281.5625">not ok</text><line style="stroke:#181818;stroke-width:1.0;" x1="89.9188" x2="89.9188" y1="74" y2="94"/><polygon fill="#181818" points="85.9188,84,89.9188,94,93.9188,84,89.9188,88" style="stroke:#181818;stroke-width:1.0;"/><line style="stroke:#181818;stroke-width:1.0;" x1="159.8376" x2="171.8376" y1="367.6255" y2="367.6255"/><polygon fill="#181818" points="167.8376,238.2578,171.8376,228.2578,175.8376,238.2578,171.8376,234.2578" style="stroke:#181818;stroke-width:1.0;"/><line style="stroke:#181818;stroke-width:1.0;" x1="171.8376" x2="171.8376" y1="62" y2="367.6255"/><line style="stroke:#181818;stroke-width:1.0;" x1="171.8376" x2="101.9188" y1="62" y2="62"/><polygon fill="#181818" points="111.9188,58,101.9188,62,111.9188,66,107.9188,62" style="stroke:#181818;stroke-width:1.0;"/><line style="stroke:#181818;stroke-width:1.0;" x1="89.9188" x2="89.9188" y1="335.6255" y2="355.6255"/><polygon fill="#181818" points="85.9188,345.6255,89.9188,355.6255,93.9188,345.6255,89.9188,349.6255" style="stroke:#181818;stroke-width:1.0;"/><line style="stroke:#181818;stroke-width:1.0;" x1="89.9188" x2="89.9188" y1="379.6255" y2="411.3359"/><polygon fill="#181818" points="85.9188,401.3359,89.9188,411.3359,93.9188,401.3359,89.9188,405.3359" style="stroke:#181818;stroke-width:1.0;"/><line style="stroke:#181818;stroke-width:1.0;" x1="89.9188" x2="89.9188" y1="30" y2="50"/><polygon fill="#181818" points="85.9188,40,89.9188,50,93.9188,40,89.9188,44" style="stroke:#181818;stroke-width:1.0;"/><line style="stroke:#181818;stroke-width:1.0;" x1="89.9188" x2="89.9188" y1="435.3359" y2="476.7349"/><polygon fill="#181818" points="85.9188,466.7349,89.9188,476.7349,93.9188,466.7349,89.9188,470.7349" style="stroke:#181818;stroke-width:1.0;"/><text fill="#000000" font-family="sans-serif" font-size="11" font-style="italic" lengthAdjust="spacing" textLength="43.9997" x="93.9188" y="456.6406">&#21512;&#24182;&#27493;&#39588;</text><line style="stroke:#181818;stroke-width:1.0;" x1="89.9188" x2="89.9188" y1="510.7036" y2="530.7036"/><polygon fill="#181818" points="85.9188,520.7036,89.9188,530.7036,93.9188,520.7036,89.9188,524.7036" style="stroke:#181818;stroke-width:1.0;"/><!--SRC=[POxB2e90543tViMbDhe8zmhrBKQtaa951re7GIyYWzu44jGc2Y4eAWf_fXbrrIyqQT2YtNqSECSXcaq46otKY02Wi5C_yYVCSv-tlieF07ePH3eSXMCl7YyYtoz8GAfeWCYEQxRgIWa4aBMqEbPiH4EXsqUuRAdVHz56hPRCQ9JqSZBbyeP9mAobZ4Blrt0tWmoRjjbg7mNjU1AaiepwROD6LQyZboPbQSy_pjjqXqDpdmT8y968pyk0xvAGoyioTJlqUcQ7RRpRoB8g_CmTb_Qyrxt9XGunhJS0]--></g></svg>