<svg xmlns="http://www.w3.org/2000/svg" xmlns:xlink="http://www.w3.org/1999/xlink" contentStyleType="text/css" height="249px" preserveAspectRatio="none" style="width:679px;height:249px;background:#FFFFFF;" version="1.1" viewBox="0 0 679 249" width="679px" zoomAndPan="magnify"><defs/><g><rect fill="#F1F1F1" height="142.0781" rx="5" ry="5" style="stroke:#F1F1F1;stroke-width:1.5;" width="279" x="10" y="10"/><text fill="#000000" font-family="sans-serif" font-size="14" font-weight="bold" lengthAdjust="spacing" textLength="30" x="15" y="24.9951">doe</text><text fill="#000000" font-family="sans-serif" font-size="14" lengthAdjust="spacing" textLength="146" x="138" y="24.9951">a deer, a female deer</text><line style="stroke:#000000;stroke-width:1.0;" x1="133" x2="133" y1="10" y2="30.2969"/><line style="stroke:#000000;stroke-width:1.0;" x1="10" x2="289" y1="30.2969" y2="30.2969"/><text fill="#000000" font-family="sans-serif" font-size="14" font-weight="bold" lengthAdjust="spacing" textLength="25" x="15" y="45.292">ray</text><text fill="#000000" font-family="sans-serif" font-size="14" lengthAdjust="spacing" textLength="143" x="138" y="45.292">a drop of golden sun</text><line style="stroke:#000000;stroke-width:1.0;" x1="133" x2="133" y1="30.2969" y2="50.5938"/><line style="stroke:#000000;stroke-width:1.0;" x1="10" x2="289" y1="50.5938" y2="50.5938"/><text fill="#000000" font-family="sans-serif" font-size="14" font-weight="bold" lengthAdjust="spacing" textLength="14" x="15" y="65.5889">pi</text><text fill="#000000" font-family="sans-serif" font-size="14" lengthAdjust="spacing" textLength="58" x="138" y="65.5889">3.14159</text><line style="stroke:#000000;stroke-width:1.0;" x1="133" x2="133" y1="50.5938" y2="70.8906"/><line style="stroke:#000000;stroke-width:1.0;" x1="10" x2="289" y1="70.8906" y2="70.8906"/><text fill="#000000" font-family="sans-serif" font-size="14" font-weight="bold" lengthAdjust="spacing" textLength="41" x="15" y="85.8857">xmas</text><text fill="#000000" font-family="sans-serif" font-size="14" lengthAdjust="spacing" textLength="28" x="138" y="85.8857">true</text><line style="stroke:#000000;stroke-width:1.0;" x1="133" x2="133" y1="70.8906" y2="91.1875"/><rect fill="#CCFF02" height="20.2969" rx="2" ry="2" style="stroke:#CCFF02;stroke-width:1.0;" width="277" x="11.5" y="91.1875"/><line style="stroke:#000000;stroke-width:1.0;" x1="10" x2="289" y1="91.1875" y2="91.1875"/><text fill="#000000" font-family="sans-serif" font-size="14" font-weight="bold" lengthAdjust="spacing" textLength="97" x="15" y="106.1826">french-hens</text><text fill="#000000" font-family="sans-serif" font-size="14" lengthAdjust="spacing" textLength="9" x="138" y="106.1826">3</text><line style="stroke:#000000;stroke-width:1.0;" x1="133" x2="133" y1="91.1875" y2="111.4844"/><line style="stroke:#000000;stroke-width:1.0;" x1="10" x2="289" y1="111.4844" y2="111.4844"/><text fill="#000000" font-family="sans-serif" font-size="14" font-weight="bold" lengthAdjust="spacing" textLength="96" x="15" y="126.4795">calling-birds</text><text fill="#000000" font-family="sans-serif" font-size="14" lengthAdjust="spacing" textLength="12" x="138" y="126.4795">&#160;&#160;&#160;</text><line style="stroke:#000000;stroke-width:1.0;" x1="133" x2="133" y1="111.4844" y2="131.7813"/><line style="stroke:#000000;stroke-width:1.0;" x1="10" x2="289" y1="131.7813" y2="131.7813"/><text fill="#000000" font-family="sans-serif" font-size="14" font-weight="bold" lengthAdjust="spacing" textLength="113" x="15" y="146.7764">xmas-fifth-day</text><text fill="#000000" font-family="sans-serif" font-size="14" lengthAdjust="spacing" textLength="12" x="138" y="146.7764">&#160;&#160;&#160;</text><line style="stroke:#000000;stroke-width:1.0;" x1="133" x2="133" y1="131.7813" y2="152.0781"/><rect fill="none" height="142.0781" rx="5" ry="5" style="stroke:#000000;stroke-width:1.5;" width="279" x="10" y="10"/><rect fill="#F1F1F1" height="81.1875" rx="5" ry="5" style="stroke:#F1F1F1;stroke-width:1.5;" width="55" x="372" y="37.4453"/><text fill="#000000" font-family="sans-serif" font-size="14" lengthAdjust="spacing" textLength="34" x="377" y="52.4404">huey</text><line style="stroke:#000000;stroke-width:1.0;" x1="372" x2="427" y1="57.7422" y2="57.7422"/><text fill="#000000" font-family="sans-serif" font-size="14" lengthAdjust="spacing" textLength="45" x="377" y="72.7373">dewey</text><line style="stroke:#000000;stroke-width:1.0;" x1="372" x2="427" y1="78.0391" y2="78.0391"/><text fill="#000000" font-family="sans-serif" font-size="14" lengthAdjust="spacing" textLength="33" x="377" y="93.0342">louie</text><line style="stroke:#000000;stroke-width:1.0;" x1="372" x2="427" y1="98.3359" y2="98.3359"/><text fill="#000000" font-family="sans-serif" font-size="14" lengthAdjust="spacing" textLength="27" x="377" y="113.3311">fred</text><rect fill="none" height="81.1875" rx="5" ry="5" style="stroke:#000000;stroke-width:1.5;" width="55" x="372" y="37.4453"/><rect fill="#F1F1F1" height="101.4844" rx="5" ry="5" style="stroke:#F1F1F1;stroke-width:1.5;" width="147" x="326" y="136.2969"/><text fill="#000000" font-family="sans-serif" font-size="14" font-weight="bold" lengthAdjust="spacing" textLength="96" x="331" y="151.292">calling-birds</text><text fill="#000000" font-family="sans-serif" font-size="14" lengthAdjust="spacing" textLength="27" x="441" y="151.292">four</text><line style="stroke:#000000;stroke-width:1.0;" x1="436" x2="436" y1="136.2969" y2="156.5938"/><line style="stroke:#000000;stroke-width:1.0;" x1="326" x2="473" y1="156.5938" y2="156.5938"/><text fill="#000000" font-family="sans-serif" font-size="14" font-weight="bold" lengthAdjust="spacing" textLength="97" x="331" y="171.5889">french-hens</text><text fill="#000000" font-family="sans-serif" font-size="14" lengthAdjust="spacing" textLength="9" x="441" y="171.5889">3</text><line style="stroke:#000000;stroke-width:1.0;" x1="436" x2="436" y1="156.5938" y2="176.8906"/><line style="stroke:#000000;stroke-width:1.0;" x1="326" x2="473" y1="176.8906" y2="176.8906"/><text fill="#000000" font-family="sans-serif" font-size="14" font-weight="bold" lengthAdjust="spacing" textLength="100" x="331" y="191.8857">golden-rings</text><text fill="#000000" font-family="sans-serif" font-size="14" lengthAdjust="spacing" textLength="9" x="441" y="191.8857">5</text><line style="stroke:#000000;stroke-width:1.0;" x1="436" x2="436" y1="176.8906" y2="197.1875"/><rect fill="#CCFF02" height="20.2969" rx="2" ry="2" style="stroke:#CCFF02;stroke-width:1.0;" width="145" x="327.5" y="197.1875"/><line style="stroke:#000000;stroke-width:1.0;" x1="326" x2="473" y1="197.1875" y2="197.1875"/><text fill="#000000" font-family="sans-serif" font-size="14" font-weight="bold" lengthAdjust="spacing" textLength="82" x="331" y="212.1826">partridges</text><text fill="#000000" font-family="sans-serif" font-size="14" lengthAdjust="spacing" textLength="12" x="441" y="212.1826">&#160;&#160;&#160;</text><line style="stroke:#000000;stroke-width:1.0;" x1="436" x2="436" y1="197.1875" y2="217.4844"/><line style="stroke:#000000;stroke-width:1.0;" x1="326" x2="473" y1="217.4844" y2="217.4844"/><text fill="#000000" font-family="sans-serif" font-size="14" font-weight="bold" lengthAdjust="spacing" textLength="97" x="331" y="232.4795">turtle-doves</text><text fill="#000000" font-family="sans-serif" font-size="14" lengthAdjust="spacing" textLength="25" x="441" y="232.4795">two</text><line style="stroke:#000000;stroke-width:1.0;" x1="436" x2="436" y1="217.4844" y2="237.7813"/><rect fill="none" height="101.4844" rx="5" ry="5" style="stroke:#000000;stroke-width:1.5;" width="147" x="326" y="136.2969"/><rect fill="#F1F1F1" height="40.5938" rx="5" ry="5" style="stroke:#F1F1F1;stroke-width:1.5;" width="157" x="510" y="186.5391"/><text fill="#000000" font-family="sans-serif" font-size="14" font-weight="bold" lengthAdjust="spacing" textLength="45" x="515" y="201.5342">count</text><text fill="#000000" font-family="sans-serif" font-size="14" lengthAdjust="spacing" textLength="9" x="587" y="201.5342">1</text><line style="stroke:#000000;stroke-width:1.0;" x1="582" x2="582" y1="186.5391" y2="206.8359"/><line style="stroke:#000000;stroke-width:1.0;" x1="510" x2="667" y1="206.8359" y2="206.8359"/><text fill="#000000" font-family="sans-serif" font-size="14" font-weight="bold" lengthAdjust="spacing" textLength="62" x="515" y="221.8311">location</text><text fill="#000000" font-family="sans-serif" font-size="14" lengthAdjust="spacing" textLength="75" x="587" y="221.8311">a pear tree</text><line style="stroke:#000000;stroke-width:1.0;" x1="582" x2="582" y1="206.8359" y2="227.1328"/><rect fill="none" height="40.5938" rx="5" ry="5" style="stroke:#000000;stroke-width:1.5;" width="157" x="510" y="186.5391"/><path d="M277,122.0391 L290,122.0391 C316.7686,122.0391 344.7225,110.4871 365.6191,99.2215 " fill="none" style="stroke:#000000;stroke-width:1.0;stroke-dasharray:3.0,3.0;"/><path d="M367.1361,101.9432 L367.6604,98.0837 L364.1021,96.4998 L372.4234,95.429 L367.1361,101.9432 " fill="#000000" style="stroke:#000000;stroke-width:1.0;"/><ellipse cx="277" cy="122.0391" fill="#000000" rx="3" ry="3" style="stroke:#000000;stroke-width:1.0;"/><path d="M461,207.0391 L474,207.0391 C483.292,207.0391 493.0101,207.0391 502.6854,207.0391 " fill="none" style="stroke:#000000;stroke-width:1.0;stroke-dasharray:3.0,3.0;"/><path d="M502.6854,210.1356 L505.0078,207.0391 L502.6854,203.9426 L510.4267,207.0391 L502.6854,210.1356 " fill="#000000" style="stroke:#000000;stroke-width:1.0;"/><ellipse cx="461" cy="207.0391" fill="#000000" rx="3" ry="3" style="stroke:#000000;stroke-width:1.0;"/><path d="M277,142.0391 L290,142.0391 C299.707,142.0391 309.5574,143.5827 319.165,146.0982 " fill="none" style="stroke:#000000;stroke-width:1.0;stroke-dasharray:3.0,3.0;"/><path d="M318.3236,149.0155 L321.353,146.7293 L320.0065,143.1809 L326.4583,148.2018 L318.3236,149.0155 " fill="#000000" style="stroke:#000000;stroke-width:1.0;"/><ellipse cx="277" cy="142.0391" fill="#000000" rx="3" ry="3" style="stroke:#000000;stroke-width:1.0;"/><!--SRC=[NL7DRjim33wRJq5ubnQOiZgDYzQdOkqs84smObbwPotQ5Y1BXYobzTkNJZ1qxK4GHVBx8NKxHWfnejx2bywqdPKJCMy2kxfJ7Rin_r1uxMbKZMbYfpHDENx3V122O7JBqWhQSuKveMOENv6muPui7vyv19fEnU07z0sstcfsE2QNms0gl5mKgwAyWLcamXWImtz6f0urMMjSgvvDq9A0J66NU9flpI-dmFfaU0u4g-6ZuHdoYQFnAK3sIISxMLD16YLHGlO-vSoHrJwvM64XeVKrHUFTSRI1AOXpvXooc4AqhBG_pA3uuk6MdJxk6XujkRZVRl30OHGm5elbnNArACzsoU6M9bnUuSLDLPHLUOtxltSuby_XxDVZ1aUnNCjIpIYMdjCiVWvhEX3-4LUcbo_uFR1Rtp_yI-0FTp31kvvTXFNJzhtXQgM-cuWx3k84dxPmpmqb6mLHUotZLwB-Krt3XboRg1LkTd0tZnzadVlT6m00]--></g></svg>