<?xml version="1.0" encoding="us-ascii" standalone="no"?><svg xmlns="http://www.w3.org/2000/svg" xmlns:xlink="http://www.w3.org/1999/xlink" contentStyleType="text/css" height="249px" preserveAspectRatio="none" style="width:706px;height:249px;background:#FFFFFF;" version="1.1" viewBox="0 0 706 249" width="706px" zoomAndPan="magnify"><defs/><g><rect fill="#F1F1F1" height="142.0781" rx="5" ry="5" style="stroke:#F1F1F1;stroke-width:1.5;" width="293" x="10" y="10"/><text fill="#000000" font-family="sans-serif" font-size="14" font-weight="bold" lengthAdjust="spacing" textLength="29" x="15" y="24.9951">doe</text><text fill="#000000" font-family="sans-serif" font-size="14" lengthAdjust="spacing" textLength="152" x="146" y="24.9951">a deer, a female deer</text><line style="stroke:#000000;stroke-width:1.0;" x1="141" x2="141" y1="10" y2="30.2969"/><line style="stroke:#000000;stroke-width:1.0;" x1="10" x2="303" y1="30.2969" y2="30.2969"/><text fill="#000000" font-family="sans-serif" font-size="14" font-weight="bold" lengthAdjust="spacing" textLength="26" x="15" y="45.292">ray</text><text fill="#000000" font-family="sans-serif" font-size="14" lengthAdjust="spacing" textLength="146" x="146" y="45.292">a drop of golden sun</text><line style="stroke:#000000;stroke-width:1.0;" x1="141" x2="141" y1="30.2969" y2="50.5938"/><line style="stroke:#000000;stroke-width:1.0;" x1="10" x2="303" y1="50.5938" y2="50.5938"/><text fill="#000000" font-family="sans-serif" font-size="14" font-weight="bold" lengthAdjust="spacing" textLength="15" x="15" y="65.5889">pi</text><text fill="#000000" font-family="sans-serif" font-size="14" lengthAdjust="spacing" textLength="58" x="146" y="65.5889">3.14159</text><line style="stroke:#000000;stroke-width:1.0;" x1="141" x2="141" y1="50.5938" y2="70.8906"/><line style="stroke:#000000;stroke-width:1.0;" x1="10" x2="303" y1="70.8906" y2="70.8906"/><text fill="#000000" font-family="sans-serif" font-size="14" font-weight="bold" lengthAdjust="spacing" textLength="43" x="15" y="85.8857">xmas</text><text fill="#000000" font-family="sans-serif" font-size="14" lengthAdjust="spacing" textLength="30" x="146" y="85.8857">true</text><line style="stroke:#000000;stroke-width:1.0;" x1="141" x2="141" y1="70.8906" y2="91.1875"/><rect fill="#CCFF02" height="20.2969" rx="2" ry="2" style="stroke:#CCFF02;stroke-width:1.0;" width="291" x="11.5" y="91.1875"/><line style="stroke:#000000;stroke-width:1.0;" x1="10" x2="303" y1="91.1875" y2="91.1875"/><text fill="#000000" font-family="sans-serif" font-size="14" font-weight="bold" lengthAdjust="spacing" textLength="96" x="15" y="106.1826">french-hens</text><text fill="#000000" font-family="sans-serif" font-size="14" lengthAdjust="spacing" textLength="9" x="146" y="106.1826">3</text><line style="stroke:#000000;stroke-width:1.0;" x1="141" x2="141" y1="91.1875" y2="111.4844"/><line style="stroke:#000000;stroke-width:1.0;" x1="10" x2="303" y1="111.4844" y2="111.4844"/><text fill="#000000" font-family="sans-serif" font-size="14" font-weight="bold" lengthAdjust="spacing" textLength="101" x="15" y="126.4795">calling-birds</text><text fill="#000000" font-family="sans-serif" font-size="14" lengthAdjust="spacing" textLength="12" x="146" y="126.4795">&#160;&#160;&#160;</text><line style="stroke:#000000;stroke-width:1.0;" x1="141" x2="141" y1="111.4844" y2="131.7813"/><line style="stroke:#000000;stroke-width:1.0;" x1="10" x2="303" y1="131.7813" y2="131.7813"/><text fill="#000000" font-family="sans-serif" font-size="14" font-weight="bold" lengthAdjust="spacing" textLength="121" x="15" y="146.7764">xmas-fifth-day</text><text fill="#000000" font-family="sans-serif" font-size="14" lengthAdjust="spacing" textLength="12" x="146" y="146.7764">&#160;&#160;&#160;</text><line style="stroke:#000000;stroke-width:1.0;" x1="141" x2="141" y1="131.7813" y2="152.0781"/><rect fill="none" height="142.0781" rx="5" ry="5" style="stroke:#000000;stroke-width:1.5;" width="293" x="10" y="10"/><rect fill="#F1F1F1" height="81.1875" rx="5" ry="5" style="stroke:#F1F1F1;stroke-width:1.5;" width="56" x="387" y="37.4453"/><text fill="#000000" font-family="sans-serif" font-size="14" lengthAdjust="spacing" textLength="34" x="392" y="52.4404">huey</text><line style="stroke:#000000;stroke-width:1.0;" x1="387" x2="443" y1="57.7422" y2="57.7422"/><text fill="#000000" font-family="sans-serif" font-size="14" lengthAdjust="spacing" textLength="46" x="392" y="72.7373">dewey</text><line style="stroke:#000000;stroke-width:1.0;" x1="387" x2="443" y1="78.0391" y2="78.0391"/><text fill="#000000" font-family="sans-serif" font-size="14" lengthAdjust="spacing" textLength="34" x="392" y="93.0342">louie</text><line style="stroke:#000000;stroke-width:1.0;" x1="387" x2="443" y1="98.3359" y2="98.3359"/><text fill="#000000" font-family="sans-serif" font-size="14" lengthAdjust="spacing" textLength="30" x="392" y="113.3311">fred</text><rect fill="none" height="81.1875" rx="5" ry="5" style="stroke:#000000;stroke-width:1.5;" width="56" x="387" y="37.4453"/><rect fill="#F1F1F1" height="101.4844" rx="5" ry="5" style="stroke:#F1F1F1;stroke-width:1.5;" width="150" x="340" y="136.2969"/><text fill="#000000" font-family="sans-serif" font-size="14" font-weight="bold" lengthAdjust="spacing" textLength="101" x="345" y="151.292">calling-birds</text><text fill="#000000" font-family="sans-serif" font-size="14" lengthAdjust="spacing" textLength="29" x="456" y="151.292">four</text><line style="stroke:#000000;stroke-width:1.0;" x1="451" x2="451" y1="136.2969" y2="156.5938"/><line style="stroke:#000000;stroke-width:1.0;" x1="340" x2="490" y1="156.5938" y2="156.5938"/><text fill="#000000" font-family="sans-serif" font-size="14" font-weight="bold" lengthAdjust="spacing" textLength="96" x="345" y="171.5889">french-hens</text><text fill="#000000" font-family="sans-serif" font-size="14" lengthAdjust="spacing" textLength="9" x="456" y="171.5889">3</text><line style="stroke:#000000;stroke-width:1.0;" x1="451" x2="451" y1="156.5938" y2="176.8906"/><line style="stroke:#000000;stroke-width:1.0;" x1="340" x2="490" y1="176.8906" y2="176.8906"/><text fill="#000000" font-family="sans-serif" font-size="14" font-weight="bold" lengthAdjust="spacing" textLength="101" x="345" y="191.8857">golden-rings</text><text fill="#000000" font-family="sans-serif" font-size="14" lengthAdjust="spacing" textLength="9" x="456" y="191.8857">5</text><line style="stroke:#000000;stroke-width:1.0;" x1="451" x2="451" y1="176.8906" y2="197.1875"/><rect fill="#CCFF02" height="20.2969" rx="2" ry="2" style="stroke:#CCFF02;stroke-width:1.0;" width="148" x="341.5" y="197.1875"/><line style="stroke:#000000;stroke-width:1.0;" x1="340" x2="490" y1="197.1875" y2="197.1875"/><text fill="#000000" font-family="sans-serif" font-size="14" font-weight="bold" lengthAdjust="spacing" textLength="85" x="345" y="212.1826">partridges</text><text fill="#000000" font-family="sans-serif" font-size="14" lengthAdjust="spacing" textLength="12" x="456" y="212.1826">&#160;&#160;&#160;</text><line style="stroke:#000000;stroke-width:1.0;" x1="451" x2="451" y1="197.1875" y2="217.4844"/><line style="stroke:#000000;stroke-width:1.0;" x1="340" x2="490" y1="217.4844" y2="217.4844"/><text fill="#000000" font-family="sans-serif" font-size="14" font-weight="bold" lengthAdjust="spacing" textLength="100" x="345" y="232.4795">turtle-doves</text><text fill="#000000" font-family="sans-serif" font-size="14" lengthAdjust="spacing" textLength="27" x="456" y="232.4795">two</text><line style="stroke:#000000;stroke-width:1.0;" x1="451" x2="451" y1="217.4844" y2="237.7813"/><rect fill="none" height="101.4844" rx="5" ry="5" style="stroke:#000000;stroke-width:1.5;" width="150" x="340" y="136.2969"/><rect fill="#F1F1F1" height="40.5938" rx="5" ry="5" style="stroke:#F1F1F1;stroke-width:1.5;" width="167" x="527" y="186.5391"/><text fill="#000000" font-family="sans-serif" font-size="14" font-weight="bold" lengthAdjust="spacing" textLength="47" x="532" y="201.5342">count</text><text fill="#000000" font-family="sans-serif" font-size="14" lengthAdjust="spacing" textLength="9" x="609" y="201.5342">1</text><line style="stroke:#000000;stroke-width:1.0;" x1="604" x2="604" y1="186.5391" y2="206.8359"/><line style="stroke:#000000;stroke-width:1.0;" x1="527" x2="694" y1="206.8359" y2="206.8359"/><text fill="#000000" font-family="sans-serif" font-size="14" font-weight="bold" lengthAdjust="spacing" textLength="67" x="532" y="221.8311">location</text><text fill="#000000" font-family="sans-serif" font-size="14" lengthAdjust="spacing" textLength="80" x="609" y="221.8311">a pear tree</text><line style="stroke:#000000;stroke-width:1.0;" x1="604" x2="604" y1="206.8359" y2="227.1328"/><rect fill="none" height="40.5938" rx="5" ry="5" style="stroke:#000000;stroke-width:1.5;" width="167" x="527" y="186.5391"/><path d="M291,122.0391 L304,122.0391 C331.0171,122.0391 359.282,110.5455 380.462,99.307 " fill="none" style="stroke:#000000;stroke-width:1.0;stroke-dasharray:3.0,3.0;"/><path d="M381.9121,101.9539 L382.4472,98.2195 L379.012,96.6602 L387.0792,95.682 L381.9121,101.9539 " fill="#000000" style="stroke:#000000;stroke-width:1.0;"/><ellipse cx="291" cy="122.0391" fill="#000000" rx="3" ry="3" style="stroke:#000000;stroke-width:1.0;"/><path d="M478,207.0391 L491,207.0391 C500.292,207.0391 509.9922,207.0391 519.6703,207.0391 " fill="none" style="stroke:#000000;stroke-width:1.0;stroke-dasharray:3.0,3.0;"/><path d="M519.6703,210.1385 L521.9949,207.0391 L519.6703,203.9396 L527.4189,207.0391 L519.6703,210.1385 " fill="#000000" style="stroke:#000000;stroke-width:1.0;"/><ellipse cx="478" cy="207.0391" fill="#000000" rx="3" ry="3" style="stroke:#000000;stroke-width:1.0;"/><path d="M291,142.0391 L304,142.0391 C313.6562,142.0391 323.4598,143.5313 333.0369,145.9722 " fill="none" style="stroke:#000000;stroke-width:1.0;stroke-dasharray:3.0,3.0;"/><path d="M332.2199,148.8815 L335.2189,146.5849 L333.8539,143.0628 L340.3103,148.0147 L332.2199,148.8815 " fill="#000000" style="stroke:#000000;stroke-width:1.0;"/><ellipse cx="291" cy="142.0391" fill="#000000" rx="3" ry="3" style="stroke:#000000;stroke-width:1.0;"/><!--SRC=[NL1DRzim33sRlu9mBmamfNE_iFfKTEis50bGD4tlZ4NRmcJ9aALa-VUZ4XHhUn34Z_V8ntStHGhnG8E5izvqlPKNiMm3kwPNFRkf_D3uEz2aMjF6Ncawb7YEvIW3Wj4T2nIqvnfBGiqSlY1XomDPFgOb13gSci6Fw5lilDNiS4gkXD7KUBcehghhMyXBQemXCRmJ8dreo5hZEhKrGKi12eLzuaF-DUzFWVN9S0w4g-6Zu4pvDAFrAK3nQKznagQ20ALm3SN_A_ECel79nHeh2QrlA1hlZgUDJ46KCvTGn1IYPQNzBfFYtiCTEttq6fuikRXPBN77OH8oLekBhnUNYvijHwfc6_V7-Rt3nW-Z4V-Y6NWEirzFIvn4RoEEcadqR5FUF8T7sX4-YoJ1rPYpsSjgZkk7jo8-k9q9tWti8Zo-hauW_EtZUlJn2BwvKlScufg3QCBN5VpWbfADGcsy5YDgtBpyLDzWIQvBrCaYTl0z6n74sCtw7m00]--></g></svg>