<?xml version="1.0" encoding="us-ascii" standalone="no"?><svg xmlns="http://www.w3.org/2000/svg" xmlns:xlink="http://www.w3.org/1999/xlink" contentStyleType="text/css" height="563px" preserveAspectRatio="none" style="width:198px;height:563px;background:#FFFFFF;" version="1.1" viewBox="0 0 198 563" width="198px" zoomAndPan="magnify"><defs/><g><ellipse cx="90" cy="20" fill="#222222" rx="10" ry="10" style="stroke:#222222;stroke-width:1.0;"/><rect fill="#F1F1F1" height="33.9688" rx="12.5" ry="12.5" style="stroke:#181818;stroke-width:0.5;" width="68" x="56" y="94"/><text fill="#000000" font-family="sans-serif" font-size="12" lengthAdjust="spacing" textLength="48" x="66" y="115.1387">&#27979;&#35797;&#26576;&#20107;</text><rect fill="#98FB98" height="33.9688" rx="12.5" ry="12.5" style="stroke:#181818;stroke-width:0.5;" width="44" x="68" y="196.3711"/><text fill="#000000" font-family="sans-serif" font-size="12" lengthAdjust="spacing" textLength="24" x="78" y="217.5098">&#22909;&#30340;</text><polygon fill="#F1F1F1" points="65,147.9688,115,147.9688,127,159.9688,115,171.9688,65,171.9688,53,159.9688,65,147.9688" style="stroke:#181818;stroke-width:0.5;"/><text fill="#000000" font-family="sans-serif" font-size="11" lengthAdjust="spacing" textLength="22" x="94" y="182.1792">&#27809;&#26377;</text><text fill="#000000" font-family="sans-serif" font-size="11" lengthAdjust="spacing" textLength="50" x="65" y="163.7769">&#21457;&#29983;&#38169;&#35823;?</text><rect fill="#F1F1F1" height="33.9688" rx="12.5" ry="12.5" style="stroke:#181818;stroke-width:0.5;" width="130" x="25" y="301.6567"/><text fill="#000000" font-family="sans-serif" font-size="12" lengthAdjust="spacing" textLength="110" x="35" y="322.7954">&#24377;&#31383; "&#25991;&#26412;&#36807;&#38271;&#38169;&#35823;"</text><polygon fill="#F1F1F1" points="90,50,102,62,90,74,78,62,90,50" style="stroke:#181818;stroke-width:0.5;"/><polygon fill="#F1F1F1" points="32,355.6255,148,355.6255,160,367.6255,148,379.6255,32,379.6255,20,367.6255,32,355.6255" style="stroke:#181818;stroke-width:0.5;"/><text fill="#000000" font-family="sans-serif" font-size="11" lengthAdjust="spacing" textLength="22" x="94" y="389.8359">&#19981;&#26159;</text><text fill="#000000" font-family="sans-serif" font-size="11" lengthAdjust="spacing" textLength="116" x="32" y="371.4336">&#26576;&#20107;&#21457;&#29983;&#25991;&#26412;&#36807;&#38271;&#38169;&#35823;?</text><text fill="#000000" font-family="sans-serif" font-size="11" lengthAdjust="spacing" textLength="22" x="160" y="365.0313">&#26159;&#30340;</text><polygon fill="#F1F1F1" points="90,411.3359,102,423.3359,90,435.3359,78,423.3359,90,411.3359" style="stroke:#181818;stroke-width:0.5;"/><rect fill="#F1F1F1" height="33.9688" rx="12.5" ry="12.5" style="stroke:#181818;stroke-width:0.5;" width="94" x="43" y="476.7349"/><text fill="#000000" font-family="sans-serif" font-size="12" lengthAdjust="spacing" textLength="74" x="53" y="497.8735">&#24377;&#31383; "&#25104;&#21151;&#65281;"</text><ellipse cx="90" cy="541.7036" fill="none" rx="11" ry="11" style="stroke:#222222;stroke-width:1.0;"/><ellipse cx="90" cy="541.7036" fill="#222222" rx="6" ry="6" style="stroke:#222222;stroke-width:1.0;"/><line style="stroke:#181818;stroke-width:1.0;" x1="90" x2="90" y1="230.3398" y2="243.2578"/><line style="stroke:#181818;stroke-width:1.0;" x1="90" x2="10" y1="243.2578" y2="243.2578"/><line style="stroke:#181818;stroke-width:1.0;" x1="10" x2="10" y1="243.2578" y2="423.3359"/><line style="stroke:#181818;stroke-width:1.0;" x1="10" x2="78" y1="423.3359" y2="423.3359"/><polygon fill="#181818" points="68,419.3359,78,423.3359,68,427.3359,72,423.3359" style="stroke:#181818;stroke-width:1.0;"/><line style="stroke:#181818;stroke-width:1.0;" x1="90" x2="90" y1="171.9688" y2="196.3711"/><polygon fill="#181818" points="86,186.3711,90,196.3711,94,186.3711,90,190.3711" style="stroke:#181818;stroke-width:1.0;"/><line style="stroke:#181818;stroke-width:1.0;" x1="127" x2="139" y1="159.9688" y2="159.9688"/><polygon fill="#181818" points="135,217.8555,139,227.8555,143,217.8555,139,221.8555" style="stroke:#181818;stroke-width:1.0;"/><line style="stroke:#181818;stroke-width:1.0;" x1="139" x2="139" y1="159.9688" y2="260.2578"/><line style="stroke:#181818;stroke-width:1.0;" x1="139" x2="90" y1="260.2578" y2="260.2578"/><line style="stroke:#181818;stroke-width:1.0;" x1="90" x2="90" y1="127.9688" y2="147.9688"/><polygon fill="#181818" points="86,137.9688,90,147.9688,94,137.9688,90,141.9688" style="stroke:#181818;stroke-width:1.0;"/><line style="stroke:#181818;stroke-width:1.0;" x1="90" x2="90" y1="260.2578" y2="301.6567"/><polygon fill="#181818" points="86,291.6567,90,301.6567,94,291.6567,90,295.6567" style="stroke:#181818;stroke-width:1.0;"/><text fill="#000000" font-family="sans-serif" font-size="11" lengthAdjust="spacing" textLength="35" x="94" y="281.5625">not ok</text><line style="stroke:#181818;stroke-width:1.0;" x1="90" x2="90" y1="74" y2="94"/><polygon fill="#181818" points="86,84,90,94,94,84,90,88" style="stroke:#181818;stroke-width:1.0;"/><line style="stroke:#181818;stroke-width:1.0;" x1="160" x2="172" y1="367.6255" y2="367.6255"/><polygon fill="#181818" points="168,238.2578,172,228.2578,176,238.2578,172,234.2578" style="stroke:#181818;stroke-width:1.0;"/><line style="stroke:#181818;stroke-width:1.0;" x1="172" x2="172" y1="62" y2="367.6255"/><line style="stroke:#181818;stroke-width:1.0;" x1="172" x2="102" y1="62" y2="62"/><polygon fill="#181818" points="112,58,102,62,112,66,108,62" style="stroke:#181818;stroke-width:1.0;"/><line style="stroke:#181818;stroke-width:1.0;" x1="90" x2="90" y1="335.6255" y2="355.6255"/><polygon fill="#181818" points="86,345.6255,90,355.6255,94,345.6255,90,349.6255" style="stroke:#181818;stroke-width:1.0;"/><line style="stroke:#181818;stroke-width:1.0;" x1="90" x2="90" y1="379.6255" y2="411.3359"/><polygon fill="#181818" points="86,401.3359,90,411.3359,94,401.3359,90,405.3359" style="stroke:#181818;stroke-width:1.0;"/><line style="stroke:#181818;stroke-width:1.0;" x1="90" x2="90" y1="30" y2="50"/><polygon fill="#181818" points="86,40,90,50,94,40,90,44" style="stroke:#181818;stroke-width:1.0;"/><line style="stroke:#181818;stroke-width:1.0;" x1="90" x2="90" y1="435.3359" y2="476.7349"/><polygon fill="#181818" points="86,466.7349,90,476.7349,94,466.7349,90,470.7349" style="stroke:#181818;stroke-width:1.0;"/><text fill="#000000" font-family="sans-serif" font-size="11" font-style="italic" lengthAdjust="spacing" textLength="44" x="94" y="456.6406">&#21512;&#24182;&#27493;&#39588;</text><line style="stroke:#181818;stroke-width:1.0;" x1="90" x2="90" y1="510.7036" y2="530.7036"/><polygon fill="#181818" points="86,520.7036,90,530.7036,94,520.7036,90,524.7036" style="stroke:#181818;stroke-width:1.0;"/><!--SRC=[POxB2e90543tViMbDhe8zmhrBKQtaa951re7GIyYWzu44jGc2Y4eAWf_fXbrrIyqQT2YtNqSECSXcaq46otKY02Wi5C_yYVCSv-tlieF07ePH3eSXMCl7YyYtoz8GAfeWCYEQxRgIWa4aBMqEbPiH4EXsqUuRAdVHz56hPRCQ9JqSZBbyeP9mAobZ4Blrt0tWmoRjjbg7mNjU1AaiepwROD6LQyZboPbQSy_pjjqXqDpdmT8y968pyk0xvAGoyioTJlqUcQ7RRpRoB8g_CmTb_Qyrxt9XGunhJS0]--></g></svg>