<svg xmlns="http://www.w3.org/2000/svg" xmlns:xlink="http://www.w3.org/1999/xlink" contentStyleType="text/css" data-diagram-type="YAML" height="249px" preserveAspectRatio="none" style="width:692px;height:249px;background:#FFFFFF;" version="1.1" viewBox="0 0 692 249" width="692px" zoomAndPan="magnify"><defs/><g><rect fill="#F1F1F1" height="142.0781" rx="5" ry="5" style="stroke:#F1F1F1;stroke-width:1.5;" width="286.6631" x="10" y="10"/><text fill="#000000" font-family="sans-serif" font-size="14" font-weight="bold" lengthAdjust="spacing" textLength="29.1348" x="15" y="24.9951">doe</text><text fill="#000000" font-family="sans-serif" font-size="14" lengthAdjust="spacing" textLength="151.4092" x="140.2539" y="24.9951">a deer, a female deer</text><line style="stroke:#000000;stroke-width:1;" x1="135.2539" x2="135.2539" y1="10" y2="30.2969"/><line style="stroke:#000000;stroke-width:1;" x1="10" x2="296.6631" y1="30.2969" y2="30.2969"/><text fill="#000000" font-family="sans-serif" font-size="14" font-weight="bold" lengthAdjust="spacing" textLength="25.4775" x="15" y="45.292">ray</text><text fill="#000000" font-family="sans-serif" font-size="14" lengthAdjust="spacing" textLength="144.7236" x="140.2539" y="45.292">a drop of golden sun</text><line style="stroke:#000000;stroke-width:1;" x1="135.2539" x2="135.2539" y1="30.2969" y2="50.5938"/><line style="stroke:#000000;stroke-width:1;" x1="10" x2="296.6631" y1="50.5938" y2="50.5938"/><text fill="#000000" font-family="sans-serif" font-size="14" font-weight="bold" lengthAdjust="spacing" textLength="14.8203" x="15" y="65.5889">pi</text><text fill="#000000" font-family="sans-serif" font-size="14" lengthAdjust="spacing" textLength="57.8936" x="140.2539" y="65.5889">3.14159</text><line style="stroke:#000000;stroke-width:1;" x1="135.2539" x2="135.2539" y1="50.5938" y2="70.8906"/><line style="stroke:#000000;stroke-width:1;" x1="10" x2="296.6631" y1="70.8906" y2="70.8906"/><text fill="#000000" font-family="sans-serif" font-size="14" font-weight="bold" lengthAdjust="spacing" textLength="41.3984" x="15" y="85.8857">xmas</text><text fill="#000000" font-family="sans-serif" font-size="14" lengthAdjust="spacing" textLength="28.7314" x="140.2539" y="85.8857">true</text><line style="stroke:#000000;stroke-width:1;" x1="135.2539" x2="135.2539" y1="70.8906" y2="91.1875"/><rect fill="#CCFF02" height="20.2969" rx="2" ry="2" style="stroke:#CCFF02;stroke-width:1;" width="284.6631" x="11.5" y="91.1875"/><line style="stroke:#000000;stroke-width:1;" x1="10" x2="296.6631" y1="91.1875" y2="91.1875"/><text fill="#000000" font-family="sans-serif" font-size="14" font-weight="bold" lengthAdjust="spacing" textLength="94.2949" x="15" y="106.1826">french-hens</text><text fill="#000000" font-family="sans-serif" font-size="14" lengthAdjust="spacing" textLength="8.9072" x="140.2539" y="106.1826">3</text><line style="stroke:#000000;stroke-width:1;" x1="135.2539" x2="135.2539" y1="91.1875" y2="111.4844"/><line style="stroke:#000000;stroke-width:1;" x1="10" x2="296.6631" y1="111.4844" y2="111.4844"/><text fill="#000000" font-family="sans-serif" font-size="14" font-weight="bold" lengthAdjust="spacing" textLength="98.0205" x="15" y="126.4795">calling-birds</text><text fill="#000000" font-family="sans-serif" font-size="14" lengthAdjust="spacing" textLength="13.3506" x="140.2539" y="126.4795">&#160;&#160;&#160;</text><line style="stroke:#000000;stroke-width:1;" x1="135.2539" x2="135.2539" y1="111.4844" y2="131.7813"/><line style="stroke:#000000;stroke-width:1;" x1="10" x2="296.6631" y1="131.7813" y2="131.7813"/><text fill="#000000" font-family="sans-serif" font-size="14" font-weight="bold" lengthAdjust="spacing" textLength="115.2539" x="15" y="146.7764">xmas-fifth-day</text><text fill="#000000" font-family="sans-serif" font-size="14" lengthAdjust="spacing" textLength="13.3506" x="140.2539" y="146.7764">&#160;&#160;&#160;</text><line style="stroke:#000000;stroke-width:1;" x1="135.2539" x2="135.2539" y1="131.7813" y2="152.0781"/><rect fill="#FFFFFF" fill-opacity="0.00000" height="142.0781" rx="5" ry="5" style="stroke:#000000;stroke-width:1.5;" width="286.6631" x="10" y="10"/><rect fill="#F1F1F1" height="81.1875" rx="5" ry="5" style="stroke:#F1F1F1;stroke-width:1.5;" width="55.8486" x="380" y="37.4453"/><text fill="#000000" font-family="sans-serif" font-size="14" lengthAdjust="spacing" textLength="34.6445" x="385" y="52.4404">huey</text><line style="stroke:#000000;stroke-width:1;" x1="380" x2="435.8486" y1="57.7422" y2="57.7422"/><text fill="#000000" font-family="sans-serif" font-size="14" lengthAdjust="spacing" textLength="45.8486" x="385" y="72.7373">dewey</text><line style="stroke:#000000;stroke-width:1;" x1="380" x2="435.8486" y1="78.0391" y2="78.0391"/><text fill="#000000" font-family="sans-serif" font-size="14" lengthAdjust="spacing" textLength="33.8311" x="385" y="93.0342">louie</text><line style="stroke:#000000;stroke-width:1;" x1="380" x2="435.8486" y1="98.3359" y2="98.3359"/><text fill="#000000" font-family="sans-serif" font-size="14" lengthAdjust="spacing" textLength="28.1846" x="385" y="113.3311">fred</text><rect fill="#FFFFFF" fill-opacity="0.00000" height="81.1875" rx="5" ry="5" style="stroke:#000000;stroke-width:1.5;" width="55.8486" x="380" y="37.4453"/><rect fill="#F1F1F1" height="101.4844" rx="5" ry="5" style="stroke:#F1F1F1;stroke-width:1.5;" width="147.8799" x="334" y="136.2969"/><text fill="#000000" font-family="sans-serif" font-size="14" font-weight="bold" lengthAdjust="spacing" textLength="98.0205" x="339" y="151.292">calling-birds</text><text fill="#000000" font-family="sans-serif" font-size="14" lengthAdjust="spacing" textLength="28.123" x="448.7568" y="151.292">four</text><line style="stroke:#000000;stroke-width:1;" x1="443.7568" x2="443.7568" y1="136.2969" y2="156.5938"/><line style="stroke:#000000;stroke-width:1;" x1="334" x2="481.8799" y1="156.5938" y2="156.5938"/><text fill="#000000" font-family="sans-serif" font-size="14" font-weight="bold" lengthAdjust="spacing" textLength="94.2949" x="339" y="171.5889">french-hens</text><text fill="#000000" font-family="sans-serif" font-size="14" lengthAdjust="spacing" textLength="8.9072" x="448.7568" y="171.5889">3</text><line style="stroke:#000000;stroke-width:1;" x1="443.7568" x2="443.7568" y1="156.5938" y2="176.8906"/><line style="stroke:#000000;stroke-width:1;" x1="334" x2="481.8799" y1="176.8906" y2="176.8906"/><text fill="#000000" font-family="sans-serif" font-size="14" font-weight="bold" lengthAdjust="spacing" textLength="99.7568" x="339" y="191.8857">golden-rings</text><text fill="#000000" font-family="sans-serif" font-size="14" lengthAdjust="spacing" textLength="8.9072" x="448.7568" y="191.8857">5</text><line style="stroke:#000000;stroke-width:1;" x1="443.7568" x2="443.7568" y1="176.8906" y2="197.1875"/><rect fill="#CCFF02" height="20.2969" rx="2" ry="2" style="stroke:#CCFF02;stroke-width:1;" width="145.8799" x="335.5" y="197.1875"/><line style="stroke:#000000;stroke-width:1;" x1="334" x2="481.8799" y1="197.1875" y2="197.1875"/><text fill="#000000" font-family="sans-serif" font-size="14" font-weight="bold" lengthAdjust="spacing" textLength="82.6396" x="339" y="212.1826">partridges</text><text fill="#000000" font-family="sans-serif" font-size="14" lengthAdjust="spacing" textLength="13.3506" x="448.7568" y="212.1826">&#160;&#160;&#160;</text><line style="stroke:#000000;stroke-width:1;" x1="443.7568" x2="443.7568" y1="197.1875" y2="217.4844"/><line style="stroke:#000000;stroke-width:1;" x1="334" x2="481.8799" y1="217.4844" y2="217.4844"/><text fill="#000000" font-family="sans-serif" font-size="14" font-weight="bold" lengthAdjust="spacing" textLength="96.9541" x="339" y="232.4795">turtle-doves</text><text fill="#000000" font-family="sans-serif" font-size="14" lengthAdjust="spacing" textLength="25.5049" x="448.7568" y="232.4795">two</text><line style="stroke:#000000;stroke-width:1;" x1="443.7568" x2="443.7568" y1="217.4844" y2="237.7813"/><rect fill="#FFFFFF" fill-opacity="0.00000" height="101.4844" rx="5" ry="5" style="stroke:#000000;stroke-width:1.5;" width="147.8799" x="334" y="136.2969"/><rect fill="#F1F1F1" height="40.5938" rx="5" ry="5" style="stroke:#F1F1F1;stroke-width:1.5;" width="161.0254" x="519" y="186.5391"/><text fill="#000000" font-family="sans-serif" font-size="14" font-weight="bold" lengthAdjust="spacing" textLength="44.543" x="524" y="201.5342">count</text><text fill="#000000" font-family="sans-serif" font-size="14" lengthAdjust="spacing" textLength="8.9072" x="597.2393" y="201.5342">1</text><line style="stroke:#000000;stroke-width:1;" x1="592.2393" x2="592.2393" y1="186.5391" y2="206.8359"/><line style="stroke:#000000;stroke-width:1;" x1="519" x2="680.0254" y1="206.8359" y2="206.8359"/><text fill="#000000" font-family="sans-serif" font-size="14" font-weight="bold" lengthAdjust="spacing" textLength="63.2393" x="524" y="221.8311">location</text><text fill="#000000" font-family="sans-serif" font-size="14" lengthAdjust="spacing" textLength="77.7861" x="597.2393" y="221.8311">a pear tree</text><line style="stroke:#000000;stroke-width:1;" x1="592.2393" x2="592.2393" y1="206.8359" y2="227.1328"/><rect fill="#FFFFFF" fill-opacity="0.00000" height="40.5938" rx="5" ry="5" style="stroke:#000000;stroke-width:1.5;" width="161.0254" x="519" y="186.5391"/><path d="M285,122.0391 L298,122.0391 C324.6901,122.0391 352.5721,110.6448 373.5213,99.453 " fill="#FFFFFF" fill-opacity="0.00000" style="stroke:#000000;stroke-width:1;stroke-dasharray:3.0,3.0;"/><path d="M375.0297,102.1838 L375.5694,98.3217 L372.0129,96.7222 L380.3483,95.682 L375.0297,102.1838 " fill="#000000" style="stroke:#000000;stroke-width:1;"/><ellipse cx="285" cy="122.0391" fill="#000000" rx="3" ry="3" style="stroke:#000000;stroke-width:1;"/><path d="M470,207.0391 L483,207.0391 C492.2961,207.0391 502.0113,207.0391 511.6922,207.0391 " fill="#FFFFFF" fill-opacity="0.00000" style="stroke:#000000;stroke-width:1;stroke-dasharray:3.0,3.0;"/><path d="M511.6922,210.1382 L514.0166,207.0391 L511.6922,203.9399 L519.4401,207.0391 L511.6922,210.1382 " fill="#000000" style="stroke:#000000;stroke-width:1;"/><ellipse cx="470" cy="207.0391" fill="#000000" rx="3" ry="3" style="stroke:#000000;stroke-width:1;"/><path d="M285,142.0391 L298,142.0391 C307.6632,142.0391 317.4703,143.5569 327.0426,146.035 " fill="#FFFFFF" fill-opacity="0.00000" style="stroke:#000000;stroke-width:1;stroke-dasharray:3.0,3.0;"/><path d="M326.2134,148.9422 L329.223,146.6569 L327.8718,143.1278 L334.3105,148.108 L326.2134,148.9422 " fill="#000000" style="stroke:#000000;stroke-width:1;"/><ellipse cx="285" cy="142.0391" fill="#000000" rx="3" ry="3" style="stroke:#000000;stroke-width:1;"/><!--SRC=[NL31Rjim33sRNq5ubnQOihbhXiwdOkis84lGObrwPopQ5YPJXYmboz-FJZ1qxS4mHRv7llTkfqGn7MdmyAPtNU_rIrYsaQNfJSyobIy6VmQQJElQr1jBnnBVOJdgWkXinme56xZ6aj0onxT8sF90da_F4Y8TpyCOHWmjTi5R5foob32w6Zyigkjg-Gdc8pMcc1d-4w9pQCXx9vtPkMYr0ON1FlDn_bi-d0iVikEvKAw5bu9dogiTRSWHYbTtYhCq4nMeZIKKpoxd7KKJigGQAorzQ2Yv82Th8rDKvSmb52d7vDdOi9z9wH3WbiMUieO7JvAscpNkEKvAncfnzVvgkQXsdEZcOYk_9Hm4cp2CJlDBRk1BkFZ-iCP9zJQQg9jKpoxFbozXHNl2dof9SJNUZoohkn__6lXLzYu66LWIh9uspu2Fr-QpI_Z8KMNWqmRkkANiapAQODLxZTjVtymDh4cwJ9tkPe4li_UeMMuV_m80]--></g></svg>