<svg xmlns="http://www.w3.org/2000/svg" xmlns:xlink="http://www.w3.org/1999/xlink" contentStyleType="text/css" height="563px" preserveAspectRatio="none" style="width:299px;height:563px;background:#FFFFFF;" version="1.1" viewBox="0 0 299 563" width="299px" zoomAndPan="magnify"><defs/><g><ellipse cx="140.5" cy="20" fill="#222222" rx="10" ry="10" style="stroke:#222222;stroke-width:1.0;"/><rect fill="#F1F1F1" height="33.9688" rx="12.5" ry="12.5" style="stroke:#181818;stroke-width:0.5;" width="117" x="82" y="94"/><text fill="#000000" font-family="sans-serif" font-size="12" lengthAdjust="spacing" textLength="97" x="92" y="115.1387">Test something</text><rect fill="#98FB98" height="33.9688" rx="12.5" ry="12.5" style="stroke:#181818;stroke-width:0.5;" width="36" x="122.5" y="196.3711"/><text fill="#000000" font-family="sans-serif" font-size="12" lengthAdjust="spacing" textLength="16" x="132.5" y="217.5098">OK</text><polygon fill="#F1F1F1" points="72,147.9688,209,147.9688,221,159.9688,209,171.9688,72,171.9688,60,159.9688,72,147.9688" style="stroke:#181818;stroke-width:0.5;"/><text fill="#000000" font-family="sans-serif" font-size="11" lengthAdjust="spacing" textLength="14" x="144.5" y="182.1792">no</text><text fill="#000000" font-family="sans-serif" font-size="11" lengthAdjust="spacing" textLength="137" x="72" y="163.7769">Something went wrong?</text><rect fill="#F1F1F1" height="33.9688" rx="12.5" ry="12.5" style="stroke:#181818;stroke-width:0.5;" width="182" x="49.5" y="301.6567"/><text fill="#000000" font-family="sans-serif" font-size="12" lengthAdjust="spacing" textLength="162" x="59.5" y="322.7954">Alert "Error with long text"</text><polygon fill="#F1F1F1" points="140.5,50,152.5,62,140.5,74,128.5,62,140.5,50" style="stroke:#181818;stroke-width:0.5;"/><polygon fill="#F1F1F1" points="32,355.6255,249,355.6255,261,367.6255,249,379.6255,32,379.6255,20,367.6255,32,355.6255" style="stroke:#181818;stroke-width:0.5;"/><text fill="#000000" font-family="sans-serif" font-size="11" lengthAdjust="spacing" textLength="14" x="144.5" y="389.8359">no</text><text fill="#000000" font-family="sans-serif" font-size="11" lengthAdjust="spacing" textLength="217" x="32" y="371.4336">Something went wrong with long text?</text><text fill="#000000" font-family="sans-serif" font-size="11" lengthAdjust="spacing" textLength="20" x="261" y="365.0313">yes</text><polygon fill="#F1F1F1" points="140.5,411.3359,152.5,423.3359,140.5,435.3359,128.5,423.3359,140.5,411.3359" style="stroke:#181818;stroke-width:0.5;"/><rect fill="#F1F1F1" height="33.9688" rx="12.5" ry="12.5" style="stroke:#181818;stroke-width:0.5;" width="115" x="83" y="476.7349"/><text fill="#000000" font-family="sans-serif" font-size="12" lengthAdjust="spacing" textLength="95" x="93" y="497.8735">Alert "Success"</text><ellipse cx="140.5" cy="541.7036" fill="none" rx="11" ry="11" style="stroke:#222222;stroke-width:1.0;"/><ellipse cx="140.5" cy="541.7036" fill="#222222" rx="6" ry="6" style="stroke:#222222;stroke-width:1.0;"/><line style="stroke:#181818;stroke-width:1.0;" x1="140.5" x2="140.5" y1="230.3398" y2="243.2578"/><line style="stroke:#181818;stroke-width:1.0;" x1="140.5" x2="10" y1="243.2578" y2="243.2578"/><line style="stroke:#181818;stroke-width:1.0;" x1="10" x2="10" y1="243.2578" y2="423.3359"/><line style="stroke:#181818;stroke-width:1.0;" x1="10" x2="128.5" y1="423.3359" y2="423.3359"/><polygon fill="#181818" points="118.5,419.3359,128.5,423.3359,118.5,427.3359,122.5,423.3359" style="stroke:#181818;stroke-width:1.0;"/><line style="stroke:#181818;stroke-width:1.0;" x1="140.5" x2="140.5" y1="171.9688" y2="196.3711"/><polygon fill="#181818" points="136.5,186.3711,140.5,196.3711,144.5,186.3711,140.5,190.3711" style="stroke:#181818;stroke-width:1.0;"/><line style="stroke:#181818;stroke-width:1.0;" x1="221" x2="233" y1="159.9688" y2="159.9688"/><polygon fill="#181818" points="229,217.8555,233,227.8555,237,217.8555,233,221.8555" style="stroke:#181818;stroke-width:1.0;"/><line style="stroke:#181818;stroke-width:1.0;" x1="233" x2="233" y1="159.9688" y2="260.2578"/><line style="stroke:#181818;stroke-width:1.0;" x1="233" x2="140.5" y1="260.2578" y2="260.2578"/><line style="stroke:#181818;stroke-width:1.0;" x1="140.5" x2="140.5" y1="127.9688" y2="147.9688"/><polygon fill="#181818" points="136.5,137.9688,140.5,147.9688,144.5,137.9688,140.5,141.9688" style="stroke:#181818;stroke-width:1.0;"/><line style="stroke:#181818;stroke-width:1.0;" x1="140.5" x2="140.5" y1="260.2578" y2="301.6567"/><polygon fill="#181818" points="136.5,291.6567,140.5,301.6567,144.5,291.6567,140.5,295.6567" style="stroke:#181818;stroke-width:1.0;"/><text fill="#000000" font-family="sans-serif" font-size="11" lengthAdjust="spacing" textLength="24" x="144.5" y="281.5625">NOK</text><line style="stroke:#181818;stroke-width:1.0;" x1="140.5" x2="140.5" y1="74" y2="94"/><polygon fill="#181818" points="136.5,84,140.5,94,144.5,84,140.5,88" style="stroke:#181818;stroke-width:1.0;"/><line style="stroke:#181818;stroke-width:1.0;" x1="261" x2="273" y1="367.6255" y2="367.6255"/><polygon fill="#181818" points="269,238.2578,273,228.2578,277,238.2578,273,234.2578" style="stroke:#181818;stroke-width:1.0;"/><line style="stroke:#181818;stroke-width:1.0;" x1="273" x2="273" y1="62" y2="367.6255"/><line style="stroke:#181818;stroke-width:1.0;" x1="273" x2="152.5" y1="62" y2="62"/><polygon fill="#181818" points="162.5,58,152.5,62,162.5,66,158.5,62" style="stroke:#181818;stroke-width:1.0;"/><line style="stroke:#181818;stroke-width:1.0;" x1="140.5" x2="140.5" y1="335.6255" y2="355.6255"/><polygon fill="#181818" points="136.5,345.6255,140.5,355.6255,144.5,345.6255,140.5,349.6255" style="stroke:#181818;stroke-width:1.0;"/><line style="stroke:#181818;stroke-width:1.0;" x1="140.5" x2="140.5" y1="379.6255" y2="411.3359"/><polygon fill="#181818" points="136.5,401.3359,140.5,411.3359,144.5,401.3359,140.5,405.3359" style="stroke:#181818;stroke-width:1.0;"/><line style="stroke:#181818;stroke-width:1.0;" x1="140.5" x2="140.5" y1="30" y2="50"/><polygon fill="#181818" points="136.5,40,140.5,50,144.5,40,140.5,44" style="stroke:#181818;stroke-width:1.0;"/><line style="stroke:#181818;stroke-width:1.0;" x1="140.5" x2="140.5" y1="435.3359" y2="476.7349"/><polygon fill="#181818" points="136.5,466.7349,140.5,476.7349,144.5,466.7349,140.5,470.7349" style="stroke:#181818;stroke-width:1.0;"/><text fill="#000000" font-family="sans-serif" font-size="11" font-style="italic" lengthAdjust="spacing" textLength="73" x="144.5" y="456.6406">merged step</text><line style="stroke:#181818;stroke-width:1.0;" x1="140.5" x2="140.5" y1="510.7036" y2="530.7036"/><polygon fill="#181818" points="136.5,520.7036,140.5,530.7036,144.5,520.7036,140.5,524.7036" style="stroke:#181818;stroke-width:1.0;"/><!--SRC=[ROun3e9G44HxJZ7H1Wf33md6mif42xq0oW0_ulzaTmrwUmb2O-mcBxCxJwqKYuGzIuk0x48rQ7ZGMkURV4I0gn6V5uI1tZ18yCqsWRNqY7r8fYAmxikEZP0-Ento6Lw5vNtAz9MhfxGfZaiXstKKmsel4WI3inRT-1t6bwtosGr3wph-z_Yv6RMS8dvJ4_XWNxrDaQOFIiCAQkpJD8-MtVFpTgFgEAKM-Wy0]--></g></svg>