<?xml version="1.0" encoding="us-ascii" standalone="no"?><svg xmlns="http://www.w3.org/2000/svg" xmlns:xlink="http://www.w3.org/1999/xlink" contentStyleType="text/css" height="216px" preserveAspectRatio="none" style="width:396px;height:216px;background:#FFFFFF;" version="1.1" viewBox="0 0 396 216" width="396px" zoomAndPan="magnify"><defs/><g><!--class Foo1--><g id="elem_Foo1"><rect codeLine="1" fill="#F1F1F1" height="202.375" id="Foo1" rx="2.5" ry="2.5" style="stroke:#181818;stroke-width:0.5;" width="220" x="7" y="7.5"/><ellipse cx="95.25" cy="23.5" fill="#ADD1B2" rx="11" ry="11" style="stroke:#181818;stroke-width:1.0;"/><path d="M97.5938,19.1719 C96.6563,18.7344 96.0625,18.5938 95.1875,18.5938 C92.5625,18.5938 90.5625,20.6719 90.5625,23.3906 L90.5625,24.5156 C90.5625,27.0938 92.6719,28.9844 95.5625,28.9844 C96.7813,28.9844 97.9375,28.6875 98.6875,28.1406 C99.2656,27.7344 99.5938,27.2813 99.5938,26.8906 C99.5938,26.4375 99.2031,26.0469 98.7344,26.0469 C98.5156,26.0469 98.3125,26.125 98.125,26.3125 C97.6719,26.7969 97.6719,26.7969 97.4844,26.8906 C97.0625,27.1563 96.375,27.2813 95.6094,27.2813 C93.5625,27.2813 92.2656,26.1875 92.2656,24.4844 L92.2656,23.3906 C92.2656,21.6094 93.5156,20.2969 95.25,20.2969 C95.8281,20.2969 96.4375,20.4531 96.9063,20.7031 C97.3906,20.9844 97.5625,21.2031 97.6563,21.6094 C97.7188,22.0156 97.75,22.1406 97.8906,22.2656 C98.0313,22.4063 98.2656,22.5156 98.4844,22.5156 C98.75,22.5156 99.0156,22.375 99.1875,22.1563 C99.2969,22 99.3281,21.8125 99.3281,21.3906 L99.3281,19.9688 C99.3281,19.5313 99.3125,19.4063 99.2188,19.25 C99.0625,18.9844 98.7813,18.8438 98.4844,18.8438 C98.1875,18.8438 97.9844,18.9375 97.7656,19.25 L97.5938,19.1719 Z " fill="#000000"/><text fill="#000000" font-family="sans-serif" font-size="14" lengthAdjust="spacing" textLength="35" x="115.75" y="28.3467">Foo1</text><line style="stroke:#181818;stroke-width:0.5;" x1="8" x2="226" y1="39.5" y2="39.5"/><text fill="#000000" font-family="sans-serif" font-size="14" lengthAdjust="spacing" textLength="83" x="13" y="56.4951">You can use</text><text fill="#000000" font-family="sans-serif" font-size="14" lengthAdjust="spacing" textLength="88" x="13" y="72.792">several lines</text><line style="stroke:#181818;stroke-width:1.0;stroke-dasharray:1.0,2.0;" x1="8" x2="226" y1="80.0938" y2="80.0938"/><text fill="#000000" font-family="sans-serif" font-size="14" lengthAdjust="spacing" textLength="83" x="13" y="97.0889">as you want</text><text fill="#000000" font-family="sans-serif" font-size="14" lengthAdjust="spacing" textLength="72" x="13" y="113.3857">and group</text><line style="stroke:#181818;stroke-width:1.0;" x1="8" x2="226" y1="120.6875" y2="120.6875"/><line style="stroke:#181818;stroke-width:1.0;" x1="8" x2="226" y1="122.6875" y2="122.6875"/><text fill="#000000" font-family="sans-serif" font-size="14" lengthAdjust="spacing" textLength="119" x="13" y="137.6826">things together.</text><line style="stroke:#181818;stroke-width:0.5;" x1="8" x2="226" y1="144.9844" y2="144.9844"/><text fill="#000000" font-family="sans-serif" font-size="14" lengthAdjust="spacing" textLength="208" x="13" y="161.9795">You can have as many groups</text><text fill="#000000" font-family="sans-serif" font-size="14" lengthAdjust="spacing" textLength="83" x="13" y="178.2764">as you want</text><line style="stroke:#181818;stroke-width:1.0;" x1="8" x2="226" y1="185.5781" y2="185.5781"/><text fill="#000000" font-family="sans-serif" font-size="14" lengthAdjust="spacing" textLength="84" x="13" y="202.5732">End of class</text></g><!--class User--><g id="elem_User"><rect codeLine="16" fill="#F1F1F1" height="202.6719" id="User" rx="2.5" ry="2.5" style="stroke:#181818;stroke-width:0.5;" width="127" x="262.5" y="7"/><ellipse cx="306.3" cy="23" fill="#ADD1B2" rx="11" ry="11" style="stroke:#181818;stroke-width:1.0;"/><path d="M308.6438,18.6719 C307.7063,18.2344 307.1125,18.0938 306.2375,18.0938 C303.6125,18.0938 301.6125,20.1719 301.6125,22.8906 L301.6125,24.0156 C301.6125,26.5938 303.7219,28.4844 306.6125,28.4844 C307.8313,28.4844 308.9875,28.1875 309.7375,27.6406 C310.3156,27.2344 310.6438,26.7813 310.6438,26.3906 C310.6438,25.9375 310.2531,25.5469 309.7844,25.5469 C309.5656,25.5469 309.3625,25.625 309.175,25.8125 C308.7219,26.2969 308.7219,26.2969 308.5344,26.3906 C308.1125,26.6563 307.425,26.7813 306.6594,26.7813 C304.6125,26.7813 303.3156,25.6875 303.3156,23.9844 L303.3156,22.8906 C303.3156,21.1094 304.5656,19.7969 306.3,19.7969 C306.8781,19.7969 307.4875,19.9531 307.9563,20.2031 C308.4406,20.4844 308.6125,20.7031 308.7063,21.1094 C308.7688,21.5156 308.8,21.6406 308.9406,21.7656 C309.0813,21.9063 309.3156,22.0156 309.5344,22.0156 C309.8,22.0156 310.0656,21.875 310.2375,21.6563 C310.3469,21.5 310.3781,21.3125 310.3781,20.8906 L310.3781,19.4688 C310.3781,19.0313 310.3625,18.9063 310.2688,18.75 C310.1125,18.4844 309.8313,18.3438 309.5344,18.3438 C309.2375,18.3438 309.0344,18.4375 308.8156,18.75 L308.6438,18.6719 Z " fill="#000000"/><text fill="#000000" font-family="sans-serif" font-size="14" lengthAdjust="spacing" textLength="31" x="326.7" y="27.8467">User</text><line style="stroke:#181818;stroke-width:0.5;" x1="263.5" x2="388.5" y1="39" y2="39"/><ellipse cx="273.5" cy="72.9453" fill="#84BE84" rx="3" ry="3" style="stroke:#038048;stroke-width:1.0;"/><text fill="#000000" font-family="sans-serif" font-size="14" lengthAdjust="spacing" textLength="76" x="282.5" y="76.292">getName()</text><ellipse cx="273.5" cy="89.2422" fill="#84BE84" rx="3" ry="3" style="stroke:#038048;stroke-width:1.0;"/><text fill="#000000" font-family="sans-serif" font-size="14" lengthAdjust="spacing" textLength="92" x="282.5" y="92.5889">getAddress()</text><line style="stroke:#181818;stroke-width:1.0;stroke-dasharray:1.0,2.0;" x1="263.5" x2="274.5" y1="55.1484" y2="55.1484"/><text fill="#000000" font-family="sans-serif" font-size="14" lengthAdjust="spacing" textLength="103" x="274.5" y="59.4951">Simple Getter</text><line style="stroke:#181818;stroke-width:1.0;stroke-dasharray:1.0,2.0;" x1="377.5" x2="388.5" y1="55.1484" y2="55.1484"/><ellipse cx="273.5" cy="125.8359" fill="#84BE84" rx="3" ry="3" style="stroke:#038048;stroke-width:1.0;"/><text fill="#000000" font-family="sans-serif" font-size="14" lengthAdjust="spacing" textLength="74" x="282.5" y="129.1826">setName()</text><line style="stroke:#181818;stroke-width:1.0;stroke-dasharray:1.0,2.0;" x1="263.5" x2="281" y1="108.0391" y2="108.0391"/><text fill="#000000" font-family="sans-serif" font-size="14" lengthAdjust="spacing" textLength="90" x="281" y="112.3857">Some setter</text><line style="stroke:#181818;stroke-width:1.0;stroke-dasharray:1.0,2.0;" x1="371" x2="388.5" y1="108.0391" y2="108.0391"/><text fill="#000000" font-family="sans-serif" font-size="14" lengthAdjust="spacing" textLength="50" x="268.5" y="165.7764">int age</text><line style="stroke:#181818;stroke-width:0.5;" x1="263.5" x2="282" y1="144.6328" y2="144.6328"/><text fill="#000000" font-family="sans-serif" font-size="14" lengthAdjust="spacing" textLength="88" x="282" y="148.9795">private data</text><line style="stroke:#181818;stroke-width:0.5;" x1="370" x2="388.5" y1="144.6328" y2="144.6328"/><text fill="#000000" font-family="sans-serif" font-size="14" lengthAdjust="spacing" textLength="115" x="268.5" y="202.3701">String password</text><line style="stroke:#181818;stroke-width:1.0;" x1="263.5" x2="288.5" y1="181.2266" y2="181.2266"/><text fill="#000000" font-family="sans-serif" font-size="14" lengthAdjust="spacing" textLength="75" x="288.5" y="185.5732">encrypted</text><line style="stroke:#181818;stroke-width:1.0;" x1="363.5" x2="388.5" y1="181.2266" y2="181.2266"/></g><!--SRC=[PO-nQiGm44HxVSMKES8PyW5Nf4ZIfJbIf3ABjR45jcIqQnyctB_VIYPWI3FiB9hHssua4Rodz89V1tod1Hr5BCBcX5VED68CaSLyqvYGOBDNDufQNFJeSrfccoyN4nr2x0MQUjQ1SqcqxQ5ve9LBnqHnsvFoh_HyDdcpvlI3hW2wktDrm9TmhgHDWskOvf7nmQgsh73Fi6y_QUAdqvzxzJwpI5sKK9hO3Zj6v11fMymvhAGCJqexUuWAwhcIWMENjrdPxvXNpNOmPeExfUpT_G40]--></g></svg>