<svg xmlns="http://www.w3.org/2000/svg" xmlns:xlink="http://www.w3.org/1999/xlink" contentStyleType="text/css" data-diagram-type="CLASS" height="216px" preserveAspectRatio="none" style="width:397px;height:216px;background:#FFFFFF;" version="1.1" viewBox="0 0 397 216" width="397px" zoomAndPan="magnify"><defs/><g><!--class Foo1--><g class="entity" data-entity="Foo1" data-source-line="1" data-uid="ent0002" id="entity_Foo1"><rect fill="#F1F1F1" height="202.375" rx="2.5" ry="2.5" style="stroke:#181818;stroke-width:0.5;" width="223.251" x="7" y="7.15"/><ellipse cx="97.3301" cy="23.15" fill="#ADD1B2" rx="11" ry="11" style="stroke:#181818;stroke-width:1;"/><path d="M100.2988,28.7906 Q99.7207,29.0875 99.0801,29.2281 Q98.4395,29.3844 97.7363,29.3844 Q95.2363,29.3844 93.9082,27.7437 Q92.5957,26.0875 92.5957,22.9625 Q92.5957,19.8375 93.9082,18.1812 Q95.2363,16.525 97.7363,16.525 Q98.4395,16.525 99.0801,16.6812 Q99.7363,16.8375 100.2988,17.1344 L100.2988,19.8531 Q99.6738,19.275 99.0801,19.0094 Q98.4863,18.7281 97.8613,18.7281 Q96.5176,18.7281 95.8301,19.8062 Q95.1426,20.8687 95.1426,22.9625 Q95.1426,25.0562 95.8301,26.1344 Q96.5176,27.1969 97.8613,27.1969 Q98.4863,27.1969 99.0801,26.9312 Q99.6738,26.65 100.2988,26.0719 L100.2988,28.7906 Z " fill="#000000"/><text fill="#000000" font-family="sans-serif" font-size="14" lengthAdjust="spacing" textLength="34.0908" x="117.8301" y="27.9967">Foo1</text><line style="stroke:#181818;stroke-width:0.5;" x1="8" x2="229.251" y1="39.15" y2="39.15"/><text fill="#000000" font-family="sans-serif" font-size="14" lengthAdjust="spacing" textLength="84.8203" x="13" y="56.1451">You can use</text><text fill="#000000" font-family="sans-serif" font-size="14" lengthAdjust="spacing" textLength="88.04" x="13" y="72.442">several lines</text><line style="stroke:#181818;stroke-width:1;stroke-dasharray:1,2;" x1="8" x2="229.251" y1="79.7437" y2="79.7437"/><text fill="#000000" font-family="sans-serif" font-size="14" lengthAdjust="spacing" textLength="84.8887" x="13" y="96.7389">as you want</text><text fill="#000000" font-family="sans-serif" font-size="14" lengthAdjust="spacing" textLength="71.7568" x="13" y="113.0357">and group</text><line style="stroke:#181818;stroke-width:1;" x1="8" x2="229.251" y1="120.3375" y2="120.3375"/><line style="stroke:#181818;stroke-width:1;" x1="8" x2="229.251" y1="122.3375" y2="122.3375"/><text fill="#000000" font-family="sans-serif" font-size="14" lengthAdjust="spacing" textLength="112.4922" x="13" y="137.3326">things together.</text><line style="stroke:#181818;stroke-width:0.5;" x1="8" x2="229.251" y1="144.6344" y2="144.6344"/><text fill="#000000" font-family="sans-serif" font-size="14" lengthAdjust="spacing" textLength="211.251" x="13" y="161.6295">You can have as many groups</text><text fill="#000000" font-family="sans-serif" font-size="14" lengthAdjust="spacing" textLength="84.8887" x="13" y="177.9264">as you want</text><line style="stroke:#181818;stroke-width:1;" x1="8" x2="229.251" y1="185.2281" y2="185.2281"/><text fill="#000000" font-family="sans-serif" font-size="14" lengthAdjust="spacing" textLength="83.7539" x="13" y="202.2232">End of class</text></g><!--class User--><g class="entity" data-entity="User" data-source-line="16" data-uid="ent0003" id="entity_User"><rect fill="#F1F1F1" height="202.6719" rx="2.5" ry="2.5" style="stroke:#181818;stroke-width:0.5;" width="124.9434" x="265.15" y="7"/><ellipse cx="307.6149" cy="23" fill="#ADD1B2" rx="11" ry="11" style="stroke:#181818;stroke-width:1;"/><path d="M310.5837,28.6406 Q310.0056,28.9375 309.3649,29.0781 Q308.7243,29.2344 308.0212,29.2344 Q305.5212,29.2344 304.1931,27.5938 Q302.8806,25.9375 302.8806,22.8125 Q302.8806,19.6875 304.1931,18.0313 Q305.5212,16.375 308.0212,16.375 Q308.7243,16.375 309.3649,16.5313 Q310.0212,16.6875 310.5837,16.9844 L310.5837,19.7031 Q309.9587,19.125 309.3649,18.8594 Q308.7712,18.5781 308.1462,18.5781 Q306.8024,18.5781 306.1149,19.6563 Q305.4274,20.7188 305.4274,22.8125 Q305.4274,24.9063 306.1149,25.9844 Q306.8024,27.0469 308.1462,27.0469 Q308.7712,27.0469 309.3649,26.7813 Q309.9587,26.5 310.5837,25.9219 L310.5837,28.6406 Z " fill="#000000"/><text fill="#000000" font-family="sans-serif" font-size="14" lengthAdjust="spacing" textLength="31.9102" x="327.7183" y="27.8467">User</text><line style="stroke:#181818;stroke-width:0.5;" x1="266.15" x2="389.0934" y1="39" y2="39"/><ellipse cx="276.15" cy="72.9453" fill="#84BE84" rx="3" ry="3" style="stroke:#038048;stroke-width:1;"/><text fill="#000000" font-family="sans-serif" font-size="14" lengthAdjust="spacing" textLength="75.2158" x="285.15" y="76.292">getName()</text><ellipse cx="276.15" cy="89.2422" fill="#84BE84" rx="3" ry="3" style="stroke:#038048;stroke-width:1;"/><text fill="#000000" font-family="sans-serif" font-size="14" lengthAdjust="spacing" textLength="90.2207" x="285.15" y="92.5889">getAddress()</text><line style="stroke:#181818;stroke-width:1;stroke-dasharray:1,2;" x1="266.15" x2="279.0899" y1="55.1484" y2="55.1484"/><text fill="#000000" font-family="sans-serif" font-size="14" lengthAdjust="spacing" textLength="97.0635" x="279.0899" y="59.4951">Simple Getter</text><line style="stroke:#181818;stroke-width:1;stroke-dasharray:1,2;" x1="376.1534" x2="389.0934" y1="55.1484" y2="55.1484"/><ellipse cx="276.15" cy="125.8359" fill="#84BE84" rx="3" ry="3" style="stroke:#038048;stroke-width:1;"/><text fill="#000000" font-family="sans-serif" font-size="14" lengthAdjust="spacing" textLength="73.623" x="285.15" y="129.1826">setName()</text><line style="stroke:#181818;stroke-width:1;stroke-dasharray:1,2;" x1="266.15" x2="284.9176" y1="108.0391" y2="108.0391"/><text fill="#000000" font-family="sans-serif" font-size="14" lengthAdjust="spacing" textLength="85.4082" x="284.9176" y="112.3857">Some setter</text><line style="stroke:#181818;stroke-width:1;stroke-dasharray:1,2;" x1="370.3258" x2="389.0934" y1="108.0391" y2="108.0391"/><text fill="#000000" font-family="sans-serif" font-size="14" lengthAdjust="spacing" textLength="48.7813" x="271.15" y="165.7764">int age</text><line style="stroke:#181818;stroke-width:0.5;" x1="266.15" x2="284.88" y1="144.6328" y2="144.6328"/><text fill="#000000" font-family="sans-serif" font-size="14" lengthAdjust="spacing" textLength="85.4834" x="284.88" y="148.9795">private data</text><line style="stroke:#181818;stroke-width:0.5;" x1="370.3634" x2="389.0934" y1="144.6328" y2="144.6328"/><text fill="#000000" font-family="sans-serif" font-size="14" lengthAdjust="spacing" textLength="112.9434" x="271.15" y="202.3701">String password</text><line style="stroke:#181818;stroke-width:1;" x1="266.15" x2="292.0714" y1="181.2266" y2="181.2266"/><text fill="#000000" font-family="sans-serif" font-size="14" lengthAdjust="spacing" textLength="71.1006" x="292.0714" y="185.5732">encrypted</text><line style="stroke:#181818;stroke-width:1;" x1="363.172" x2="389.0934" y1="181.2266" y2="181.2266"/></g><!--SRC=[PO-nQiGm44HxVSMKES8PyW5Nf4ZIfJbIf3ABjR45jcIqQnyctB_VIYPWI3FiB9hHssua4Rodz89V1tod1Hr5BCBcX5VED68CaSLyqvYGOBDNDufQNFJeSrfccoyN4nr2x0MQUjQ1SqcqxQ5ve9LBnqHnsvFoh_HyDdcpvlI3hW2wktDrm9TmhgHDWskOvf7nmQgsh73Fi6y_QUAdqvzxzJwpI5sKK9hO3Zj6v11fMymvhAGCJqexUuWAwhcIWMENjrdPxvXNpNOmPeExfUpT_G40]--></g></svg>