<?xml version="1.0" encoding="UTF-8" standalone="no"?><svg xmlns="http://www.w3.org/2000/svg" xmlns:xlink="http://www.w3.org/1999/xlink" contentStyleType="text/css" height="418px" preserveAspectRatio="none" style="width:441px;height:418px;background:#FFFFFF;" version="1.1" viewBox="0 0 441 418" width="441px" zoomAndPan="magnify"><defs/><g><rect height="75.3984" style="stroke:#000000;stroke-width:1.5;fill:none;" width="425.5" x="10" y="53.2969"/><rect height="133.6641" style="stroke:#000000;stroke-width:1.5;fill:none;" width="425.5" x="10" y="142.6953"/><rect height="75.3984" style="stroke:#000000;stroke-width:1.5;fill:none;" width="425.5" x="10" y="290.3594"/><line style="stroke:#181818;stroke-width:0.5;fill:none;stroke-dasharray:5.0,5.0;" x1="67" x2="67" y1="36.2969" y2="382.7578"/><line style="stroke:#181818;stroke-width:0.5;fill:none;stroke-dasharray:5.0,5.0;" x1="383.5" x2="383.5" y1="36.2969" y2="382.7578"/><rect fill="#E2E2F0" height="30.2969" rx="2.5" ry="2.5" style="stroke:#181818;stroke-width:0.5;" width="94" x="20" y="5"/><text fill="#000000" font-family="sans-serif" font-size="14" lengthAdjust="spacing" textLength="80" x="27" y="24.9951">Master End</text><rect fill="#E2E2F0" height="30.2969" rx="2.5" ry="2.5" style="stroke:#181818;stroke-width:0.5;" width="94" x="20" y="381.7578"/><text fill="#000000" font-family="sans-serif" font-size="14" lengthAdjust="spacing" textLength="80" x="27" y="401.7529">Master End</text><rect fill="#E2E2F0" height="30.2969" rx="2.5" ry="2.5" style="stroke:#181818;stroke-width:0.5;" width="83" x="342.5" y="5"/><text fill="#000000" font-family="sans-serif" font-size="14" lengthAdjust="spacing" textLength="69" x="349.5" y="24.9951">Slave End</text><rect fill="#E2E2F0" height="30.2969" rx="2.5" ry="2.5" style="stroke:#181818;stroke-width:0.5;" width="83" x="342.5" y="381.7578"/><text fill="#000000" font-family="sans-serif" font-size="14" lengthAdjust="spacing" textLength="69" x="349.5" y="401.7529">Slave End</text><path d="M10,53.2969 L129,53.2969 L129,60.4297 L119,70.4297 L10,70.4297 L10,53.2969 " fill="#EEEEEE" style="stroke:#000000;stroke-width:1.5;"/><rect fill="none" height="75.3984" style="stroke:#000000;stroke-width:1.5;" width="425.5" x="10" y="53.2969"/><text fill="#000000" font-family="sans-serif" font-size="13" font-weight="bold" lengthAdjust="spacing" textLength="74" x="25" y="66.3638">Launching</text><polygon fill="#181818" points="372,87.5625,382,91.5625,372,95.5625,376,91.5625" style="stroke:#181818;stroke-width:1.0;"/><line style="stroke:#181818;stroke-width:1.0;" x1="67" x2="378" y1="91.5625" y2="91.5625"/><text fill="#000000" font-family="sans-serif" font-size="13" lengthAdjust="spacing" textLength="136" x="74" y="86.4966">Connect to slave end</text><polygon fill="#181818" points="78,116.6953,68,120.6953,78,124.6953,74,120.6953" style="stroke:#181818;stroke-width:1.0;"/><line style="stroke:#181818;stroke-width:1.0;stroke-dasharray:2.0,2.0;" x1="72" x2="383" y1="120.6953" y2="120.6953"/><text fill="#000000" font-family="sans-serif" font-size="13" lengthAdjust="spacing" textLength="149" x="84" y="115.6294">Connection established</text><path d="M10,142.6953 L114,142.6953 L114,149.8281 L104,159.8281 L10,159.8281 L10,142.6953 " fill="#EEEEEE" style="stroke:#000000;stroke-width:1.5;"/><rect fill="none" height="133.6641" style="stroke:#000000;stroke-width:1.5;" width="425.5" x="10" y="142.6953"/><text fill="#000000" font-family="sans-serif" font-size="13" font-weight="bold" lengthAdjust="spacing" textLength="59" x="25" y="155.7622">Running</text><polygon fill="#181818" points="372,176.9609,382,180.9609,372,184.9609,376,180.9609" style="stroke:#181818;stroke-width:1.0;"/><line style="stroke:#181818;stroke-width:1.0;" x1="67" x2="378" y1="180.9609" y2="180.9609"/><text fill="#000000" font-family="sans-serif" font-size="13" lengthAdjust="spacing" textLength="146" x="74" y="175.895">Send task to slave end</text><polygon fill="#181818" points="78,206.0938,68,210.0938,78,214.0938,74,210.0938" style="stroke:#181818;stroke-width:1.0;"/><line style="stroke:#181818;stroke-width:1.0;stroke-dasharray:2.0,2.0;" x1="72" x2="383" y1="210.0938" y2="210.0938"/><text fill="#000000" font-family="sans-serif" font-size="13" lengthAdjust="spacing" textLength="89" x="84" y="205.0278">Task received</text><polygon fill="#181818" points="78,235.2266,68,239.2266,78,243.2266,74,239.2266" style="stroke:#181818;stroke-width:1.0;"/><line style="stroke:#181818;stroke-width:1.0;" x1="72" x2="383" y1="239.2266" y2="239.2266"/><text fill="#000000" font-family="sans-serif" font-size="13" lengthAdjust="spacing" textLength="293" x="84" y="234.1606">Send result to master end (success or failure)</text><polygon fill="#181818" points="372,264.3594,382,268.3594,372,272.3594,376,268.3594" style="stroke:#181818;stroke-width:1.0;"/><line style="stroke:#181818;stroke-width:1.0;stroke-dasharray:2.0,2.0;" x1="67" x2="378" y1="268.3594" y2="268.3594"/><text fill="#000000" font-family="sans-serif" font-size="13" lengthAdjust="spacing" textLength="99" x="74" y="263.2935">Result received</text><path d="M10,290.3594 L165,290.3594 L165,297.4922 L155,307.4922 L10,307.4922 L10,290.3594 " fill="#EEEEEE" style="stroke:#000000;stroke-width:1.5;"/><rect fill="none" height="75.3984" style="stroke:#000000;stroke-width:1.5;" width="425.5" x="10" y="290.3594"/><text fill="#000000" font-family="sans-serif" font-size="13" font-weight="bold" lengthAdjust="spacing" textLength="110" x="25" y="303.4263">Shutting down</text><polygon fill="#181818" points="372,324.625,382,328.625,372,332.625,376,328.625" style="stroke:#181818;stroke-width:1.0;"/><line style="stroke:#181818;stroke-width:1.0;" x1="67" x2="378" y1="328.625" y2="328.625"/><text fill="#000000" font-family="sans-serif" font-size="13" lengthAdjust="spacing" textLength="172" x="74" y="323.5591">Disconnect from slave end</text><polygon fill="#181818" points="78,353.7578,68,357.7578,78,361.7578,74,357.7578" style="stroke:#181818;stroke-width:1.0;"/><line style="stroke:#181818;stroke-width:1.0;stroke-dasharray:2.0,2.0;" x1="72" x2="383" y1="357.7578" y2="357.7578"/><text fill="#000000" font-family="sans-serif" font-size="13" lengthAdjust="spacing" textLength="111" x="84" y="352.6919">Connection down</text><!--MD5=[23c83c3e81f904c0aad68a3f82eb1826]
@startuml
participant "Master End" as master
participant "Slave End" as slave

group Launching
    master -> slave : Connect to slave end
    return Connection established
end

group Running
    master -> slave : Send task to slave end
    return Task received

    slave -> master : Send result to master end (success or failure)
    return Result received
end

group Shutting down
    master -> slave : Disconnect from slave end
    return Connection down
end
@enduml

PlantUML version 1.2022.4beta2(Unknown compile time)
(GPL source distribution)
Java Runtime: Java(TM) SE Runtime Environment
JVM: Java HotSpot(TM) 64-Bit Server VM
Default Encoding: UTF-8
Language: en
Country: US
--></g></svg>