<?xml version="1.0" encoding="UTF-8" standalone="no"?><svg xmlns="http://www.w3.org/2000/svg" xmlns:xlink="http://www.w3.org/1999/xlink" contentScriptType="application/ecmascript" contentStyleType="text/css" height="430px" preserveAspectRatio="none" style="width:453px;height:430px;background:#FFFFFF;" version="1.1" viewBox="0 0 453 430" width="453px" zoomAndPan="magnify"><defs><filter height="300%" id="foxalca2kc137" width="300%" x="-1" y="-1"><feGaussianBlur result="blurOut" stdDeviation="2.0"/><feColorMatrix in="blurOut" result="blurOut2" type="matrix" values="0 0 0 0 0 0 0 0 0 0 0 0 0 0 0 0 0 0 .4 0"/><feOffset dx="4.0" dy="4.0" in="blurOut2" result="blurOut3"/><feBlend in="SourceGraphic" in2="blurOut3" mode="normal"/></filter></defs><g><rect fill="#FFFFFF" filter="url(#foxalca2kc137)" height="75.3984" style="stroke:#000000;stroke-width:2.0;" width="429.5" x="10" y="57.2969"/><rect fill="#FFFFFF" filter="url(#foxalca2kc137)" height="133.6641" style="stroke:#000000;stroke-width:2.0;" width="429.5" x="10" y="146.6953"/><rect fill="#FFFFFF" filter="url(#foxalca2kc137)" height="75.3984" style="stroke:#000000;stroke-width:2.0;" width="429.5" x="10" y="294.3594"/><line style="stroke:#A80036;stroke-width:1.0;stroke-dasharray:5.0,5.0;" x1="69" x2="69" y1="40.2969" y2="386.7578"/><line style="stroke:#A80036;stroke-width:1.0;stroke-dasharray:5.0,5.0;" x1="385.5" x2="385.5" y1="40.2969" y2="386.7578"/><rect fill="#FEFECE" filter="url(#foxalca2kc137)" height="30.2969" style="stroke:#A80036;stroke-width:1.5;" width="94" x="20" y="5"/><text fill="#000000" font-family="sans-serif" font-size="14" lengthAdjust="spacing" textLength="80" x="27" y="24.9951">Master End</text><rect fill="#FEFECE" filter="url(#foxalca2kc137)" height="30.2969" style="stroke:#A80036;stroke-width:1.5;" width="94" x="20" y="385.7578"/><text fill="#000000" font-family="sans-serif" font-size="14" lengthAdjust="spacing" textLength="80" x="27" y="405.7529">Master End</text><rect fill="#FEFECE" filter="url(#foxalca2kc137)" height="30.2969" style="stroke:#A80036;stroke-width:1.5;" width="83" x="342.5" y="5"/><text fill="#000000" font-family="sans-serif" font-size="14" lengthAdjust="spacing" textLength="69" x="349.5" y="24.9951">Slave End</text><rect fill="#FEFECE" filter="url(#foxalca2kc137)" height="30.2969" style="stroke:#A80036;stroke-width:1.5;" width="83" x="342.5" y="385.7578"/><text fill="#000000" font-family="sans-serif" font-size="14" lengthAdjust="spacing" textLength="69" x="349.5" y="405.7529">Slave End</text><path d="M10,57.2969 L129,57.2969 L129,64.2969 L119,74.2969 L10,74.2969 L10,57.2969 " fill="#EEEEEE" style="stroke:#000000;stroke-width:1.0;"/><rect fill="none" height="75.3984" style="stroke:#000000;stroke-width:2.0;" width="429.5" x="10" y="57.2969"/><text fill="#000000" font-family="sans-serif" font-size="13" font-weight="bold" lengthAdjust="spacing" textLength="74" x="25" y="70.3638">Launching</text><polygon fill="#A80036" points="374,91.5625,384,95.5625,374,99.5625,378,95.5625" style="stroke:#A80036;stroke-width:1.0;"/><line style="stroke:#A80036;stroke-width:1.0;" x1="69" x2="380" y1="95.5625" y2="95.5625"/><text fill="#000000" font-family="sans-serif" font-size="13" lengthAdjust="spacing" textLength="136" x="76" y="90.4966">Connect to slave end</text><polygon fill="#A80036" points="80,120.6953,70,124.6953,80,128.6953,76,124.6953" style="stroke:#A80036;stroke-width:1.0;"/><line style="stroke:#A80036;stroke-width:1.0;stroke-dasharray:2.0,2.0;" x1="74" x2="385" y1="124.6953" y2="124.6953"/><text fill="#000000" font-family="sans-serif" font-size="13" lengthAdjust="spacing" textLength="149" x="86" y="119.6294">Connection established</text><path d="M10,146.6953 L114,146.6953 L114,153.6953 L104,163.6953 L10,163.6953 L10,146.6953 " fill="#EEEEEE" style="stroke:#000000;stroke-width:1.0;"/><rect fill="none" height="133.6641" style="stroke:#000000;stroke-width:2.0;" width="429.5" x="10" y="146.6953"/><text fill="#000000" font-family="sans-serif" font-size="13" font-weight="bold" lengthAdjust="spacing" textLength="59" x="25" y="159.7622">Running</text><polygon fill="#A80036" points="374,180.9609,384,184.9609,374,188.9609,378,184.9609" style="stroke:#A80036;stroke-width:1.0;"/><line style="stroke:#A80036;stroke-width:1.0;" x1="69" x2="380" y1="184.9609" y2="184.9609"/><text fill="#000000" font-family="sans-serif" font-size="13" lengthAdjust="spacing" textLength="146" x="76" y="179.895">Send task to slave end</text><polygon fill="#A80036" points="80,210.0938,70,214.0938,80,218.0938,76,214.0938" style="stroke:#A80036;stroke-width:1.0;"/><line style="stroke:#A80036;stroke-width:1.0;stroke-dasharray:2.0,2.0;" x1="74" x2="385" y1="214.0938" y2="214.0938"/><text fill="#000000" font-family="sans-serif" font-size="13" lengthAdjust="spacing" textLength="89" x="86" y="209.0278">Task received</text><polygon fill="#A80036" points="80,239.2266,70,243.2266,80,247.2266,76,243.2266" style="stroke:#A80036;stroke-width:1.0;"/><line style="stroke:#A80036;stroke-width:1.0;" x1="74" x2="385" y1="243.2266" y2="243.2266"/><text fill="#000000" font-family="sans-serif" font-size="13" lengthAdjust="spacing" textLength="293" x="86" y="238.1606">Send result to master end (success or failure)</text><polygon fill="#A80036" points="374,268.3594,384,272.3594,374,276.3594,378,272.3594" style="stroke:#A80036;stroke-width:1.0;"/><line style="stroke:#A80036;stroke-width:1.0;stroke-dasharray:2.0,2.0;" x1="69" x2="380" y1="272.3594" y2="272.3594"/><text fill="#000000" font-family="sans-serif" font-size="13" lengthAdjust="spacing" textLength="99" x="76" y="267.2935">Result received</text><path d="M10,294.3594 L165,294.3594 L165,301.3594 L155,311.3594 L10,311.3594 L10,294.3594 " fill="#EEEEEE" style="stroke:#000000;stroke-width:1.0;"/><rect fill="none" height="75.3984" style="stroke:#000000;stroke-width:2.0;" width="429.5" x="10" y="294.3594"/><text fill="#000000" font-family="sans-serif" font-size="13" font-weight="bold" lengthAdjust="spacing" textLength="110" x="25" y="307.4263">Shutting down</text><polygon fill="#A80036" points="374,328.625,384,332.625,374,336.625,378,332.625" style="stroke:#A80036;stroke-width:1.0;"/><line style="stroke:#A80036;stroke-width:1.0;" x1="69" x2="380" y1="332.625" y2="332.625"/><text fill="#000000" font-family="sans-serif" font-size="13" lengthAdjust="spacing" textLength="172" x="76" y="327.5591">Disconnect from slave end</text><polygon fill="#A80036" points="80,357.7578,70,361.7578,80,365.7578,76,361.7578" style="stroke:#A80036;stroke-width:1.0;"/><line style="stroke:#A80036;stroke-width:1.0;stroke-dasharray:2.0,2.0;" x1="74" x2="385" y1="361.7578" y2="361.7578"/><text fill="#000000" font-family="sans-serif" font-size="13" lengthAdjust="spacing" textLength="111" x="86" y="356.6919">Connection down</text><!--MD5=[fa90c1319eda7a27c8c1dde2357dc4ae]
@startuml
participant "Master End" as master
participant "Slave End" as slave

group Launching
    master -> slave : Connect to slave end
    return Connection established
end

group Running
    master -> slave : Send task to slave end
    return Task received

    slave -> master : Send result to master end (success or failure)
    return Result received
end

group Shutting down
    master -> slave : Disconnect from slave end
    return Connection down
end
@enduml

PlantUML version 1.2021.10(Mon Aug 30 13:43:48 UTC 2021)
(GPL source distribution)
Java Runtime: Java(TM) SE Runtime Environment
JVM: Java HotSpot(TM) 64-Bit Server VM
Default Encoding: UTF-8
Language: en
Country: US
--></g></svg>