<?xml version="1.0" encoding="UTF-8" standalone="no"?><svg xmlns="http://www.w3.org/2000/svg" xmlns:xlink="http://www.w3.org/1999/xlink" contentScriptType="application/ecmascript" contentStyleType="text/css" height="250px" preserveAspectRatio="none" style="width:229px;height:250px;background:#FFFFFF;" version="1.1" viewBox="0 0 229 250" width="229px" zoomAndPan="magnify"><defs><filter height="300%" id="f3d2xtyxma8ak" width="300%" x="-1" y="-1"><feGaussianBlur result="blurOut" stdDeviation="2.0"/><feColorMatrix in="blurOut" result="blurOut2" type="matrix" values="0 0 0 0 0 0 0 0 0 0 0 0 0 0 0 0 0 0 .4 0"/><feOffset dx="4.0" dy="4.0" in="blurOut2" result="blurOut3"/><feBlend in="SourceGraphic" in2="blurOut3" mode="normal"/></filter></defs><g><ellipse cx="111.5" cy="20" fill="#000000" filter="url(#f3d2xtyxma8ak)" rx="10" ry="10" style="stroke:none;stroke-width:1.0;"/><rect fill="#FEFECE" filter="url(#f3d2xtyxma8ak)" height="33.9688" rx="12.5" ry="12.5" style="stroke:#A80036;stroke-width:1.5;" width="147" x="38" y="50"/><text fill="#000000" font-family="sans-serif" font-size="12" lengthAdjust="spacing" textLength="127" x="48" y="71.1387">Get the input value x.</text><rect fill="#FEFECE" filter="url(#f3d2xtyxma8ak)" height="33.9688" rx="12.5" ry="12.5" style="stroke:#A80036;stroke-width:1.5;" width="110" x="56.5" y="103.9688"/><text fill="#000000" font-family="sans-serif" font-size="12" lengthAdjust="spacing" textLength="90" x="66.5" y="125.1074">Set x' as int(x).</text><rect fill="#FEFECE" filter="url(#f3d2xtyxma8ak)" height="33.9688" rx="12.5" ry="12.5" style="stroke:#A80036;stroke-width:1.5;" width="201" x="11" y="157.9375"/><text fill="#000000" font-family="sans-serif" font-size="12" font-weight="bold" lengthAdjust="spacing" textLength="181" x="21" y="179.0762">Return value x' as result.</text><ellipse cx="111.5" cy="222.9063" fill="#FFFFFF" filter="url(#f3d2xtyxma8ak)" rx="11" ry="11" style="stroke:#000000;stroke-width:1.0;"/><ellipse cx="111.5" cy="222.9063" fill="#000000" rx="6" ry="6" style="stroke:#7F7F7F;stroke-width:1.0;"/><line style="stroke:#A80036;stroke-width:1.5;" x1="111.5" x2="111.5" y1="30" y2="50"/><polygon fill="#A80036" points="107.5,40,111.5,50,115.5,40,111.5,44" style="stroke:#A80036;stroke-width:1.0;"/><line style="stroke:#A80036;stroke-width:1.5;" x1="111.5" x2="111.5" y1="83.9688" y2="103.9688"/><polygon fill="#A80036" points="107.5,93.9688,111.5,103.9688,115.5,93.9688,111.5,97.9688" style="stroke:#A80036;stroke-width:1.0;"/><line style="stroke:#A80036;stroke-width:1.5;" x1="111.5" x2="111.5" y1="137.9375" y2="157.9375"/><polygon fill="#A80036" points="107.5,147.9375,111.5,157.9375,115.5,147.9375,111.5,151.9375" style="stroke:#A80036;stroke-width:1.0;"/><line style="stroke:#A80036;stroke-width:1.5;" x1="111.5" x2="111.5" y1="191.9063" y2="211.9063"/><polygon fill="#A80036" points="107.5,201.9063,111.5,211.9063,115.5,201.9063,111.5,205.9063" style="stroke:#A80036;stroke-width:1.0;"/><!--MD5=[a3d9849aa484c75bcb674ebf8d69f525]
@startuml
start

:Get the input value x.;

:Set x' as int(x).;

:**Return value x' as result.**;

stop
@enduml

PlantUML version 1.2021.10(Mon Aug 30 13:43:48 UTC 2021)
(GPL source distribution)
Java Runtime: Java(TM) SE Runtime Environment
JVM: Java HotSpot(TM) 64-Bit Server VM
Default Encoding: UTF-8
Language: en
Country: US
--></g></svg>