<?xml version="1.0" encoding="UTF-8" standalone="no"?><svg xmlns="http://www.w3.org/2000/svg" xmlns:xlink="http://www.w3.org/1999/xlink" contentStyleType="text/css" height="244px" preserveAspectRatio="none" style="width:223px;height:244px;" version="1.1" viewBox="0 0 223 244" width="223px" zoomAndPan="magnify"><defs><style type="text/css"><![CDATA[*.f_222222_dddddd {fill:#222222;}*.s_222222_dddddd {stroke:#222222;}*.f_f1f1f1_070707 {fill:#f1f1f1;}*.s_181818_e7e7e7 {stroke:#181818;}*.f_000000_ffffff {fill:#000000;}*.f_181818_e7e7e7 {fill:#181818;}@media (prefers-color-scheme:dark) {*.f_222222_dddddd {fill:#dddddd;}*.s_222222_dddddd {stroke:#dddddd;}*.f_f1f1f1_070707 {fill:#070707;}*.s_181818_e7e7e7 {stroke:#e7e7e7;}*.f_000000_ffffff {fill:#ffffff;}*.f_181818_e7e7e7 {fill:#e7e7e7;}}]]></style></defs><g><ellipse class="f_222222_dddddd s_222222_dddddd" cx="111.5" cy="20" rx="10" ry="10" style="stroke-width:1.0;"/><rect class="f_f1f1f1_070707 s_181818_e7e7e7" height="33.9688" rx="12.5" ry="12.5" style="stroke-width:0.5;" width="147" x="38" y="50"/><text class="f_000000_ffffff" font-family="sans-serif" font-size="12" lengthAdjust="spacing" textLength="127" x="48" y="71.1387">Get the input value x.</text><rect class="f_f1f1f1_070707 s_181818_e7e7e7" height="33.9688" rx="12.5" ry="12.5" style="stroke-width:0.5;" width="110" x="56.5" y="103.9688"/><text class="f_000000_ffffff" font-family="sans-serif" font-size="12" lengthAdjust="spacing" textLength="90" x="66.5" y="125.1074">Set x' as int(x).</text><rect class="f_f1f1f1_070707 s_181818_e7e7e7" height="33.9688" rx="12.5" ry="12.5" style="stroke-width:0.5;" width="201" x="11" y="157.9375"/><text class="f_000000_ffffff" font-family="sans-serif" font-size="12" font-weight="bold" lengthAdjust="spacing" textLength="181" x="21" y="179.0762">Return value x' as result.</text><ellipse class="s_222222_dddddd" cx="111.5" cy="222.9063" rx="11" ry="11" style="stroke-width:1.0;fill:none;"/><ellipse class="f_222222_dddddd" cx="111.5" cy="222.9063" rx="6" ry="6" style="stroke:#111111;stroke-width:1.0;"/><line class="s_181818_e7e7e7" style="stroke-width:1.0;" x1="111.5" x2="111.5" y1="30" y2="50"/><polygon class="f_181818_e7e7e7 s_181818_e7e7e7" points="107.5,40,111.5,50,115.5,40,111.5,44" style="stroke-width:1.0;"/><line class="s_181818_e7e7e7" style="stroke-width:1.0;" x1="111.5" x2="111.5" y1="83.9688" y2="103.9688"/><polygon class="f_181818_e7e7e7 s_181818_e7e7e7" points="107.5,93.9688,111.5,103.9688,115.5,93.9688,111.5,97.9688" style="stroke-width:1.0;"/><line class="s_181818_e7e7e7" style="stroke-width:1.0;" x1="111.5" x2="111.5" y1="137.9375" y2="157.9375"/><polygon class="f_181818_e7e7e7 s_181818_e7e7e7" points="107.5,147.9375,111.5,157.9375,115.5,147.9375,111.5,151.9375" style="stroke-width:1.0;"/><line class="s_181818_e7e7e7" style="stroke-width:1.0;" x1="111.5" x2="111.5" y1="191.9063" y2="211.9063"/><polygon class="f_181818_e7e7e7 s_181818_e7e7e7" points="107.5,201.9063,111.5,211.9063,115.5,201.9063,111.5,205.9063" style="stroke-width:1.0;"/><!--MD5=[78e026fdba4ca0f410a0eedb66da9496]
@startuml
start

:Get the input value x.;

:Set x' as int(x).;

:**Return value x' as result.**;

stop
@enduml

PlantUML version 1.2022.2beta5(Unknown compile time)
(GPL source distribution)
Java Runtime: Java(TM) SE Runtime Environment
JVM: Java HotSpot(TM) 64-Bit Server VM
Default Encoding: UTF-8
Language: en
Country: US
--></g></svg>