<svg viewBox="0 0 330 200" xmlns="http://www.w3.org/2000/svg"><g><g><g><g><g><line x1="30" y1="178" x2="25" y2="178" style="visibility: inherit;" fill="rgb(0, 0, 0)" stroke="rgb(204, 204, 204)" stroke-width="1px"></line><line x1="30" y1="164.30769230769232" x2="25" y2="164.30769230769232" style="visibility: inherit;" fill="rgb(0, 0, 0)" stroke="rgb(204, 204, 204)" stroke-width="1px"></line><line x1="30" y1="150.6153846153846" x2="25" y2="150.6153846153846" style="visibility: inherit;" fill="rgb(0, 0, 0)" stroke="rgb(204, 204, 204)" stroke-width="1px"></line><line x1="30" y1="136.9230769230769" x2="25" y2="136.9230769230769" style="visibility: inherit;" fill="rgb(0, 0, 0)" stroke="rgb(204, 204, 204)" stroke-width="1px"></line><line x1="30" y1="123.23076923076923" x2="25" y2="123.23076923076923" style="visibility: inherit;" fill="rgb(0, 0, 0)" stroke="rgb(204, 204, 204)" stroke-width="1px"></line><line x1="30" y1="109.53846153846153" x2="25" y2="109.53846153846153" style="visibility: inherit;" fill="rgb(0, 0, 0)" stroke="rgb(204, 204, 204)" stroke-width="1px"></line><line x1="30" y1="95.84615384615384" x2="25" y2="95.84615384615384" style="visibility: inherit;" fill="rgb(0, 0, 0)" stroke="rgb(204, 204, 204)" stroke-width="1px"></line><line x1="30" y1="82.15384615384616" x2="25" y2="82.15384615384616" style="visibility: inherit;" fill="rgb(0, 0, 0)" stroke="rgb(204, 204, 204)" stroke-width="1px"></line><line x1="30" y1="68.46153846153845" x2="25" y2="68.46153846153845" style="visibility: inherit;" fill="rgb(0, 0, 0)" stroke="rgb(204, 204, 204)" stroke-width="1px"></line><line x1="30" y1="54.769230769230774" x2="25" y2="54.769230769230774" style="visibility: inherit;" fill="rgb(0, 0, 0)" stroke="rgb(204, 204, 204)" stroke-width="1px"></line><line x1="30" y1="41.076923076923066" x2="25" y2="41.076923076923066" style="visibility: inherit;" fill="rgb(0, 0, 0)" stroke="rgb(204, 204, 204)" stroke-width="1px"></line><line x1="30" y1="27.384615384615387" x2="25" y2="27.384615384615387" style="visibility: inherit;" fill="rgb(0, 0, 0)" stroke="rgb(204, 204, 204)" stroke-width="1px"></line><line x1="30" y1="13.69230769230768" x2="25" y2="13.69230769230768" style="visibility: inherit;" fill="rgb(0, 0, 0)" stroke="rgb(204, 204, 204)" stroke-width="1px"></line><line x1="30" y1="0" x2="25" y2="0" style="visibility: inherit;" fill="rgb(0, 0, 0)" stroke="rgb(204, 204, 204)" stroke-width="1px"></line></g><g transform="translate(20, 0)"><text x="0" y="178" dx="0em" dy="0.3em" style="text-anchor: end; visibility: hidden; font-family: &quot;Helvetica Neue&quot;, sans-serif; font-size: 12px; font-weight: 200;" fill="rgb(50, 49, 63)" stroke="none" stroke-width="1px">-1</text><text x="0" y="164.30769230769232" dx="0em" dy="0.3em" style="text-anchor: end; visibility: inherit; font-family: &quot;Helvetica Neue&quot;, sans-serif; font-size: 12px; font-weight: 200;" fill="rgb(50, 49, 63)" stroke="none" stroke-width="1px">0</text><text x="0" y="150.6153846153846" dx="0em" dy="0.3em" style="text-anchor: end; visibility: hidden; font-family: &quot;Helvetica Neue&quot;, sans-serif; font-size: 12px; font-weight: 200;" fill="rgb(50, 49, 63)" stroke="none" stroke-width="1px">1</text><text x="0" y="136.9230769230769" dx="0em" dy="0.3em" style="text-anchor: end; visibility: inherit; font-family: &quot;Helvetica Neue&quot;, sans-serif; font-size: 12px; font-weight: 200;" fill="rgb(50, 49, 63)" stroke="none" stroke-width="1px">2</text><text x="0" y="123.23076923076923" dx="0em" dy="0.3em" style="text-anchor: end; visibility: hidden; font-family: &quot;Helvetica Neue&quot;, sans-serif; font-size: 12px; font-weight: 200;" fill="rgb(50, 49, 63)" stroke="none" stroke-width="1px">3</text><text x="0" y="109.53846153846153" dx="0em" dy="0.3em" style="text-anchor: end; visibility: inherit; font-family: &quot;Helvetica Neue&quot;, sans-serif; font-size: 12px; font-weight: 200;" fill="rgb(50, 49, 63)" stroke="none" stroke-width="1px">4</text><text x="0" y="95.84615384615384" dx="0em" dy="0.3em" style="text-anchor: end; visibility: hidden; font-family: &quot;Helvetica Neue&quot;, sans-serif; font-size: 12px; font-weight: 200;" fill="rgb(50, 49, 63)" stroke="none" stroke-width="1px">5</text><text x="0" y="82.15384615384616" dx="0em" dy="0.3em" style="text-anchor: end; visibility: inherit; font-family: &quot;Helvetica Neue&quot;, sans-serif; font-size: 12px; font-weight: 200;" fill="rgb(50, 49, 63)" stroke="none" stroke-width="1px">6</text><text x="0" y="68.46153846153845" dx="0em" dy="0.3em" style="text-anchor: end; visibility: hidden; font-family: &quot;Helvetica Neue&quot;, sans-serif; font-size: 12px; font-weight: 200;" fill="rgb(50, 49, 63)" stroke="none" stroke-width="1px">7</text><text x="0" y="54.769230769230774" dx="0em" dy="0.3em" style="text-anchor: end; visibility: inherit; font-family: &quot;Helvetica Neue&quot;, sans-serif; font-size: 12px; font-weight: 200;" fill="rgb(50, 49, 63)" stroke="none" stroke-width="1px">8</text><text x="0" y="41.076923076923066" dx="0em" dy="0.3em" style="text-anchor: end; visibility: hidden; font-family: &quot;Helvetica Neue&quot;, sans-serif; font-size: 12px; font-weight: 200;" fill="rgb(50, 49, 63)" stroke="none" stroke-width="1px">9</text><text x="0" y="27.384615384615387" dx="0em" dy="0.3em" style="text-anchor: end; visibility: inherit; font-family: &quot;Helvetica Neue&quot;, sans-serif; font-size: 12px; font-weight: 200;" fill="rgb(50, 49, 63)" stroke="none" stroke-width="1px">10</text><text x="0" y="13.69230769230768" dx="0em" dy="0.3em" style="text-anchor: end; visibility: hidden; font-family: &quot;Helvetica Neue&quot;, sans-serif; font-size: 12px; font-weight: 200;" fill="rgb(50, 49, 63)" stroke="none" stroke-width="1px">11</text><text x="0" y="0" dx="0em" dy="0.3em" style="text-anchor: end; visibility: hidden; font-family: &quot;Helvetica Neue&quot;, sans-serif; font-size: 12px; font-weight: 200;" fill="rgb(50, 49, 63)" stroke="none" stroke-width="1px">12</text></g><line x1="30" y1="0" x2="30" y2="178" fill="rgb(0, 0, 0)" stroke="rgb(204, 204, 204)" stroke-width="1px"></line></g></g><g transform="translate(30, 0)" clip-path="url(#clip_0)"><clipPath id="clip_0"><rect width="300" height="178"></rect></clipPath><g><g><g><line x1="0" y1="0" x2="0" y2="178" fill="rgb(0, 0, 0)" stroke="rgb(60, 60, 60)" stroke-width="1px" opacity="0.25"></line><line x1="30" y1="0" x2="30" y2="178" fill="rgb(0, 0, 0)" stroke="rgb(60, 60, 60)" stroke-width="1px" opacity="0.25"></line><line x1="60" y1="0" x2="60" y2="178" fill="rgb(0, 0, 0)" stroke="rgb(60, 60, 60)" stroke-width="1px" opacity="0.25"></line><line x1="90" y1="0" x2="90" y2="178" fill="rgb(0, 0, 0)" stroke="rgb(60, 60, 60)" stroke-width="1px" opacity="0.25"></line><line x1="120" y1="0" x2="120" y2="178" fill="rgb(0, 0, 0)" stroke="rgb(60, 60, 60)" stroke-width="1px" opacity="0.25"></line><line x1="150" y1="0" x2="150" y2="178" fill="rgb(0, 0, 0)" stroke="rgb(60, 60, 60)" stroke-width="1px" opacity="0.25"></line><line x1="180" y1="0" x2="180" y2="178" fill="rgb(0, 0, 0)" stroke="rgb(60, 60, 60)" stroke-width="1px" opacity="0.25"></line><line x1="210" y1="0" x2="210" y2="178" fill="rgb(0, 0, 0)" stroke="rgb(60, 60, 60)" stroke-width="1px" opacity="0.25"></line><line x1="240" y1="0" x2="240" y2="178" fill="rgb(0, 0, 0)" stroke="rgb(60, 60, 60)" stroke-width="1px" opacity="0.25"></line><line x1="270" y1="0" x2="270" y2="178" fill="rgb(0, 0, 0)" stroke="rgb(60, 60, 60)" stroke-width="1px" opacity="0.25"></line><line x1="300" y1="0" x2="300" y2="178" fill="rgb(0, 0, 0)" stroke="rgb(60, 60, 60)" stroke-width="1px" opacity="0.25"></line></g><g><line x1="0" y1="178" x2="300" y2="178" fill="rgb(0, 0, 0)" stroke="rgb(60, 60, 60)" stroke-width="1px" opacity="0.25"></line><line x1="0" y1="164.30769230769232" x2="300" y2="164.30769230769232" fill="rgb(0, 0, 0)" stroke="rgb(60, 60, 60)" stroke-width="1px" opacity="0.25"></line><line x1="0" y1="150.6153846153846" x2="300" y2="150.6153846153846" fill="rgb(0, 0, 0)" stroke="rgb(60, 60, 60)" stroke-width="1px" opacity="0.25"></line><line x1="0" y1="136.9230769230769" x2="300" y2="136.9230769230769" fill="rgb(0, 0, 0)" stroke="rgb(60, 60, 60)" stroke-width="1px" opacity="0.25"></line><line x1="0" y1="123.23076923076923" x2="300" y2="123.23076923076923" fill="rgb(0, 0, 0)" stroke="rgb(60, 60, 60)" stroke-width="1px" opacity="0.25"></line><line x1="0" y1="109.53846153846153" x2="300" y2="109.53846153846153" fill="rgb(0, 0, 0)" stroke="rgb(60, 60, 60)" stroke-width="1px" opacity="0.25"></line><line x1="0" y1="95.84615384615384" x2="300" y2="95.84615384615384" fill="rgb(0, 0, 0)" stroke="rgb(60, 60, 60)" stroke-width="1px" opacity="0.25"></line><line x1="0" y1="82.15384615384616" x2="300" y2="82.15384615384616" fill="rgb(0, 0, 0)" stroke="rgb(60, 60, 60)" stroke-width="1px" opacity="0.25"></line><line x1="0" y1="68.46153846153845" x2="300" y2="68.46153846153845" fill="rgb(0, 0, 0)" stroke="rgb(60, 60, 60)" stroke-width="1px" opacity="0.25"></line><line x1="0" y1="54.769230769230774" x2="300" y2="54.769230769230774" fill="rgb(0, 0, 0)" stroke="rgb(60, 60, 60)" stroke-width="1px" opacity="0.25"></line><line x1="0" y1="41.076923076923066" x2="300" y2="41.076923076923066" fill="rgb(0, 0, 0)" stroke="rgb(60, 60, 60)" stroke-width="1px" opacity="0.25"></line><line x1="0" y1="27.384615384615387" x2="300" y2="27.384615384615387" fill="rgb(0, 0, 0)" stroke="rgb(60, 60, 60)" stroke-width="1px" opacity="0.25"></line><line x1="0" y1="13.69230769230768" x2="300" y2="13.69230769230768" fill="rgb(0, 0, 0)" stroke="rgb(60, 60, 60)" stroke-width="1px" opacity="0.25"></line><line x1="0" y1="0" x2="300" y2="0" fill="rgb(0, 0, 0)" stroke="rgb(60, 60, 60)" stroke-width="1px" opacity="0.25"></line></g></g></g><g><g><line x1="0" y1="164.30769230769232" x2="300" y2="164.30769230769232" fill="rgb(0, 0, 0)" stroke="rgb(153, 153, 153)" stroke-width="1.5px"></line></g></g><g><g><line x1="30" y1="0" x2="30" y2="178" fill="rgb(0, 0, 0)" stroke="rgb(153, 153, 153)" stroke-width="1.5px"></line></g></g><g><g><g><g><g><path stroke="rgb(51, 187, 238)" stroke-width="2px" d="M30,164.30769230769232L31.51914,164.30769230769232L33.03276,164.30769230769232L34.551899999999996,164.30769230769232L36.092819999999996,164.30769230769232L37.64574,164.30769230769232L39.213539999999995,164.30769230769232L40.78074,164.30769230769232L42.342299999999994,164.30769230769232L43.89702,164.30769230769232L45.4899,164.30769230769232L47.057939999999995,164.30769230769232L48.65796,164.30769230769232L50.22432,164.30769230769232L51.813719999999996,164.30769230769232L53.42556,164.30769230769232L55.011959999999995,164.30769230769232L56.59428,112.26738654975125L58.176959999999994,132.04494979887414L59.76498,144.30565562506482L61.343399999999995,151.90676153708128L62.9328,156.61924283465393L64.5222,159.54090268435195L66.1179,161.35230159570523L67.73106,162.47535731384906L69.35502000000001,163.17164739746474L70.99278,163.60334553426816L72.6246,163.8709977198288L74.23488,112.00612297492845L75.87438,131.8807310716869L77.49234,144.2029808581848L79.14287999999999,99.81199188967533L80.75592,72.2895849397136L82.36038,55.22569501805832L83.99634,44.646084184318084L85.63224,90.1174967982011L87.28416,118.30977167878686L88.9131,83.75821184098425L90.54462000000001,62.33624501611496L92.19906,101.08539517919243L93.83052,73.07909877109132L95.4621,55.715195051109845L97.09608,96.9803440574119L98.73018,122.56473641127744L100.36248,86.39629040470379L102.00522000000001,116.00262313618398L103.63752,82.32778018470334L105.27354,61.44937755840792L106.9053,100.5355371657615L108.55572000000001,124.76895612070446L110.15688,139.7936758721478L111.78114,149.10900211780384L113.38709999999999,102.85373515873312L115.014,74.17546964439188L116.64372,108.42571425657674L118.27998000000001,129.6608659160509L119.9211,90.79589071404841L121.55724000000001,66.69960608884195L123.19146,51.759909621227436L124.81206,42.497297811311654L126.45114,36.75447848916582L128.09208,85.22469974021239L129.70674,63.245467685083725L131.35572,49.61834381090506L132.99954,93.2002962396856L134.64222,120.22110674552869L136.2891,136.97400925915107L137.92518,95.3300395868272L139.57649999999998,69.51077838998658L141.21096,53.50283644794551L142.83288000000002,43.577912443880024L144.49506,37.42445956135947L146.15609999999998,33.60931877419671L147.82757999999998,31.243931486155816L149.47002,29.77739136757046L151.11522,28.868136494047548L152.76672,28.304398472463305L154.40178,27.954880899081104L156.08388,27.738180003584148L157.73628,27.603825448376057L159.40914,27.520525624146984L161.07072,27.468879733124965L162.72768,79.46762851146057L164.38506,111.70685275402863L166.02138,79.6644025536516L167.66604,59.798083429417844L169.32696,47.48096557239293L170.97809999999998,39.84435250103746L172.63577999999998,35.10965239679706L174.29928,84.20490756293725L175.93301999999997,62.61319653517495L177.57984000000002,49.22633569796233L179.21880000000002,40.92648197889051L180.88422,35.78057267306596L182.56662,32.590108903454734L184.19718,82.642790597065L185.86097999999998,61.64468401633415L187.5282,48.62585793628105L189.19368,40.55418576664809L190.86024,87.58051825224489L192.51894000000001,64.70607516254567L194.17589999999998,50.52392044693218L195.84,41.730984523251806L197.5023,36.279364250569984L199.1562,32.899359681507235L200.80092000000002,30.80375684868835L202.45152,29.50448309234065L204.10338,28.69893336340502L205.75266,28.199492531464955L207.3987,27.889839215662136L209.04492,27.69785415986439L210.67974,27.578823425269775L212.35566,79.53579360059032L214.00644,59.718345878519855L215.66982,47.431528290836155L217.33014,39.813701386472246L218.98680000000002,35.090648705766625L220.66854,32.162356043729176L222.30588,82.37758382403518L223.97832,61.48025581705565L225.62472000000002,48.523912452728354L227.27538,40.490979566845425L228.93024,87.54133040836724L230.6106,64.68177869934155L232.25609999999998,50.508856639745616L233.90081999999998,41.72164496279612L235.58652,36.27357372308745L237.25866,32.895769554468046L238.917,30.801530969924045L240.57264,29.503103047506755L242.21682,28.698077735608052L243.87684,80.22973127300008L245.54136,60.148587235413885L247.20042,47.69827793211047L248.86182000000002,39.97908616406232L250.52814,35.193187267872474L252.18948,32.22592995223479L253.81842,30.386230416539405L255.4728,29.24561670440829L257.10654,28.538436202887L258.75822,28.099984291943798L260.41998,27.828144107159005L262.10538,27.659603192592442L263.76762,27.55510782556115L265.43363999999997,79.52108992877099L267.07800000000003,111.7399988327611L268.72301999999996,131.71572235323495L270.39036,92.06990170515952L272.01996,67.48949290335275L273.65466000000004,52.24963944623255L275.31780000000003,42.80093030281802L276.96966,88.97349986467026L278.60184,65.56972376224942L280.23288,51.0593825787485L281.85936,94.09374027574714" style="fill: none;" fill="none"></path></g></g></g></g><g opacity="0.2"><g><g><g><path stroke="rgb(51, 187, 238)" stroke-width="2px" d="M30,164.30769230769232L31.51914,164.30769230769232L33.03276,164.30769230769232L34.551899999999996,164.30769230769232L36.092819999999996,164.30769230769232L37.64574,164.30769230769232L39.213539999999995,164.30769230769232L40.78074,164.30769230769232L42.342299999999994,164.30769230769232L43.89702,164.30769230769232L45.4899,164.30769230769232L47.057939999999995,164.30769230769232L48.65796,164.30769230769232L50.22432,164.30769230769232L51.813719999999996,164.30769230769232L53.42556,164.30769230769232L55.011959999999995,164.30769230769232L56.59428,27.384615384615387L58.176959999999994,164.30769230769232L59.76498,164.30769230769232L61.343399999999995,164.30769230769232L62.9328,164.30769230769232L64.5222,164.30769230769232L66.1179,164.30769230769232L67.73106,164.30769230769232L69.35502000000001,164.30769230769232L70.99278,164.30769230769232L72.6246,164.30769230769232L74.23488,27.384615384615387L75.87438,164.30769230769232L77.49234,164.30769230769232L79.14287999999999,27.384615384615387L80.75592,27.384615384615387L82.36038,27.384615384615387L83.99634,27.384615384615387L85.63224,164.30769230769232L87.28416,164.30769230769232L88.9131,27.384615384615387L90.54462000000001,27.384615384615387L92.19906,164.30769230769232L93.83052,27.384615384615387L95.4621,27.384615384615387L97.09608,164.30769230769232L98.73018,164.30769230769232L100.36248,27.384615384615387L102.00522000000001,164.30769230769232L103.63752,27.384615384615387L105.27354,27.384615384615387L106.9053,164.30769230769232L108.55572000000001,164.30769230769232L110.15688,164.30769230769232L111.78114,164.30769230769232L113.38709999999999,27.384615384615387L115.014,27.384615384615387L116.64372,164.30769230769232L118.27998000000001,164.30769230769232L119.9211,27.384615384615387L121.55724000000001,27.384615384615387L123.19146,27.384615384615387L124.81206,27.384615384615387L126.45114,27.384615384615387L128.09208,164.30769230769232L129.70674,27.384615384615387L131.35572,27.384615384615387L132.99954,164.30769230769232L134.64222,164.30769230769232L136.2891,164.30769230769232L137.92518,27.384615384615387L139.57649999999998,27.384615384615387L141.21096,27.384615384615387L142.83288000000002,27.384615384615387L144.49506,27.384615384615387L146.15609999999998,27.384615384615387L147.82757999999998,27.384615384615387L149.47002,27.384615384615387L151.11522,27.384615384615387L152.76672,27.384615384615387L154.40178,27.384615384615387L156.08388,27.384615384615387L157.73628,27.384615384615387L159.40914,27.384615384615387L161.07072,27.384615384615387L162.72768,164.30769230769232L164.38506,164.30769230769232L166.02138,27.384615384615387L167.66604,27.384615384615387L169.32696,27.384615384615387L170.97809999999998,27.384615384615387L172.63577999999998,27.384615384615387L174.29928,164.30769230769232L175.93301999999997,27.384615384615387L177.57984000000002,27.384615384615387L179.21880000000002,27.384615384615387L180.88422,27.384615384615387L182.56662,27.384615384615387L184.19718,164.30769230769232L185.86097999999998,27.384615384615387L187.5282,27.384615384615387L189.19368,27.384615384615387L190.86024,164.30769230769232L192.51894000000001,27.384615384615387L194.17589999999998,27.384615384615387L195.84,27.384615384615387L197.5023,27.384615384615387L199.1562,27.384615384615387L200.80092000000002,27.384615384615387L202.45152,27.384615384615387L204.10338,27.384615384615387L205.75266,27.384615384615387L207.3987,27.384615384615387L209.04492,27.384615384615387L210.67974,27.384615384615387L212.35566,164.30769230769232L214.00644,27.384615384615387L215.66982,27.384615384615387L217.33014,27.384615384615387L218.98680000000002,27.384615384615387L220.66854,27.384615384615387L222.30588,164.30769230769232L223.97832,27.384615384615387L225.62472000000002,27.384615384615387L227.27538,27.384615384615387L228.93024,164.30769230769232L230.6106,27.384615384615387L232.25609999999998,27.384615384615387L233.90081999999998,27.384615384615387L235.58652,27.384615384615387L237.25866,27.384615384615387L238.917,27.384615384615387L240.57264,27.384615384615387L242.21682,27.384615384615387L243.87684,164.30769230769232L245.54136,27.384615384615387L247.20042,27.384615384615387L248.86182000000002,27.384615384615387L250.52814,27.384615384615387L252.18948,27.384615384615387L253.81842,27.384615384615387L255.4728,27.384615384615387L257.10654,27.384615384615387L258.75822,27.384615384615387L260.41998,27.384615384615387L262.10538,27.384615384615387L263.76762,27.384615384615387L265.43363999999997,164.30769230769232L267.07800000000003,164.30769230769232L268.72301999999996,164.30769230769232L270.39036,27.384615384615387L272.01996,27.384615384615387L273.65466000000004,27.384615384615387L275.31780000000003,27.384615384615387L276.96966,164.30769230769232L278.60184,27.384615384615387L280.23288,27.384615384615387L281.85936,164.30769230769232" style="fill: none;" fill="none"></path></g></g></g></g></g></g><g transform="translate(30, 178)" clip-path="url(#clip_1)"><clipPath id="clip_1"><rect width="300" height="22"></rect></clipPath><g><g><line x1="0" y1="0" x2="0" y2="5" style="visibility: inherit;" fill="rgb(0, 0, 0)" stroke="rgb(204, 204, 204)" stroke-width="1px"></line><line x1="30" y1="0" x2="30" y2="5" style="visibility: inherit;" fill="rgb(0, 0, 0)" stroke="rgb(204, 204, 204)" stroke-width="1px"></line><line x1="60" y1="0" x2="60" y2="5" style="visibility: inherit;" fill="rgb(0, 0, 0)" stroke="rgb(204, 204, 204)" stroke-width="1px"></line><line x1="90" y1="0" x2="90" y2="5" style="visibility: inherit;" fill="rgb(0, 0, 0)" stroke="rgb(204, 204, 204)" stroke-width="1px"></line><line x1="120" y1="0" x2="120" y2="5" style="visibility: inherit;" fill="rgb(0, 0, 0)" stroke="rgb(204, 204, 204)" stroke-width="1px"></line><line x1="150" y1="0" x2="150" y2="5" style="visibility: inherit;" fill="rgb(0, 0, 0)" stroke="rgb(204, 204, 204)" stroke-width="1px"></line><line x1="180" y1="0" x2="180" y2="5" style="visibility: inherit;" fill="rgb(0, 0, 0)" stroke="rgb(204, 204, 204)" stroke-width="1px"></line><line x1="210" y1="0" x2="210" y2="5" style="visibility: inherit;" fill="rgb(0, 0, 0)" stroke="rgb(204, 204, 204)" stroke-width="1px"></line><line x1="240" y1="0" x2="240" y2="5" style="visibility: inherit;" fill="rgb(0, 0, 0)" stroke="rgb(204, 204, 204)" stroke-width="1px"></line><line x1="270" y1="0" x2="270" y2="5" style="visibility: inherit;" fill="rgb(0, 0, 0)" stroke="rgb(204, 204, 204)" stroke-width="1px"></line><line x1="300" y1="0" x2="300" y2="5" style="visibility: inherit;" fill="rgb(0, 0, 0)" stroke="rgb(204, 204, 204)" stroke-width="1px"></line></g><g transform="translate(0, 8)"><text x="0" y="0" dx="0em" dy="0.95em" style="text-anchor: middle; visibility: hidden; font-family: &quot;Helvetica Neue&quot;, sans-serif; font-size: 12px; font-weight: 200;" fill="rgb(50, 49, 63)" stroke="none" stroke-width="1px">-500k</text><text x="30" y="0" dx="0em" dy="0.95em" style="text-anchor: middle; visibility: inherit; font-family: &quot;Helvetica Neue&quot;, sans-serif; font-size: 12px; font-weight: 200;" fill="rgb(50, 49, 63)" stroke="none" stroke-width="1px">0</text><text x="60" y="0" dx="0em" dy="0.95em" style="text-anchor: middle; visibility: inherit; font-family: &quot;Helvetica Neue&quot;, sans-serif; font-size: 12px; font-weight: 200;" fill="rgb(50, 49, 63)" stroke="none" stroke-width="1px">500k</text><text x="90" y="0" dx="0em" dy="0.95em" style="text-anchor: middle; visibility: inherit; font-family: &quot;Helvetica Neue&quot;, sans-serif; font-size: 12px; font-weight: 200;" fill="rgb(50, 49, 63)" stroke="none" stroke-width="1px">1M</text><text x="120" y="0" dx="0em" dy="0.95em" style="text-anchor: middle; visibility: inherit; font-family: &quot;Helvetica Neue&quot;, sans-serif; font-size: 12px; font-weight: 200;" fill="rgb(50, 49, 63)" stroke="none" stroke-width="1px">1.5M</text><text x="150" y="0" dx="0em" dy="0.95em" style="text-anchor: middle; visibility: inherit; font-family: &quot;Helvetica Neue&quot;, sans-serif; font-size: 12px; font-weight: 200;" fill="rgb(50, 49, 63)" stroke="none" stroke-width="1px">2M</text><text x="180" y="0" dx="0em" dy="0.95em" style="text-anchor: middle; visibility: inherit; font-family: &quot;Helvetica Neue&quot;, sans-serif; font-size: 12px; font-weight: 200;" fill="rgb(50, 49, 63)" stroke="none" stroke-width="1px">2.5M</text><text x="210" y="0" dx="0em" dy="0.95em" style="text-anchor: middle; visibility: inherit; font-family: &quot;Helvetica Neue&quot;, sans-serif; font-size: 12px; font-weight: 200;" fill="rgb(50, 49, 63)" stroke="none" stroke-width="1px">3M</text><text x="240" y="0" dx="0em" dy="0.95em" style="text-anchor: middle; visibility: inherit; font-family: &quot;Helvetica Neue&quot;, sans-serif; font-size: 12px; font-weight: 200;" fill="rgb(50, 49, 63)" stroke="none" stroke-width="1px">3.5M</text><text x="270" y="0" dx="0em" dy="0.95em" style="text-anchor: middle; visibility: inherit; font-family: &quot;Helvetica Neue&quot;, sans-serif; font-size: 12px; font-weight: 200;" fill="rgb(50, 49, 63)" stroke="none" stroke-width="1px">4M</text><text x="300" y="0" dx="0em" dy="0.95em" style="text-anchor: middle; visibility: hidden; font-family: &quot;Helvetica Neue&quot;, sans-serif; font-size: 12px; font-weight: 200;" fill="rgb(50, 49, 63)" stroke="none" stroke-width="1px">4.5M</text></g><line x1="0" y1="0" x2="300" y2="0" fill="rgb(0, 0, 0)" stroke="rgb(204, 204, 204)" stroke-width="1px"></line></g></g></g></g></svg>