<svg viewBox="0 0 330 200" xmlns="http://www.w3.org/2000/svg"><g><g><g><g><g><line x1="30" y1="178" x2="25" y2="178" style="visibility: inherit;" fill="rgb(0, 0, 0)" stroke="rgb(204, 204, 204)" stroke-width="1px"></line><line x1="30" y1="164.30769230769232" x2="25" y2="164.30769230769232" style="visibility: inherit;" fill="rgb(0, 0, 0)" stroke="rgb(204, 204, 204)" stroke-width="1px"></line><line x1="30" y1="150.6153846153846" x2="25" y2="150.6153846153846" style="visibility: inherit;" fill="rgb(0, 0, 0)" stroke="rgb(204, 204, 204)" stroke-width="1px"></line><line x1="30" y1="136.9230769230769" x2="25" y2="136.9230769230769" style="visibility: inherit;" fill="rgb(0, 0, 0)" stroke="rgb(204, 204, 204)" stroke-width="1px"></line><line x1="30" y1="123.23076923076923" x2="25" y2="123.23076923076923" style="visibility: inherit;" fill="rgb(0, 0, 0)" stroke="rgb(204, 204, 204)" stroke-width="1px"></line><line x1="30" y1="109.53846153846153" x2="25" y2="109.53846153846153" style="visibility: inherit;" fill="rgb(0, 0, 0)" stroke="rgb(204, 204, 204)" stroke-width="1px"></line><line x1="30" y1="95.84615384615384" x2="25" y2="95.84615384615384" style="visibility: inherit;" fill="rgb(0, 0, 0)" stroke="rgb(204, 204, 204)" stroke-width="1px"></line><line x1="30" y1="82.15384615384616" x2="25" y2="82.15384615384616" style="visibility: inherit;" fill="rgb(0, 0, 0)" stroke="rgb(204, 204, 204)" stroke-width="1px"></line><line x1="30" y1="68.46153846153845" x2="25" y2="68.46153846153845" style="visibility: inherit;" fill="rgb(0, 0, 0)" stroke="rgb(204, 204, 204)" stroke-width="1px"></line><line x1="30" y1="54.769230769230774" x2="25" y2="54.769230769230774" style="visibility: inherit;" fill="rgb(0, 0, 0)" stroke="rgb(204, 204, 204)" stroke-width="1px"></line><line x1="30" y1="41.076923076923066" x2="25" y2="41.076923076923066" style="visibility: inherit;" fill="rgb(0, 0, 0)" stroke="rgb(204, 204, 204)" stroke-width="1px"></line><line x1="30" y1="27.384615384615387" x2="25" y2="27.384615384615387" style="visibility: inherit;" fill="rgb(0, 0, 0)" stroke="rgb(204, 204, 204)" stroke-width="1px"></line><line x1="30" y1="13.69230769230768" x2="25" y2="13.69230769230768" style="visibility: inherit;" fill="rgb(0, 0, 0)" stroke="rgb(204, 204, 204)" stroke-width="1px"></line><line x1="30" y1="0" x2="25" y2="0" style="visibility: inherit;" fill="rgb(0, 0, 0)" stroke="rgb(204, 204, 204)" stroke-width="1px"></line></g><g transform="translate(20, 0)"><text x="0" y="178" dx="0em" dy="0.3em" style="text-anchor: end; visibility: hidden; font-family: &quot;Helvetica Neue&quot;, sans-serif; font-size: 12px; font-weight: 200;" fill="rgb(50, 49, 63)" stroke="none" stroke-width="1px">-1</text><text x="0" y="164.30769230769232" dx="0em" dy="0.3em" style="text-anchor: end; visibility: inherit; font-family: &quot;Helvetica Neue&quot;, sans-serif; font-size: 12px; font-weight: 200;" fill="rgb(50, 49, 63)" stroke="none" stroke-width="1px">0</text><text x="0" y="150.6153846153846" dx="0em" dy="0.3em" style="text-anchor: end; visibility: hidden; font-family: &quot;Helvetica Neue&quot;, sans-serif; font-size: 12px; font-weight: 200;" fill="rgb(50, 49, 63)" stroke="none" stroke-width="1px">1</text><text x="0" y="136.9230769230769" dx="0em" dy="0.3em" style="text-anchor: end; visibility: inherit; font-family: &quot;Helvetica Neue&quot;, sans-serif; font-size: 12px; font-weight: 200;" fill="rgb(50, 49, 63)" stroke="none" stroke-width="1px">2</text><text x="0" y="123.23076923076923" dx="0em" dy="0.3em" style="text-anchor: end; visibility: hidden; font-family: &quot;Helvetica Neue&quot;, sans-serif; font-size: 12px; font-weight: 200;" fill="rgb(50, 49, 63)" stroke="none" stroke-width="1px">3</text><text x="0" y="109.53846153846153" dx="0em" dy="0.3em" style="text-anchor: end; visibility: inherit; font-family: &quot;Helvetica Neue&quot;, sans-serif; font-size: 12px; font-weight: 200;" fill="rgb(50, 49, 63)" stroke="none" stroke-width="1px">4</text><text x="0" y="95.84615384615384" dx="0em" dy="0.3em" style="text-anchor: end; visibility: hidden; font-family: &quot;Helvetica Neue&quot;, sans-serif; font-size: 12px; font-weight: 200;" fill="rgb(50, 49, 63)" stroke="none" stroke-width="1px">5</text><text x="0" y="82.15384615384616" dx="0em" dy="0.3em" style="text-anchor: end; visibility: inherit; font-family: &quot;Helvetica Neue&quot;, sans-serif; font-size: 12px; font-weight: 200;" fill="rgb(50, 49, 63)" stroke="none" stroke-width="1px">6</text><text x="0" y="68.46153846153845" dx="0em" dy="0.3em" style="text-anchor: end; visibility: hidden; font-family: &quot;Helvetica Neue&quot;, sans-serif; font-size: 12px; font-weight: 200;" fill="rgb(50, 49, 63)" stroke="none" stroke-width="1px">7</text><text x="0" y="54.769230769230774" dx="0em" dy="0.3em" style="text-anchor: end; visibility: inherit; font-family: &quot;Helvetica Neue&quot;, sans-serif; font-size: 12px; font-weight: 200;" fill="rgb(50, 49, 63)" stroke="none" stroke-width="1px">8</text><text x="0" y="41.076923076923066" dx="0em" dy="0.3em" style="text-anchor: end; visibility: hidden; font-family: &quot;Helvetica Neue&quot;, sans-serif; font-size: 12px; font-weight: 200;" fill="rgb(50, 49, 63)" stroke="none" stroke-width="1px">9</text><text x="0" y="27.384615384615387" dx="0em" dy="0.3em" style="text-anchor: end; visibility: inherit; font-family: &quot;Helvetica Neue&quot;, sans-serif; font-size: 12px; font-weight: 200;" fill="rgb(50, 49, 63)" stroke="none" stroke-width="1px">10</text><text x="0" y="13.69230769230768" dx="0em" dy="0.3em" style="text-anchor: end; visibility: hidden; font-family: &quot;Helvetica Neue&quot;, sans-serif; font-size: 12px; font-weight: 200;" fill="rgb(50, 49, 63)" stroke="none" stroke-width="1px">11</text><text x="0" y="0" dx="0em" dy="0.3em" style="text-anchor: end; visibility: hidden; font-family: &quot;Helvetica Neue&quot;, sans-serif; font-size: 12px; font-weight: 200;" fill="rgb(50, 49, 63)" stroke="none" stroke-width="1px">12</text></g><line x1="30" y1="0" x2="30" y2="178" fill="rgb(0, 0, 0)" stroke="rgb(204, 204, 204)" stroke-width="1px"></line></g></g><g transform="translate(30, 0)" clip-path="url(#clip_0)"><clipPath id="clip_0"><rect width="300" height="178"></rect></clipPath><g><g><g><line x1="0" y1="0" x2="0" y2="178" fill="rgb(0, 0, 0)" stroke="rgb(60, 60, 60)" stroke-width="1px" opacity="0.25"></line><line x1="23.076923076923077" y1="0" x2="23.076923076923077" y2="178" fill="rgb(0, 0, 0)" stroke="rgb(60, 60, 60)" stroke-width="1px" opacity="0.25"></line><line x1="46.15384615384615" y1="0" x2="46.15384615384615" y2="178" fill="rgb(0, 0, 0)" stroke="rgb(60, 60, 60)" stroke-width="1px" opacity="0.25"></line><line x1="69.23076923076924" y1="0" x2="69.23076923076924" y2="178" fill="rgb(0, 0, 0)" stroke="rgb(60, 60, 60)" stroke-width="1px" opacity="0.25"></line><line x1="92.3076923076923" y1="0" x2="92.3076923076923" y2="178" fill="rgb(0, 0, 0)" stroke="rgb(60, 60, 60)" stroke-width="1px" opacity="0.25"></line><line x1="115.38461538461539" y1="0" x2="115.38461538461539" y2="178" fill="rgb(0, 0, 0)" stroke="rgb(60, 60, 60)" stroke-width="1px" opacity="0.25"></line><line x1="138.46153846153848" y1="0" x2="138.46153846153848" y2="178" fill="rgb(0, 0, 0)" stroke="rgb(60, 60, 60)" stroke-width="1px" opacity="0.25"></line><line x1="161.53846153846152" y1="0" x2="161.53846153846152" y2="178" fill="rgb(0, 0, 0)" stroke="rgb(60, 60, 60)" stroke-width="1px" opacity="0.25"></line><line x1="184.6153846153846" y1="0" x2="184.6153846153846" y2="178" fill="rgb(0, 0, 0)" stroke="rgb(60, 60, 60)" stroke-width="1px" opacity="0.25"></line><line x1="207.69230769230768" y1="0" x2="207.69230769230768" y2="178" fill="rgb(0, 0, 0)" stroke="rgb(60, 60, 60)" stroke-width="1px" opacity="0.25"></line><line x1="230.76923076923077" y1="0" x2="230.76923076923077" y2="178" fill="rgb(0, 0, 0)" stroke="rgb(60, 60, 60)" stroke-width="1px" opacity="0.25"></line><line x1="253.84615384615384" y1="0" x2="253.84615384615384" y2="178" fill="rgb(0, 0, 0)" stroke="rgb(60, 60, 60)" stroke-width="1px" opacity="0.25"></line><line x1="276.92307692307696" y1="0" x2="276.92307692307696" y2="178" fill="rgb(0, 0, 0)" stroke="rgb(60, 60, 60)" stroke-width="1px" opacity="0.25"></line><line x1="300" y1="0" x2="300" y2="178" fill="rgb(0, 0, 0)" stroke="rgb(60, 60, 60)" stroke-width="1px" opacity="0.25"></line></g><g><line x1="0" y1="178" x2="300" y2="178" fill="rgb(0, 0, 0)" stroke="rgb(60, 60, 60)" stroke-width="1px" opacity="0.25"></line><line x1="0" y1="164.30769230769232" x2="300" y2="164.30769230769232" fill="rgb(0, 0, 0)" stroke="rgb(60, 60, 60)" stroke-width="1px" opacity="0.25"></line><line x1="0" y1="150.6153846153846" x2="300" y2="150.6153846153846" fill="rgb(0, 0, 0)" stroke="rgb(60, 60, 60)" stroke-width="1px" opacity="0.25"></line><line x1="0" y1="136.9230769230769" x2="300" y2="136.9230769230769" fill="rgb(0, 0, 0)" stroke="rgb(60, 60, 60)" stroke-width="1px" opacity="0.25"></line><line x1="0" y1="123.23076923076923" x2="300" y2="123.23076923076923" fill="rgb(0, 0, 0)" stroke="rgb(60, 60, 60)" stroke-width="1px" opacity="0.25"></line><line x1="0" y1="109.53846153846153" x2="300" y2="109.53846153846153" fill="rgb(0, 0, 0)" stroke="rgb(60, 60, 60)" stroke-width="1px" opacity="0.25"></line><line x1="0" y1="95.84615384615384" x2="300" y2="95.84615384615384" fill="rgb(0, 0, 0)" stroke="rgb(60, 60, 60)" stroke-width="1px" opacity="0.25"></line><line x1="0" y1="82.15384615384616" x2="300" y2="82.15384615384616" fill="rgb(0, 0, 0)" stroke="rgb(60, 60, 60)" stroke-width="1px" opacity="0.25"></line><line x1="0" y1="68.46153846153845" x2="300" y2="68.46153846153845" fill="rgb(0, 0, 0)" stroke="rgb(60, 60, 60)" stroke-width="1px" opacity="0.25"></line><line x1="0" y1="54.769230769230774" x2="300" y2="54.769230769230774" fill="rgb(0, 0, 0)" stroke="rgb(60, 60, 60)" stroke-width="1px" opacity="0.25"></line><line x1="0" y1="41.076923076923066" x2="300" y2="41.076923076923066" fill="rgb(0, 0, 0)" stroke="rgb(60, 60, 60)" stroke-width="1px" opacity="0.25"></line><line x1="0" y1="27.384615384615387" x2="300" y2="27.384615384615387" fill="rgb(0, 0, 0)" stroke="rgb(60, 60, 60)" stroke-width="1px" opacity="0.25"></line><line x1="0" y1="13.69230769230768" x2="300" y2="13.69230769230768" fill="rgb(0, 0, 0)" stroke="rgb(60, 60, 60)" stroke-width="1px" opacity="0.25"></line><line x1="0" y1="0" x2="300" y2="0" fill="rgb(0, 0, 0)" stroke="rgb(60, 60, 60)" stroke-width="1px" opacity="0.25"></line></g></g></g><g><g><line x1="0" y1="164.30769230769232" x2="300" y2="164.30769230769232" fill="rgb(0, 0, 0)" stroke="rgb(153, 153, 153)" stroke-width="1.5px"></line></g></g><g><g><line x1="23.076923076923077" y1="0" x2="23.076923076923077" y2="178" fill="rgb(0, 0, 0)" stroke="rgb(153, 153, 153)" stroke-width="1.5px"></line></g></g><g><g><g><g><g><path stroke="rgb(204, 51, 17)" stroke-width="2px" d="M23.076923076923077,164.30769230769232L27.692307692307693,164.30769230769232L32.24307692307693,164.30769230769232L36.76615384615385,164.30769230769232L41.284615384615385,164.30769230769232L44.58724615384615,164.30769230769232L47.79516923076923,164.30769230769232L50.82881538461539,164.30769230769232L53.841484615384616,164.30769230769232L56.779199999999996,164.30769230769232L59.68435384615384,164.30769230769232L62.527892307692305,164.30769230769232L65.34173076923076,164.30769230769232L68.15820000000001,164.30769230769232L70.94586923076923,164.30769230769232L73.71350769230769,164.30769230769232L76.45128461538461,164.30769230769232L79.12813846153847,164.30769230769232L81.80868461538462,164.30769230769232L84.4539,164.30769230769232L87.06011538461539,164.30769230769232L89.62984615384616,164.30769230769232L92.1738,164.30769230769232L94.6979076923077,112.27638149355961L97.22563846153845,80.01730218966748L99.75733846153847,60.01680117891003L102.31308461538461,47.616539815652686L104.87480769230768,39.92839670719573L107.45021538461538,35.16175525922176L110.03711538461538,32.20644035962377L112.64536153846153,30.374146197479007L115.2515076923077,29.2381242304119L117.8627076923077,28.53379076976526L120.44573076923076,28.097104085258962L123.03904615384616,27.8263583643498L125.62626923076924,27.658496026413644L128.2092,27.554421380363436L130.79545384615383,27.48989510114623L133.39977692307693,27.4498888085443L135.9905076923077,27.425084907328227L138.58698461538464,27.409706488650045L141.18630000000002,27.400171869098727L143.79383076923077,27.394260404988046L146.39393076923076,27.39059529724372L149.00483076923075,27.388322930443934L151.60419230769233,27.386914063028712L154.2157846153846,27.386040565231497L156.81913846153847,27.385498996597306L159.42304615384617,27.38516322404419L162.03916153846154,27.384955045061247L164.64309230769229,27.384825974091797L167.24164615384618,27.384745950090775L169.8500076923077,27.384696335210123L172.45324615384615,27.38466557398408L175.07577692307692,27.384646502023998L177.6795230769231,27.38463467740874L180.2853,27.384627346147255L182.8887,27.384622800765158L185.4975,27.384619982628237L188.09838461538462,27.384618235383385L190.69707692307693,27.384617152091522L193.29747692307694,27.384616480450575L195.90865384615384,27.384616064033196L198.51729230769232,27.38461580585445L201.12756923076924,27.384615645783583L203.73514615384616,27.384615546539663L206.34140769230768,27.384615485008453L208.96269230769232,27.384615446859073L211.58623846153847,27.38461542320647L214.20053076923077,27.38461540854189L216.8008153846154,27.384615399449814L219.40352307692308,27.384615393812766L222.00842307692307,27.384615390317748L224.6078769230769,27.38461538815085L227.19403846153847,27.38461538680741L229.79983846153846,27.384615385974428L232.40231538461538,27.384615385457977L235.0125230769231,27.384615385137806L237.6114,27.38461538493931L240.20515384615385,27.384615384816243L242.8004076923077,27.384615384739902L245.3959846153846,27.38461538469258L248.0113846153846,27.38461538466325L250.6341923076923,27.38461538464506L253.23676153846156,27.384615384633776L255.84664615384617,27.384615384626784L258.45120000000003,27.384615384622464L261.06616153846153,27.384615384619764L263.6793923076923,27.384615384618115L266.29262307692306,27.384615384617092L268.9008,27.384615384616467L271.5155076923077,27.38461538461607L274.1251384615384,27.384615384615813L276.72736153846154,27.38461538461567" style="fill: none;" fill="none"></path></g></g></g></g><g opacity="0.2"><g><g><g><path stroke="rgb(204, 51, 17)" stroke-width="2px" d="M23.076923076923077,164.30769230769232L27.692307692307693,164.30769230769232L32.24307692307693,164.30769230769232L36.76615384615385,164.30769230769232L41.284615384615385,164.30769230769232L44.58724615384615,164.30769230769232L47.79516923076923,164.30769230769232L50.82881538461539,164.30769230769232L53.841484615384616,164.30769230769232L56.779199999999996,164.30769230769232L59.68435384615384,164.30769230769232L62.527892307692305,164.30769230769232L65.34173076923076,164.30769230769232L68.15820000000001,164.30769230769232L70.94586923076923,164.30769230769232L73.71350769230769,164.30769230769232L76.45128461538461,164.30769230769232L79.12813846153847,164.30769230769232L81.80868461538462,164.30769230769232L84.4539,164.30769230769232L87.06011538461539,164.30769230769232L89.62984615384616,164.30769230769232L92.1738,164.30769230769232L94.6979076923077,27.384615384615387L97.22563846153845,27.384615384615387L99.75733846153847,27.384615384615387L102.31308461538461,27.384615384615387L104.87480769230768,27.384615384615387L107.45021538461538,27.384615384615387L110.03711538461538,27.384615384615387L112.64536153846153,27.384615384615387L115.2515076923077,27.384615384615387L117.8627076923077,27.384615384615387L120.44573076923076,27.384615384615387L123.03904615384616,27.384615384615387L125.62626923076924,27.384615384615387L128.2092,27.384615384615387L130.79545384615383,27.384615384615387L133.39977692307693,27.384615384615387L135.9905076923077,27.384615384615387L138.58698461538464,27.384615384615387L141.18630000000002,27.384615384615387L143.79383076923077,27.384615384615387L146.39393076923076,27.384615384615387L149.00483076923075,27.384615384615387L151.60419230769233,27.384615384615387L154.2157846153846,27.384615384615387L156.81913846153847,27.384615384615387L159.42304615384617,27.384615384615387L162.03916153846154,27.384615384615387L164.64309230769229,27.384615384615387L167.24164615384618,27.384615384615387L169.8500076923077,27.384615384615387L172.45324615384615,27.384615384615387L175.07577692307692,27.384615384615387L177.6795230769231,27.384615384615387L180.2853,27.384615384615387L182.8887,27.384615384615387L185.4975,27.384615384615387L188.09838461538462,27.384615384615387L190.69707692307693,27.384615384615387L193.29747692307694,27.384615384615387L195.90865384615384,27.384615384615387L198.51729230769232,27.384615384615387L201.12756923076924,27.384615384615387L203.73514615384616,27.384615384615387L206.34140769230768,27.384615384615387L208.96269230769232,27.384615384615387L211.58623846153847,27.384615384615387L214.20053076923077,27.384615384615387L216.8008153846154,27.384615384615387L219.40352307692308,27.384615384615387L222.00842307692307,27.384615384615387L224.6078769230769,27.384615384615387L227.19403846153847,27.384615384615387L229.79983846153846,27.384615384615387L232.40231538461538,27.384615384615387L235.0125230769231,27.384615384615387L237.6114,27.384615384615387L240.20515384615385,27.384615384615387L242.8004076923077,27.384615384615387L245.3959846153846,27.384615384615387L248.0113846153846,27.384615384615387L250.6341923076923,27.384615384615387L253.23676153846156,27.384615384615387L255.84664615384617,27.384615384615387L258.45120000000003,27.384615384615387L261.06616153846153,27.384615384615387L263.6793923076923,27.384615384615387L266.29262307692306,27.384615384615387L268.9008,27.384615384615387L271.5155076923077,27.384615384615387L274.1251384615384,27.384615384615387L276.72736153846154,27.384615384615387" style="fill: none;" fill="none"></path></g></g></g></g></g></g><g transform="translate(30, 178)" clip-path="url(#clip_1)"><clipPath id="clip_1"><rect width="300" height="22"></rect></clipPath><g><g><line x1="0" y1="0" x2="0" y2="5" style="visibility: inherit;" fill="rgb(0, 0, 0)" stroke="rgb(204, 204, 204)" stroke-width="1px"></line><line x1="23.076923076923077" y1="0" x2="23.076923076923077" y2="5" style="visibility: inherit;" fill="rgb(0, 0, 0)" stroke="rgb(204, 204, 204)" stroke-width="1px"></line><line x1="46.15384615384615" y1="0" x2="46.15384615384615" y2="5" style="visibility: inherit;" fill="rgb(0, 0, 0)" stroke="rgb(204, 204, 204)" stroke-width="1px"></line><line x1="69.23076923076924" y1="0" x2="69.23076923076924" y2="5" style="visibility: inherit;" fill="rgb(0, 0, 0)" stroke="rgb(204, 204, 204)" stroke-width="1px"></line><line x1="92.3076923076923" y1="0" x2="92.3076923076923" y2="5" style="visibility: inherit;" fill="rgb(0, 0, 0)" stroke="rgb(204, 204, 204)" stroke-width="1px"></line><line x1="115.38461538461539" y1="0" x2="115.38461538461539" y2="5" style="visibility: inherit;" fill="rgb(0, 0, 0)" stroke="rgb(204, 204, 204)" stroke-width="1px"></line><line x1="138.46153846153848" y1="0" x2="138.46153846153848" y2="5" style="visibility: inherit;" fill="rgb(0, 0, 0)" stroke="rgb(204, 204, 204)" stroke-width="1px"></line><line x1="161.53846153846152" y1="0" x2="161.53846153846152" y2="5" style="visibility: inherit;" fill="rgb(0, 0, 0)" stroke="rgb(204, 204, 204)" stroke-width="1px"></line><line x1="184.6153846153846" y1="0" x2="184.6153846153846" y2="5" style="visibility: inherit;" fill="rgb(0, 0, 0)" stroke="rgb(204, 204, 204)" stroke-width="1px"></line><line x1="207.69230769230768" y1="0" x2="207.69230769230768" y2="5" style="visibility: inherit;" fill="rgb(0, 0, 0)" stroke="rgb(204, 204, 204)" stroke-width="1px"></line><line x1="230.76923076923077" y1="0" x2="230.76923076923077" y2="5" style="visibility: inherit;" fill="rgb(0, 0, 0)" stroke="rgb(204, 204, 204)" stroke-width="1px"></line><line x1="253.84615384615384" y1="0" x2="253.84615384615384" y2="5" style="visibility: inherit;" fill="rgb(0, 0, 0)" stroke="rgb(204, 204, 204)" stroke-width="1px"></line><line x1="276.92307692307696" y1="0" x2="276.92307692307696" y2="5" style="visibility: inherit;" fill="rgb(0, 0, 0)" stroke="rgb(204, 204, 204)" stroke-width="1px"></line><line x1="300" y1="0" x2="300" y2="5" style="visibility: inherit;" fill="rgb(0, 0, 0)" stroke="rgb(204, 204, 204)" stroke-width="1px"></line></g><g transform="translate(0, 8)"><text x="0" y="0" dx="0em" dy="0.95em" style="text-anchor: middle; visibility: hidden; font-family: &quot;Helvetica Neue&quot;, sans-serif; font-size: 12px; font-weight: 200;" fill="rgb(50, 49, 63)" stroke="none" stroke-width="1px">-1M</text><text x="23.076923076923077" y="0" dx="0em" dy="0.95em" style="text-anchor: middle; visibility: inherit; font-family: &quot;Helvetica Neue&quot;, sans-serif; font-size: 12px; font-weight: 200;" fill="rgb(50, 49, 63)" stroke="none" stroke-width="1px">0</text><text x="46.15384615384615" y="0" dx="0em" dy="0.95em" style="text-anchor: middle; visibility: hidden; font-family: &quot;Helvetica Neue&quot;, sans-serif; font-size: 12px; font-weight: 200;" fill="rgb(50, 49, 63)" stroke="none" stroke-width="1px">1M</text><text x="69.23076923076924" y="0" dx="0em" dy="0.95em" style="text-anchor: middle; visibility: inherit; font-family: &quot;Helvetica Neue&quot;, sans-serif; font-size: 12px; font-weight: 200;" fill="rgb(50, 49, 63)" stroke="none" stroke-width="1px">2M</text><text x="92.3076923076923" y="0" dx="0em" dy="0.95em" style="text-anchor: middle; visibility: hidden; font-family: &quot;Helvetica Neue&quot;, sans-serif; font-size: 12px; font-weight: 200;" fill="rgb(50, 49, 63)" stroke="none" stroke-width="1px">3M</text><text x="115.38461538461539" y="0" dx="0em" dy="0.95em" style="text-anchor: middle; visibility: inherit; font-family: &quot;Helvetica Neue&quot;, sans-serif; font-size: 12px; font-weight: 200;" fill="rgb(50, 49, 63)" stroke="none" stroke-width="1px">4M</text><text x="138.46153846153848" y="0" dx="0em" dy="0.95em" style="text-anchor: middle; visibility: hidden; font-family: &quot;Helvetica Neue&quot;, sans-serif; font-size: 12px; font-weight: 200;" fill="rgb(50, 49, 63)" stroke="none" stroke-width="1px">5M</text><text x="161.53846153846152" y="0" dx="0em" dy="0.95em" style="text-anchor: middle; visibility: inherit; font-family: &quot;Helvetica Neue&quot;, sans-serif; font-size: 12px; font-weight: 200;" fill="rgb(50, 49, 63)" stroke="none" stroke-width="1px">6M</text><text x="184.6153846153846" y="0" dx="0em" dy="0.95em" style="text-anchor: middle; visibility: hidden; font-family: &quot;Helvetica Neue&quot;, sans-serif; font-size: 12px; font-weight: 200;" fill="rgb(50, 49, 63)" stroke="none" stroke-width="1px">7M</text><text x="207.69230769230768" y="0" dx="0em" dy="0.95em" style="text-anchor: middle; visibility: inherit; font-family: &quot;Helvetica Neue&quot;, sans-serif; font-size: 12px; font-weight: 200;" fill="rgb(50, 49, 63)" stroke="none" stroke-width="1px">8M</text><text x="230.76923076923077" y="0" dx="0em" dy="0.95em" style="text-anchor: middle; visibility: hidden; font-family: &quot;Helvetica Neue&quot;, sans-serif; font-size: 12px; font-weight: 200;" fill="rgb(50, 49, 63)" stroke="none" stroke-width="1px">9M</text><text x="253.84615384615384" y="0" dx="0em" dy="0.95em" style="text-anchor: middle; visibility: inherit; font-family: &quot;Helvetica Neue&quot;, sans-serif; font-size: 12px; font-weight: 200;" fill="rgb(50, 49, 63)" stroke="none" stroke-width="1px">10M</text><text x="276.92307692307696" y="0" dx="0em" dy="0.95em" style="text-anchor: middle; visibility: hidden; font-family: &quot;Helvetica Neue&quot;, sans-serif; font-size: 12px; font-weight: 200;" fill="rgb(50, 49, 63)" stroke="none" stroke-width="1px">11M</text><text x="300" y="0" dx="0em" dy="0.95em" style="text-anchor: middle; visibility: hidden; font-family: &quot;Helvetica Neue&quot;, sans-serif; font-size: 12px; font-weight: 200;" fill="rgb(50, 49, 63)" stroke="none" stroke-width="1px">12M</text></g><line x1="0" y1="0" x2="300" y2="0" fill="rgb(0, 0, 0)" stroke="rgb(204, 204, 204)" stroke-width="1px"></line></g></g></g></g></svg>